<?xml version="1.0" encoding="utf-8"?>
<!-- Generator: Adobe Illustrator 27.4.0, SVG Export Plug-In . SVG Version: 6.00 Build 0)  -->
<svg version="1.1" id="Layer_1" xmlns="http://www.w3.org/2000/svg" xmlns:xlink="http://www.w3.org/1999/xlink" x="0px" y="0px"
	 viewBox="0 0 411.1 137.7" style="enable-background:new 0 0 411.1 137.7;" xml:space="preserve">
<style type="text/css">
	.st0{fill:#3F3D3C;}
	.st1{fill:#FFFFFF;}
</style>
<path class="st0" d="M135.1,69.3c0,2.2-0.1,4.4-0.3,6.6c-0.2,2.2-0.5,4.4-1,6.6c-0.4,2.2-1,4.3-1.6,6.4c-0.6,2.1-1.4,4.2-2.2,6.2
	c-0.8,2-1.8,4-2.8,6c-1,1.9-2.2,3.8-3.4,5.7c-1.2,1.8-2.5,3.6-4,5.3c-1.4,1.7-2.9,3.3-4.4,4.9c-1.6,1.6-3.2,3-4.9,4.4
	c-1.7,1.4-3.5,2.7-5.3,3.9c-1.8,1.2-3.7,2.4-5.7,3.4c-2,1-3.9,2-6,2.8c-2,0.8-4.1,1.6-6.2,2.2c-2.1,0.6-4.3,1.2-6.4,1.6
	c-2.2,0.4-4.4,0.8-6.6,1c-2.2,0.2-4.4,0.3-6.6,0.3c-2.2,0-4.4-0.1-6.6-0.3c-2.2-0.2-4.4-0.5-6.6-1c-2.2-0.4-4.3-1-6.4-1.6
	c-2.1-0.6-4.2-1.4-6.2-2.2c-2-0.8-4-1.8-6-2.8c-1.9-1-3.8-2.2-5.7-3.4c-1.8-1.2-3.6-2.5-5.3-3.9c-1.7-1.4-3.3-2.9-4.9-4.4
	c-1.6-1.6-3-3.2-4.4-4.9c-1.4-1.7-2.7-3.5-4-5.3c-1.2-1.8-2.4-3.7-3.4-5.7c-1-1.9-2-3.9-2.8-6c-0.8-2-1.6-4.1-2.2-6.2
	c-0.6-2.1-1.2-4.3-1.6-6.4c-0.4-2.2-0.8-4.4-1-6.6C0.1,73.7,0,71.5,0,69.3c0-2.2,0.1-4.4,0.3-6.6c0.2-2.2,0.5-4.4,1-6.6
	c0.4-2.2,1-4.3,1.6-6.4c0.6-2.1,1.4-4.2,2.2-6.2c0.8-2,1.8-4,2.8-6c1-1.9,2.2-3.8,3.4-5.7c1.2-1.8,2.5-3.6,4-5.3
	c1.4-1.7,2.9-3.3,4.4-4.9c1.6-1.6,3.2-3,4.9-4.4c1.7-1.4,3.5-2.7,5.3-3.9c1.8-1.2,3.7-2.4,5.7-3.4c2-1,3.9-2,6-2.8
	c2-0.8,4.1-1.6,6.2-2.2c2.1-0.6,4.3-1.2,6.4-1.6c2.2-0.4,4.4-0.8,6.6-1c2.2-0.2,4.4-0.3,6.6-0.3c2.2,0,4.4,0.1,6.6,0.3
	c2.2,0.2,4.4,0.5,6.6,1c2.2,0.4,4.3,1,6.4,1.6c2.1,0.6,4.2,1.4,6.2,2.2c2,0.8,4,1.8,6,2.8s3.8,2.2,5.7,3.4c1.8,1.2,3.6,2.5,5.3,3.9
	c1.7,1.4,3.3,2.9,4.9,4.4c1.6,1.6,3,3.2,4.4,4.9c1.4,1.7,2.7,3.5,4,5.3c1.2,1.8,2.4,3.7,3.4,5.7c1,1.9,2,3.9,2.8,6
	c0.8,2,1.6,4.1,2.2,6.2c0.6,2.1,1.2,4.3,1.6,6.4c0.4,2.2,0.8,4.4,1,6.6C135,64.8,135.1,67,135.1,69.3z"/>
<path class="st1" d="M60.9,109.6c0.1,0.3,0.1,0.4,0.3,0.6v0.1h0.1v0.1h0.1c0,0.1,0.1,0.3,0.1,0.6h0.1v0.3h0.1v0.3h0.1v0.1l0.1,0.1
	v0.1c0,0,0.1,0,0.1,0.1c0,0.1,0.1,0.3,0.1,0.6h0.1v0.1c0,0,0.1,0,0.1,0.1c0,0.1,0,0.3,0.1,0.3c0,0,0.1,0,0.1,0.1v0.1
	c0,0,0.1,0,0.1,0.1v0.1c0.1,0,0.1,0.1,0.3,0.1v0.1c0.1,0.1,0.3,0.3,0.4,0.3v0.1c0.1,0.1,0.3,0.3,0.4,0.3c0,0,0,0.1,0.1,0.1h0.1
	c0,0.1,0.1,0.1,0.1,0.3H65c0,0,0,0.1,0.1,0.1c0.1,0,0.1,0,0.3,0.1v0.1h0.1v0.1h0.1v0.1c0.1,0,0.3,0.1,0.6,0.1v0.1
	c0.1,0,0.4,0,0.6,0.1v0.1h0.4v0.1h0.3v0.1H68v0.1h0.3v0.1h0.3v0.1h0.3v0.1c0.1,0,0.3,0,0.6,0.1v-0.3h0.1v0.1h0.3v0.1
	c0.1,0,0.3,0.1,0.6,0.1v0.1h0.1v0.1h0.3c0,0,0,0.1,0.1,0.1h0.1v0.1h0.1v0.1l0.1,0.1h0.1c0,0,0,0.1,0.1,0.1c0.1,0,0.3,0,0.3,0.1
	c0,0,0,0.1,0.1,0.1c0.4,0.1,1,0.4,1.4,0.6c0,0,0,0.1,0.1,0.1h0.1v0.1h0.3v0.1h0.3c0,0,0,0.1,0.1,0.1h0.1l0.1,0.1H75v-0.1h0.1v0.1
	h0.1v0.1h0.3v0.1h0.1v0.1c0.1,0,0.3,0,0.3,0.1c0,0,0,0.1,0.1,0.1h0.3v0.1h0.1v0.1h0.1c0,0,0,0.1,0.1,0.1h0.3c0,0,0,0.1,0.1,0.1
	c0.1,0,0.3,0.1,0.6,0.1v-0.1c0.1,0,0.3,0,0.3,0.1v0.1h0.1v0.1h0.1v0.1h0.1v0.1h0.1v0.1c0.1,0,0.3,0,0.3,0.1c0,0,0,0.1,0.1,0.1h0.1
	l0.1,0.1h0.4v0.1H80v0.1h0.1v0.1c0.1,0,0.3,0,0.3,0.1c0,0,0,0.1,0.1,0.1l0.3,0.1c0,0,0,0.1,0.1,0.1c0.1,0,0.3,0,0.3,0.1
	c0,0,0,0.1,0.1,0.1h0.1v0.1c0.1,0,0.1,0,0.3,0.1c0,0,0,0.1,0.1,0.1h0.1v0.1c0.1,0,0.1,0,0.3,0.1c0,0,0,0.1,0.1,0.1h0.1
	c0,0.1,0.1,0.1,0.1,0.3h0.1c0,0,0,0.1,0.1,0.1h0.1c0,0.1,0.1,0.1,0.1,0.3h0.1l0.3,0.3h0.3c0,0.1,0.1,0.1,0.1,0.3h0.1
	c0,0,0,0.1,0.1,0.1h0.1l0.3,0.3c0.1,0,0.1,0,0.3,0.1c0,0,0,0.1,0.1,0.1h0.1c0.1,0.1,0.1,0.3,0.3,0.3h0.1c0,0,0,0.1,0.1,0.1h0.1
	c0,0.1,0.1,0.1,0.1,0.3h0.1c0,0,0,0.1,0.1,0.1h0.1c0,0,0,0.1,0.1,0.1h0.1c0,0,0,0.1,0.1,0.1h0.1c0,0,0,0.1,0.1,0.1h0.1
	c0,0,0,0.1,0.1,0.1h0.1v0.1h0.1c0,0,0,0.1,0.1,0.1c0.1,0,0.3,0,0.3,0.1c0,0,0,0.1,0.1,0.1c0.1,0,0.3,0,0.3,0.1v0.1
	c0.1,0,0.1,0,0.3,0.1c0,0,0,0.1,0.1,0.1h0.1v0.1h0.1c0,0,0,0.1,0.1,0.1h0.1c0,0,0,0.1,0.1,0.1h0.1v0.1h0.1c0,0,0,0,0,0.1
	c1.4-0.6,3-1.1,4.5-1.9c-0.3-0.3-0.7-0.6-1-0.9c0-0.1-0.1-0.1-0.1-0.3h-0.1c-0.1-0.1-0.1-0.3-0.3-0.3h-0.1c0-0.1-0.1-0.1-0.1-0.3
	h-0.3v-0.1c-0.1,0-0.1,0-0.3-0.1c0,0,0-0.1-0.1-0.1h-0.1c0-0.1-0.1-0.1-0.1-0.3H92c0,0,0-0.1-0.1-0.1l-0.3-0.1v-0.1h-0.1
	c0,0,0-0.1-0.1-0.1h-0.1c0,0,0-0.1-0.1-0.1h-0.1c0,0,0-0.1-0.1-0.1h-0.1c0,0,0-0.1-0.1-0.1h-0.1c0,0,0-0.1-0.1-0.1H90
	c0,0,0-0.1-0.1-0.1h-0.1c0,0,0-0.1-0.1-0.1h-0.1c0,0,0-0.1-0.1-0.1h-0.1c0,0,0-0.1-0.1-0.1c-0.1,0-0.3,0-0.3-0.1c0,0,0-0.1-0.1-0.1
	c0,0,0-0.1-0.1-0.1h-0.1c0,0,0-0.1-0.1-0.1c-0.1,0-0.3,0-0.3-0.1c0,0,0-0.1-0.1-0.1h-0.1c0,0,0-0.1-0.1-0.1c-0.1,0-0.3,0-0.3-0.1
	c0,0,0-0.1-0.1-0.1c-0.1,0-0.3,0-0.3-0.1c0,0,0-0.1-0.1-0.1l-0.3-0.1v-0.1c-0.1,0-0.1,0-0.3-0.1c0,0,0-0.1-0.1-0.1
	c-0.1-0.6-0.1-0.6-0.3-0.6c0,0,0-0.1-0.1-0.1s-0.3,0-0.3-0.1c0,0,0-0.1-0.1-0.1c-0.1,0-0.3,0-0.3-0.1c0,0,0-0.1-0.1-0.1
	c-0.1,0-0.1,0-0.3-0.1v-0.1c-0.1,0-0.3-0.1-0.6-0.1c0,0,0-0.1-0.1-0.1c-0.1,0-0.3,0-0.3-0.1c0,0,0-0.1-0.1-0.1c-0.1,0-0.3,0-0.3-0.1
	c0,0,0-0.1-0.1-0.1c-0.1,0-0.3-0.1-0.6-0.1v-0.1c-0.1,0-0.1,0-0.3-0.1c0,0,0-0.1-0.1-0.1c-0.1,0-0.3-0.1-0.6-0.1c0,0,0-0.1-0.1-0.1
	c-0.1,0-0.3-0.1-0.6-0.1c0,0,0-0.1-0.1-0.1c-0.1,0-0.3-0.1-0.6-0.1c0,0,0-0.1-0.1-0.1c-0.1,0-0.3-0.1-0.6-0.1c0,0,0-0.1-0.1-0.1
	c-0.1,0-0.3,0-0.3-0.1v-0.1c-0.1,0-0.3-0.1-0.6-0.1v-0.1h-0.3v-0.1h-0.3v-0.1H77v-0.1h-0.3v-0.1h-0.4v-0.1H76v-0.1h-0.6v-0.1h-0.6
	v-0.1c-0.4,0-0.7,0-1.2-0.1v-0.1h-0.3v-0.1h-0.6v-0.1h-0.3v-0.1h-0.4v-0.1h-0.3v-0.1h-0.3v-0.1h-0.3v0.7h-0.1v-0.1h-0.3v-0.1h-0.1
	v-0.1h-0.3v-0.1c-0.1,0-0.3,0-0.3-0.1v-0.1c-0.1,0-0.3,0-0.4-0.1v-0.1h-0.3v-0.1c-0.1,0-0.3-0.1-0.6-0.1v-0.1h-0.1v-0.1h-0.1v-0.1
	h-0.1v-0.1h-0.3c0,0,0-0.1-0.1-0.1h-0.3c0,0,0-0.1-0.1-0.1h-0.1v-0.1h-0.1v-0.1h-0.1l-0.1-0.1c0,0,0-0.1-0.1-0.1h-0.1v-0.1h-0.1
	l-0.1-0.1h-0.1c0,0,0-0.1-0.1-0.1l-0.3-0.1c0,0,0-0.1-0.1-0.1c-0.1,0-0.3,0-0.3-0.1c0,0,0-0.1-0.1-0.1c-0.1,0-0.3,0-0.3-0.1
	c0,0,0-0.1-0.1-0.1h-0.1c0,0,0-0.1-0.1-0.1h-0.1c0,0,0-0.1-0.1-0.1h-0.1v-0.1c-0.1,0-0.1,0-0.3-0.1c0,0,0-0.1-0.1-0.1h-0.1
	c0,0,0-0.1-0.1-0.1h-0.1c0,0,0-0.1-0.1-0.1c-0.1,0-0.1,0-0.3-0.1l-0.1,0.3h-0.1c0-0.1-0.1-0.1-0.1-0.3h-0.1
	c-0.1-0.1-0.3-0.3-0.3-0.4h-0.1C61.4,110,61.2,109.9,60.9,109.6z"/>
<path class="st1" d="M78.6,112.5C78.8,112.5,78.8,112.5,78.6,112.5c-0.1-0.1-0.3-0.1-0.3-0.3v0.1c-0.1,0.1-0.3,0.4-0.6,0.6h-0.1v0.1
	h0.6C78.3,112.9,78.6,112.9,78.6,112.5z"/>
<path class="st1" d="M26,117.6l0.1-0.1v-0.1h0.3c0.1,0,0.3,0,0.3-0.1v-0.1c0.1,0,0.3,0,0.3-0.1c0,0,0-0.1,0.1-0.1
	c0.1,0,0.3,0,0.3-0.1c0,0,0-0.1,0.1-0.1l0.3-0.1c0-0.1,0.1-0.1,0.1-0.3h0.1c0-0.1,0.1-0.1,0.1-0.3h0.1c0.1-0.1,0.1-0.3,0.3-0.3h0.1
	c0.1-0.1,0.3-0.3,0.3-0.4h0.1c0,0,0-0.1,0.1-0.1c0.1,0,0.1,0,0.3-0.1l0.3-0.3h0.1c0,0,0-0.1,0.1-0.1h0.1c0-0.1,0.1-0.1,0.1-0.3h0.1
	c0,0,0-0.1,0.1-0.1H31v-0.1c0.1,0,0.1,0,0.3-0.1c0,0,0-0.1,0.1-0.1h0.1c0,0,0-0.1,0.1-0.1c0.1,0,0.3,0,0.3-0.1c0,0,0-0.1,0.1-0.1
	h0.1c0,0,0-0.1,0.1-0.1c0.1,0,0.3-0.1,0.6-0.1c0,0,0-0.1,0.1-0.1h0.1l0.1-0.1h0.4v-0.1h0.1v-0.1h0.1V112h0.1l0.1-0.1h0.1
	c0,0,0-0.1,0.1-0.1c0.1,0,0.3,0,0.4-0.1c0,0,0-0.1,0.1-0.1h0.3v-0.1h0.1v-0.1h0.1V111h0.1v-0.1c0.1,0,0.3-0.1,0.6-0.1v-0.1h0.3v-0.1
	c0.1,0,0.3-0.1,0.6-0.1v-0.1h0.1V110h0.3c0,0,0-0.1,0.1-0.1h0.3v0.3h0.3V110h0.1v-0.1h0.1v-0.1h0.1v-0.1h0.1v-0.1
	c0.1,0,0.3-0.1,0.6-0.1c0,0,0-0.1,0.1-0.1c0.1,0,0.3-0.1,0.6-0.1v-0.1c0.1,0,0.1,0,0.3-0.1c0,0,0-0.1,0.1-0.1h0.1c0,0,0-0.1,0.1-0.1
	h0.1c0-0.1,0.1-0.1,0.1-0.3h0.1c0,0,0-0.1,0.1-0.1c0.1,0,0.1-0.1,0.3-0.1v-0.1h0.1c0.1-0.1,0.3-0.3,0.3-0.4h0.1
	c0.1-0.1,0.3-0.3,0.4-0.6h0.1c0-0.1,0.1-0.1,0.1-0.3h0.1c0,0,0-0.1,0.1-0.1h0.1c0-0.1,0.1-0.1,0.1-0.3c0.1,0,0.3,0,0.3-0.1
	c0,0,0-0.1,0.1-0.1c0.1,0,0.3-0.1,0.6-0.1v-0.1h0.4v-0.1h0.1v-0.1h0.1V105h0.1v-0.1h0.3v-0.1c0.1,0,0.1,0,0.3-0.1c0,0,0-0.1,0.1-0.1
	h0.1c0,0,0-0.1,0.1-0.1H47c0,0,0-0.1,0.1-0.1c0.1,0,0.1,0,0.3-0.1c0-0.1,0.1-0.1,0.1-0.3h0.1c0-0.1,0.1-0.1,0.1-0.3H48
	c0-0.1,0.1-0.1,0.1-0.3h0.1c0-0.1,0.1-0.1,0.1-0.3h0.1c0.1-0.1,0.1-0.3,0.3-0.3c0.1,0,0.1,0,0.3-0.1c0,0,0-0.1,0.1-0.1h0.1l0.3-0.3
	h0.1c0-0.1,0.1-0.1,0.1-0.3h0.1c0-0.1,0.1-0.1,0.1-0.3h0.1v-0.1c0.1-0.1,0.3-0.1,0.3-0.3c0.1-0.7,0.3-1.4,0.4-2.2
	c0.3-1,0.4-2.3,0.9-3.3v-2.3c0-0.6,0-1.4-0.1-1.9v-0.6h-0.1v-0.3c-0.1,0-0.1-0.1-0.3-0.1v-0.1c-0.1-0.1-0.4-0.3-0.6-0.6v0.4
	c-0.1-0.1-0.3-0.3-0.6-0.4v-0.1c-0.1-0.1-0.3-0.3-0.4-0.3v-0.1c-0.1-0.1-0.3-0.3-0.4-0.3v-0.1c-0.1-0.1-0.3-0.3-0.4-0.3v-0.1
	c-0.1-0.1-0.3-0.3-0.6-0.4v-0.6c-0.1-0.1-0.3-0.3-0.4-0.3v-0.1c-0.1-0.1-0.3-0.1-0.3-0.3v-0.1l-0.3-0.3v-0.3
	c-0.1-0.1-0.3-0.3-0.4-0.3v-0.1c-0.1,0-0.1-0.1-0.3-0.1v-0.1c-0.1-0.1-0.3-0.1-0.3-0.3v-0.4c0,0-0.1,0-0.1-0.1c0-0.1,0-0.1-0.1-0.3
	H46c0-0.1,0-0.3-0.1-0.3c0,0-0.1,0-0.1-0.1c0-0.1,0-0.1-0.1-0.3h-0.1V83l-0.1-0.1v-0.1c0,0-0.1,0-0.1-0.1c0-0.1,0-0.3-0.1-0.3
	c0,0-0.1,0-0.1-0.1V82h-0.1v-0.1l-0.1-0.1v-0.1c0,0-0.1,0-0.1-0.1v-0.1h-0.1v-0.1h-0.1V81L44,80.9v-0.1c0,0-0.1,0-0.1-0.1
	c0-0.1-0.1-0.3-0.1-0.6H44v-0.1c0-0.1-0.1-0.3-0.1-0.6h-0.1V79h-0.1c0-0.4-0.1-0.7-0.1-1.2h-0.1V78c-0.1,0-0.3,0-0.4,0.1v0.1h-0.3
	v0.1h-0.1v0.1c-0.1,0-0.3,0.1-0.6,0.1c0,0,0,0.1-0.1,0.1h-0.1c0,0,0,0.1-0.1,0.1h-0.1c-0.1,0.1-0.1,0.3-0.3,0.3c0,0-0.1,0-0.1,0.1
	v0.3h-0.1v0.1h-0.1c-0.1,0.4,0,0.6-0.4,0.6v0.1c-0.3,0.1-0.4-0.1-0.6-0.1v0.1h-0.1v0.1c-0.1,0-0.3,0-0.3,0.1c0,0,0,0.1-0.1,0.1h-0.1
	l-0.1,0.1h-0.1c0,0,0,0.1-0.1,0.1h-0.1v0.1h-0.1v0.1c-0.1,0.1-0.1,0-0.3,0.1c-0.3-0.3-0.6,0-0.6-0.7c0.1-0.1,0.1-0.1,0.1-0.4
	c-0.4-0.1-1.3-0.1-2-0.1c-0.1,0.1,0,0-0.1,0.1c-0.1,0.6-0.1,1.2-0.3,1.7h-0.1v0.1c0,0-0.1,0-0.1,0.1v0.1c-0.1,0.4-0.3,0.3-0.3,0.9
	c-0.3,0-0.4-0.1-0.7-0.3c0-0.4-0.1-0.9-0.1-1.3h0.1c0-0.1,0.1-0.7,0.1-0.7h-0.1c-0.1-0.3-0.7-0.9-1.2-0.7v0.1h-0.3v0.1
	c-1,0-2.2,0.1-3.2,0.1c-0.1,0.3-0.3,0.3-0.3,0.6C29,81.8,29,82,29,82.5c-0.1,0-0.4,0.3-0.6,0.3v0.1h-0.1C28.2,83,28,83.2,28,83.3
	c-0.1,0-0.1,0-0.3,0.1c-0.1,0.1-0.1,0.3-0.3,0.3h-0.9c-0.1-0.1-1.4-0.3-1.9-0.3c0,0.3,0.1,0.3,0.3,0.6h-0.1
	c-0.1,0.1-0.3,0.3-0.3,0.4h-0.1v-0.1c-0.1,0.1-0.3,0.1-0.3,0.3v0.1c-0.1,0-0.1,0.1-0.3,0.1v0.1h-0.1v-0.9C23.9,84,24,83.3,24,83
	h-0.1c-0.1,0.1-0.1,0.1-0.3,0.1v0.1h-0.1l-0.3,0.3H23v0.1h-0.6v0.1h-0.3V84h-0.3c-0.1,0.1-0.1,0.3-0.3,0.3h-0.1v0.1
	c0,0-0.1,0-0.1,0.1c0,0.1,0,0.3-0.1,0.3c0,0-0.1,0-0.1,0.1c0,0.1,0,0.3-0.1,0.3h-0.1c0,0.1,0,0.3-0.1,0.3h-0.1v0.3h-0.1v0.3h-0.1
	v0.1c-0.1,0.3-0.3,0.4-0.6,0.6c0,0,0,0.1-0.1,0.1h-0.6c-0.1-0.3-0.3-0.3-0.4-0.4v-0.1h-0.1v-0.1h-0.1v-0.3c0,0-0.1,0-0.1-0.1
	c-0.3-0.3-0.4-0.4-0.9-0.4c0,0.1-0.1,0.3-0.1,0.3h-0.1c0,0,0,0.1-0.1,0.1h-0.1v0.1h0.1v0.1h-0.3v0.1c-0.3,0.1-0.7,0-0.9-0.1
	c-0.3-0.1-0.7,0-1,0.1c0,0.1,0,0.3-0.1,0.4h-0.1c-0.1,0.4,0.1,1,0.1,1.3c0.1,0,0.1,0,0.3,0.1v0.1c0.3,0.1,0.6-0.1,0.9,0.1
	c0.3,0.1,0.3,0.6,0.3,1c-0.1,0-0.1,0.1-0.1,0.1h-0.1v0.1h-0.3v0.1h-0.9v0.1h-0.1c-0.4,0.1-1.4,0-1.7-0.1c-0.1-0.1-0.3-0.4-0.3-0.6
	v-0.4h0.1c0.1-0.3,0-0.6-0.1-0.7c-0.1,0-0.4-0.1-0.6-0.1c0,0.3-0.1,1.3-0.3,1.6c-0.1,0.9-1.2,1.1-2.3,1.1c0-0.6,0.4-0.7,0.7-1
	c-0.3-0.1-0.9-0.1-1-0.3v-0.1c0,0-0.1,0-0.1-0.1c-0.1-0.1-0.1-0.4-0.1-0.6c0.1-0.1,0,0,0.1-0.1c-0.1-0.1-0.1,0-0.1-0.1
	c-0.1,0-0.1,0-0.1,0.1c-1,0.3-0.3,1.3-1.3,1.3c-0.1-0.1,0,0-0.1-0.1c0-0.3-0.1-0.4-0.3-0.6c-0.1-0.4-0.1-1.2-0.1-1.7
	c-0.1,0-0.3,0-0.6,0.1v-0.3c-0.1,0-0.3,0-0.6,0c3.4,12.1,10.3,22.7,19.5,30.9C25.2,117.9,25.6,117.8,26,117.6z"/>
<path class="st1" d="M117,27.2c-0.3-0.3-0.6-0.7-0.9-1c-0.3,0.1-0.4,0.6-0.4,1l0.3,0.1v0.1h0.4v0.1C116.7,27.5,116.8,27.3,117,27.2z
	"/>
<path class="st1" d="M6.2,82.8C6.2,82.8,6.2,82.6,6.2,82.8c0.3-0.3,0.6-0.4,0.7-0.7v-0.1c0.1,0,0.1-0.1,0.3-0.1c0,0.9,0.4,1.6,1,1.7
	v0.1c0.1,0.1,0.6,0,0.6-0.1c0-0.1,0.1-0.1,0.1-0.1v-0.1c0,0,0.1,0,0.1-0.1v-0.3c0.1-0.3,0.3-0.4,0.3-0.7c1,0,1.9-0.1,2.7-0.1
	c0.1-0.1,0.1-0.3,0.3-0.3h0.1c0-0.1,0.1-0.3,0.1-0.6h0.1c0-0.3,0-0.4,0.1-0.7l0.3-0.1c0-0.1,0.1-0.1,0.1-0.3h0.1c0,0,0-0.1,0.1-0.1
	l0.3-0.1c0-0.1,0.1-0.1,0.1-0.3c0.6-0.4,1-0.7,1-1.7c-0.1,0-0.3-0.3-0.3-0.3c-0.7,0-1.4-0.1-2.2-0.1c0-0.6,0-1.1-0.1-1.7h-0.1
	c-0.1,0.1-0.3,0.3-0.3,0.6c0,0-0.1,0-0.1,0.1c0,0.1,0,0.3-0.1,0.3h-0.1v0.3c0,0-0.1,0-0.1,0.1c-0.3,0.3-0.4,0.4-1,0.3
	c-0.1,0-0.1,0-0.3-0.1c0,0,0-0.1-0.1-0.1c0-0.3-0.1-0.6-0.1-0.9c0,0-0.1,0-0.1-0.1v-0.1c0,0-0.1,0-0.1-0.1c-0.1-0.1-0.4-0.4-0.6-0.7
	c-0.3-0.1-0.7-0.6-0.9-0.9c0.1,0,0.3-0.1,0.6-0.1v-0.1h0.3v-0.1h0.1v-0.1h0.3v-0.1h0.1v-0.1L9.9,73c0-0.3,0-0.4,0.1-0.7
	c-0.6-0.1-1.4-0.6-1.7-1C8,71.6,8,71.4,7.8,71.1v-0.6H8v-0.1c-0.1,0-0.1,0-0.3-0.1c0,0,0-0.1-0.1-0.1H7.5c0-0.1-0.1-0.1-0.1-0.3H7
	c0,0,0-0.1-0.1-0.1H6.8l-0.1-0.3H6.3c0-0.1-0.1-0.1-0.1-0.3c-0.3-0.3-0.6-0.1-0.6-0.7C6,68,6.3,67.5,6.8,67.1H8v0.1h0.7
	c0.4,0.1,1,0.3,1.6,0.3c0,0.3,0,0.1-0.3,0.3c0,0.3,0,0.1,0.3,0.3c0.1,0.1,1.2,0.3,1.6,0.3c0.3-0.4,0.7-0.9,1.2-1h0.3v-0.1h0.7v0.1
	h0.3v0.1h0.3v0.1c0.1,0,0.3,0,0.3,0.1V68h0.6v0.1h1.7c0.4,0,0.7,0,1.2,0.1v-0.1c0.3-0.1,0.3-0.3,0.6-0.3v-0.1h0.1v-0.6H19
	c-0.3-0.1-0.4-0.4-0.7-0.6v-0.1h-2v-0.1h-0.6v-0.1h-0.3V66h-0.3v-0.1c-0.3-0.1-0.3,0-0.4-0.3h-0.1c-0.1-0.1,0.4-1.3,0.4-1.4h0.1
	c0.1-0.3,0-0.6,0.1-0.9v-0.1h0.3c0.3,0.3,0.7,0.4,1.4,0.3c-0.1-0.4-0.4-0.9-0.6-1.3v-0.9c0.3-0.3,0.3-0.7,1-0.9
	c0.1,0.1,0.3,0.3,0.4,0.6H18v0.1c0.3,0.3,0.9,0.6,1.4,0.6v-0.1c-0.3-0.1-0.3-1.3-0.1-1.6h0.1v-0.1h0.1c0-0.1,0-0.1,0.1-0.3
	c0.3-0.1,0.4-0.1,0.9-0.1c0.1,0.3,0.4,0.3,0.6,0.6v0.1c0.1,0,0.1,0.1,0.3,0.1c0,0.1,0,0.1,0.1,0.3c0.1,0,0.3,0,0.3,0.1v0.1l0.3,0.1
	v0.4h0.3v0.1c0.1,0,0.3,0,0.3,0.1v0.1H23v0.1h0.1v0.1h0.3c0.7,0.3,1.3,0.7,2.3,0.7c0-0.1,0.1-0.3,0.1-0.6c-0.3-0.1-0.1-0.4-0.3-0.7
	h-0.3v-0.6h-0.1v-0.3H25v-0.1h-0.1v-0.7c0.1-0.3,0.6-0.7,0.3-1.2h0.1c0-0.1,0-0.3-0.1-0.3c-0.1-0.1-0.7-0.4-0.9-0.4H24
	c0-0.1,0-0.1-0.1-0.3c0-0.1,0-0.1,0.1-0.3c0.1-0.1,0.3-0.1,0.3-0.3v-0.1c0.1,0,0.3,0,0.4-0.1v-0.1H26v-0.1h0.4v-0.1h0.4v-0.1h0.3V56
	h0.3v-0.1c0.1,0,0.3,0,0.6-0.1v-0.1c-0.3,0-0.7-0.1-1-0.1c-0.1-0.1-0.1-0.3-0.3-0.4c-0.1,0-0.3,0-0.4,0.1V55
	c-0.3-0.3-0.6-0.4-0.9-0.7v-0.1c-0.1,0-0.1-0.1-0.3-0.1v-0.1c-0.1,0-0.1-0.1-0.3-0.1c0-0.1,0-0.3-0.1-0.3c0,0-0.1,0-0.1-0.1
	c-0.1-0.3-0.4-0.7-0.4-1h0.3c0.1,0.3,0.1,0,0.3,0.1c0.1,0.1,0.1,0.3,0.3,0.3h0.3c0,0.1,0.1,0.1,0.1,0.3h1c0.1-0.1,0.1-0.1,0.3-0.1
	c0.1-0.3,0.3-0.4,0.4-0.6v-0.1c-0.6-0.6-1-1-1.6-1.6h-0.1c0,0,0-0.1-0.1-0.1c-0.1,0-0.3,0.1-0.6,0c0-0.1-0.1-0.1-0.1-0.3h-0.1V50
	c-0.1,0-0.1-0.1-0.3-0.1v-0.1H24v-0.3h-0.1v-1h-0.1c0-0.1,0-0.3-0.1-0.3c-0.7-0.1-0.7-0.4-0.7-1.2c0.1-0.3,0.3-0.7,0.3-1
	c0.1,0,0.1-0.1,0.3-0.1c0.6,0.1,0.9,0.4,1.3,0.7c0,0.1,0.1,0.1,0.1,0.3H25c0.1,0.1,0.3,0.3,0.3,0.4h0.1v0.1c0,0,0.1,0,0.1,0.1v0.6
	h0.1v0.7C26,49,25.9,49,26.3,49c0-0.1,0.1-0.3,0.3-0.3c0-0.1,0-0.4,0.1-0.6H27c0,0.1,0.3,0.3,0.3,0.4c0,0.4,0,0.9,0.1,1.3h-0.1v0.6
	c0,0.1-0.4,0.7-0.3,1h0.1v0.3h0.1c0,0.1,0,0.3,0.1,0.3h0.1v0.1h0.6c0.3,0.4,0.3,0.6,0.7,0.9v-0.3H29c0.1-0.1,0-0.3,0.1-0.3h0.1
	c0-0.1,0.1-0.1,0.1-0.3h0.1V52c0.4,0,0.9,0,1.3,0.1v0.1h0.3c0,0,0,0.1,0.1,0.1h0.1v0.1c0.3,0.1,1.1-0.1,1.3-0.3
	c0.1-0.1,0.3-0.4,0.6-0.6h0.1c0.1-0.1,0-0.3,0.1-0.4c0-0.3-0.1-0.4-0.3-0.6v-0.3c-0.1,0-0.1,0-0.3-0.1v-0.1h-0.4v-2.4h0.1
	c0-0.1,0-0.3,0.1-0.4h0.3c0.1,0.3,0.3,0.6,0.6,0.9h0.1c0.3,0.1,0.6,0,0.9,0c1,0,2,0.1,2.3-0.6c-0.3-0.1-0.7-0.6-0.9-0.9
	c-1.1,0-1.4,0.6-2.6,0.6c-0.1-0.1,0-0.1-0.3-0.1c0-0.3,0-0.1-0.3-0.3c-0.3-0.3-0.6,0-1-0.1c-0.1,0-0.7-0.3-0.9-0.3
	c-0.3,0-1,0.4-1.3,0.3v-0.1h-0.3v-0.1h-0.1c-0.3-0.1-0.4-0.3-0.7-0.3c0.1-0.7,0.9-1,0.9-2c-0.3-0.1,0-0.1-0.1-0.4h-0.1
	C29,43.3,28.9,43,28.2,43v0.1c-0.1,0-0.1,0-0.3,0.1c0,0.1-0.1,0.1-0.1,0.3h-0.1v0.1c-0.3,0.1-0.4,0.3-0.6,0.6h-0.1V44H27
	c0,0,0.1-1.1,0.1-1.3H27c-0.1-0.4-0.4-0.4-0.6-0.7c0-0.1,0-0.1-0.1-0.3c-0.1,0-0.1-0.1-0.3-0.1c0-0.1,0-0.1-0.1-0.3
	c-0.1-0.1-0.4,0-0.6-0.1c0,0,0-0.1-0.1-0.1c-0.3-0.3-0.7-0.6-0.9-1c0.3-0.1,0.9-0.6,1.2-0.4v0.1h0.1c0,0,0,0.1,0.1,0.1h0.1
	c0,0.1,0.1,0.1,0.1,0.3c0.1,0,0.3,0.1,0.6,0.1v-0.1c0.3-0.1,0.6-0.3,0.7-0.4h0.1v-0.1h0.1v-0.1h0.1v-0.3h0.1C28,39,28,39,28.3,39
	c0.1,0.1,0.3,0,0.4,0.1c0,0,0,0.1,0.1,0.1h0.3c0,0.1,0.1,0.1,0.1,0.3h0.1c0,0,0,0.1,0.1,0.1l0.3,0.1V40c0.1,0.1,0.1,0.1,0.3,0.1
	c0.1,0.4,0.3,0.9,0.4,1.3V42h0.1v0.9h0.1V43c0.3,0.1,0.3,0.3,0.6,0.3c0.1-0.1,0,0,0.1-0.1c0.3-0.4,0.6-0.6,0.6-1.3
	c-0.1-0.1-0.3-1.4-0.3-1.9c0.4,0,1,0,1.4,0.1v-0.3h0.4c0-0.1,0.1-0.1,0.1-0.1v-0.1c0-0.1,0-0.3-0.1-0.6h-0.1c0-0.4,0-0.9-0.1-1.3
	c0-0.1,0.3-0.7,0.1-1c0,0-0.1,0-0.1-0.1v-0.1c0,0-0.1,0-0.1-0.1v-0.1c0,0-0.1,0-0.1-0.1v-0.1c-0.1,0-0.1-0.1-0.3-0.1
	c0-0.1,0-0.3-0.1-0.3c-0.1,0-0.1-0.1-0.3-0.1v-0.3c0-0.4,0.1-0.9,0.1-1.3h0.1c0.1-0.4-0.1-0.7-0.1-1c-0.1-0.3,0-0.4,0.1-0.6
	c0.1-0.1,0.3-0.1,0.3-0.3v-0.1h0.1c0,0,0-0.1,0.1-0.1c0.1,0,0.3,0,0.4-0.1v-0.1c0.3-0.1,0.4-0.1,0.6-0.3c0-0.6,0-1,0.1-1.6h-0.1
	v-0.3h-0.1v-0.3h-0.1c0-0.1,0-0.3-0.1-0.4V28h-0.1v-0.1h-1c-0.3,0.1-0.9,0-1.2-0.1c0-0.7-0.1-1.3-0.3-1.7c-0.1-0.3,0-0.4-0.1-0.6
	c0,0-0.1,0-0.1-0.1v-0.1c0,0-0.1,0-0.1-0.1c-0.3-0.3-0.6-0.4-0.6-0.9c0.1-0.1,0,0,0.1-0.1h0.1c0.1-0.3,0.3-0.4,0.3-0.7
	c0.4,0,1-0.1,1.4,0.1c0,0.1,0.1,0.1,0.1,0.3h0.1c0.1,0.3,0,0.6,0.1,0.7h0.3c0,0,0.7-0.4,0.9-0.3v0.1c0.3,0,0.3,0.1,0.6,0.1v1
	c0.9,0,1,0.4,1.9,0.1c0-0.1,0-0.1,0.1-0.3c0.3,0,0.7-0.4,1-0.3v0.1c0.3,0.1,0.3,0.1,0.6,0.3c0.1-0.7,0.7-0.9,1.2-1.3
	c0,0,0-0.1,0.1-0.1h0.1c0,0,0-0.1,0.1-0.1c0.1-0.1,0.4-0.4,0.9-0.4c0.1,0.1,0.1,0.3,0.3,0.3H41c0,0.1,0,0.3,0.1,0.3l0.1,0.1h-0.1
	v0.1c0.4-0.1,1-0.4,1.4-0.6v-0.1c0.1,0,0.1,0,0.3-0.1c0,0,0-0.1,0.1-0.1h0.6c0.3,0.4,0.9,0.4,1.4,0.3c0-0.1,0-0.6,0.1-0.9
	c0.1-0.6,0.9-1,1.6-1c0.3,0.3,0.6,0.6,0.9,0.9h0.7v-0.1h0.4c0-0.1,0-0.1,0.1-0.3c-0.1-0.1-0.3-0.7-0.3-0.9c0.1-0.1,0,0,0.1-0.1
	c0.3,0,0.6-0.1,1,0v0.1h0.1v0.1c0.1,0.1,0.1,0.1,0.3,0.1c0.1,0.4,0.4,0.4,0.4,0.9c-0.1,0.1-0.4,0.3-0.4,0.6c0.4,0,0.9-0.1,1.2,0
	c0,0,0,0.1,0.1,0.1h0.1c0.1,0.1,0.3,0.3,0.3,0.4h0.3c0,0,0,0.1,0.1,0.1c0.1,0,0.3,0,0.4,0.1c0.1-0.1,0.1,0,0.3-0.3h0.1
	c0-0.4,0.1-0.9,0.1-1.3h-0.1c0-0.1,0-0.3-0.1-0.3c-0.1,0-0.1,0-0.3-0.1v-0.1h-0.1v-0.1c0.3-0.3,0-0.7,0.1-1c0-0.1,0.1-0.4,0.3-0.6
	c0.6,0,1.1,0,1.7,0.1c0.3,0.1,0.6,0.1,0.9,0.3c0.3,0.4,0.4,0.9,1,1c0.1-0.4,0.3-0.6,0.4-0.9h0.1c0.3-0.4,0.6-0.3,0.7-0.7h0.1v-0.1
	h-0.1c-0.1-0.1-0.6-0.1-0.9-0.1c0-0.3-0.1-0.6-0.3-0.9v-0.6h0.1v-0.6h-0.1c0-0.1,0-0.3-0.1-0.3c-0.3-0.1-0.6-0.4-1-0.4
	c0.1-0.3,0.4-0.4,0.6-0.7c0.3,0.1,0.7,0.3,1,0.3v0.1h0.3c0,0,0,0.1,0.1,0.1h0.1c0,0,0,0.1,0.1,0.1h0.1c0,0,0,0.1,0.1,0.1
	c0.3,0.1,0.6,0.3,1,0.3c0-0.1,0.1-0.1,0.1-0.1v-0.6c0,0,0.1,0,0.1-0.1c0.1-0.1,0.3-0.3,0.4-0.6c0.4,0.1,0.7,0.3,1.2,0.6
	c-0.1,0.4,0,0.6,0,0.9c0.3,0,0.6,0,0.9-0.1c0-0.1,0.1-0.1,0.1-0.4c-0.1-0.1-0.4-0.6-0.4-0.9c0.6,0,1.2,0.3,1.7,0.4
	c0.1,0.1,0.1,0.3,0.3,0.3h0.1v0.3H64V17h0.1v0.1h0.1v0.3h0.1v0.1h-0.3c0,0.1,0,0.1,0.1,0.3c0.1,0,0.4,0,0.6,0.1v-0.1h0.3
	c0,0,0-0.1,0.1-0.1h0.1v-0.1h0.1v-0.1h0.3v-0.1H66v-0.1c0.4-0.1,0.9,0.1,1.2,0.1c0,0.1,0,0.1,0.1,0.3h-0.1v0.1
	c-0.1,0.1-0.3,0-0.4,0.4c0.3,0.1,0.6,0.6,0.6,1c-0.1,0-0.3,0.1-0.6,0.1c-0.1-0.1,0,0-0.1-0.1V19c-0.3,0.1-0.6,0.1-0.9,0.3v0.1
	c-0.1,0-0.4,0-0.6,0.1v0.1H65V20h0.1v0.1h0.1c0.1,0.3,0.3,0.4,0.3,0.9c-0.1,0-0.3,0-0.6-0.1c0,0,0-0.1-0.1-0.1h-0.1
	c-0.1,0-0.4-0.6-0.6-0.4v0.1H64c0,0.1,0,0.1-0.1,0.3c0,0-0.1,0-0.1,0.1V21c0,0-0.1,0-0.1,0.1v0.1h-0.1c0,0.1-0.1,0.4-0.1,0.4h-0.3
	c-0.1-0.1,0,0-0.1-0.1v-0.1c-0.3-0.1-0.1-0.1-0.6-0.1c-0.1,0.1-0.3,0.3-0.6,0.3c0,0.1,0,0.1-0.1,0.3h0.7v-0.1h0.6
	c-0.1,0.3-0.3,0.4-0.3,0.7h-0.1c-0.1,0.6-0.6,0.4-0.7,1.1c0.1,0,0.1,0.1,0.3,0.1c-0.4,0-0.6,0.3-1,0.3c0,0.1,0,0.1-0.1,0.1
	c0,0.1,0.1,0.3,0.1,0.6c0.4,0.1,0.9,0.4,1.6,0.4c0-0.1,0.1-0.1,0.1-0.1c0-0.1,0-0.3,0.1-0.4h0.1v-0.3h0.1v-0.1h0.1
	c0-0.1,0-0.3-0.1-0.6c0.3,0,0.6-0.3,0.9-0.3c0-0.3,0.1-0.4,0.1-0.7c0.3-0.1,0.6-0.1,0.9-0.3h1.3c0,0.1,0,0.1,0.1,0.3h0.1v0.1h0.1
	c0.1,0.3,0,0.3,0.1,0.4c0.3-0.3,0.4-0.1,0.9-0.3v-0.1h0.1v-0.1H68c0.3-0.1,0.4-0.3,0.7-0.3v0.3c-0.4,0-0.7-0.1-0.9-0.6
	c0.1-0.1,0-0.1,0.3-0.3c0.1-0.1,0.6,0,0.9-0.1c0.7-0.1,1.6,0,2.3,0.1c0,0.1,0,0.3-0.1,0.3H71v0.3h-0.1c0,0.3,0,0.4-0.1,0.7h-0.1v0.3
	h-0.1c-0.1,0.3-0.1,0.9,0,1h0.1v0.1h0.1v0.1c0,0,0.1,0,0.1,0.1C71,24.9,71,25,71.1,25h0.1v0.4c0.1,0.1,0.1,0,0.3,0.1
	c0.4,0,0.6,0.1,1,0c0-0.3,0.1-0.3,0.1-0.6c-0.4-0.3-0.4-1-0.4-1.7v-0.6c-0.1-0.3-0.3-0.6-0.6-0.9h-0.1c0,0,0-0.1-0.1-0.1h-0.1
	c0-0.1-0.1-0.1-0.1-0.3H71v-0.9c0,0-0.1,0-0.1-0.1c-0.3-0.3-0.3-0.3-0.3-0.9c0.3-0.3,0.1-0.6,0.7-0.6c0.1,0.1,0.4,0.1,0.6,0.3
	c0.1,0.1,0.1,0.3,0.3,0.3h0.1v0.1h0.1v0.1h0.3V20c0.6,0.1,1.2-0.1,1.6,0.1c0.3,0.3,0,0.6,0.6,0.7C75.2,21,76,21,76.5,21
	c0.1-0.1,0.1-0.1,0.3-0.4c0.1-0.1,0.3-0.4,0.1-0.7h-0.1v-0.1h-0.1V19h-0.1c0-0.6,0-1,0.1-1.6c0-0.1,0.1-0.4,0.3-0.6
	c0.4-0.1,0.7-0.6,1.3-0.6c0.1,0.1,0,0,0.1,0.1c0,0.1,0.1,0.6,0.1,0.7c0.1,0.7,1.4,1.4,2.4,1.4v-0.3h0.1c0.1,0.1,0.1,0.1,0.3,0.1v0.1
	h0.1v0.1h0.1v0.1c0.4,0.1,1-0.1,1.4-0.1v-0.1h-0.1c0-0.1,0-0.3-0.1-0.4h-0.1v-0.3h-0.1v-0.1c-0.1,0-0.1-0.1-0.3-0.1v-0.3
	c0.4,0,1.4-0.3,1.9-0.1v-0.3c0.1,0,0.3,0,0.3,0.1c0.1,0.1,0.3,0.4,0.3,0.6c0.1,0.3-0.1,0.6,0.1,0.9c0.1,0.1,0.6,0,0.7,0.1v0.1
	c0.4,0.3,0.7,1,0.7,1.6c-0.1,0-0.3,0.3-0.3,0.3h-0.4v0.1h-0.1v0.1c-0.1,0-0.1,0-0.3,0.1c-0.1,0.3-0.3,0.3-0.3,0.6
	c0.3,0,0.7,0.4,0.9,0.6v0.1c0,0,0.1,0,0.1,0.1v0.3h0.1v-0.1c0.1,0.1,0.3,0.1,0.4,0.1c0.1-0.1,0.3-0.4,0.6-0.6h0.6
	c0.1,0.1,0.1,0.1,0.3,0.1c0,0,0,0.1,0.1,0.1h0.1c0,0,0,0.1,0.1,0.1c0.1,0.1,0.3,0.3,0.4,0.3c0,0.1,0.1,0.3,0.1,0.6
	c0.1,0,0.1,0.1,0.3,0.1v0.1h0.1v0.1c0.1,0.1,0.3,0.1,0.6,0.3v0.1c-0.4,0-1.3,0.4-1.6,0.3c-0.1,0-0.4-0.1-0.6-0.3v-0.1
	c-0.1,0-0.3,0-0.6-0.1c-0.1,0.1-0.1,0.1-0.3,0.1v0.1h-0.3v0.1c-0.1,0-0.3,0-0.3,0.1v0.1c-0.1,0.1-0.6,0-0.6,0.1v0.3
	c0.1,0.1,0.1,0.1,0.3,0.3c-0.4,0.1-0.6,0.4-1.1,0.4c0-0.4-0.6-0.4-1.2-0.6v1c-0.1,0-0.3,0.1-0.6,0.1v0.1c-0.1,0.1-0.3,0.3-0.6,0.3
	V27h-0.1c0,0.1,0,0.1-0.1,0.3h-0.1v0.1c0,0-0.1,0-0.1,0.1l-0.1,0.3h-0.1v0.4c0.3,0,0.6,0,0.9,0.1c0,0.1,0.1,0.1,0.1,0.3h0.1v0.1
	c0.4,0.1,0.9,0.1,1.3,0.3c0.3,0,0.9,0.1,1,0c0.4-0.1,0.3-0.4,0.6-0.6h0.3v-0.1h0.3v-0.1h0.3c0,0,0-0.1,0.1-0.1c0.1,0,0.3,0,0.3-0.1
	c0,0,0-0.1,0.1-0.1h0.1c0-0.1,0.1-0.1,0.1-0.3h0.1v-0.1c0.4,0,0.9,0,1.3-0.1v-0.1h0.9V27c0.1,0,0.3,0,0.6-0.1c0-0.1,0.1-0.3,0.1-0.6
	h-0.1v-0.1h0.1v-0.3c0.1-0.1,0.3-0.4,0.6-0.6h0.4c0-0.1,0.1-0.1,0.1-0.3h0.3v-0.1H92c0-0.1,0.1-0.1,0.1-0.3h0.1v-0.1h0.1v-0.1h0.1
	V24h0.1v-0.4c0.1,0,0.1-0.1,0.3-0.1c0-0.1,0-0.1,0.1-0.3h0.1V23h0.1v-0.1h0.1v-0.3h0.1c0.1-0.3-0.1-0.1,0.1-0.3v-0.1H94V22h0.3v0.1
	h0.1c0,0.3-0.3,0.7-0.1,1.3v0.3h0.1V24c0.1,0.3,0.3,0.3,0.3,0.6h0.1v0.1h0.3c-0.1,0.4-0.3,1-0.4,1.4h-0.1v0.1h-0.1
	c0,0.6,0,1.2-0.1,1.7c0.1,0.3,0,0.3,0,0.3v0.1h-0.1v0.1c-0.3,0.1-0.6-0.1-0.9,0.1c0.1,0.3,0.1,0.6,0.3,0.9c0.1,0,0.3,0,0.6-0.1
	c0.1,0.3,0.1,0.6,0.1,0.9h-0.1v0.6c0.1,0,0.1,0.1,0.3,0.1v0.1c0.3,0,0.7,0.1,1,0.1v0.1h0.3v0.1c0,0,0.1-0.1,0.3-0.1v-0.1h0.3
	c0,0,0-0.1,0.1-0.1h0.1c0,0,0-0.1,0.1-0.1h0.1c0.1-0.1,0.3-0.3,0.3-0.4h0.1c0,0,0-0.1,0.1-0.1h0.1v-0.1c0.1,0,0.1-0.1,0.3-0.1v-0.1
	H98c0.1-0.1,0.3-1,0.1-1.4H98v-0.4c0,0-0.1,0-0.1-0.1v-1.6h-0.1v-0.1h-0.1v-0.1h-0.1c0-0.1,0-0.1-0.1-0.3h-0.1
	c0-0.3-0.1-0.3-0.3-0.4h-0.1c-0.1-0.3-0.3-0.4-0.3-0.9c0.1-0.1,0,0,0.1-0.1c0.1,0,0.1,0,0.3-0.1c0,0,0-0.1,0.1-0.1h0.1
	c0,0,0-0.1,0.1-0.1l0.3-0.1v-0.1h0.6v-0.1c0.3-0.1,1.3,0.1,1.4,0.1c0,0.1,0.1,0.1,0.1,0.3h0.1v0.1c0.1,0,0.1,0.1,0.3,0.1
	c0,0,0,0.1,0.1,0.1c0.1,0,0.3,0,0.6,0.1c0,0,0,0.1,0.1,0.1h0.1v0.1c0.1,0.1,0.3,0.3,0.6,0.3c0.1-0.7,0.4-0.7,1.3-0.6
	c0.1,0.4,0.6,0.7,1,0.9c0,0.6-0.4,0.9-0.4,1.6c0.1,0,0.3,0.1,0.3,0.1v0.1c0,0,0.1,0,0.1,0.1v0.1c0.1,0,0.3,0,0.4,0.1
	c0.3-0.4,0.4-0.7,0.7-1.2h0.4c0.1,0.3,0.4,0.4,0.9,0.3v-0.1c0.1,0,0.3,0,0.6-0.1c0,0,0-0.1,0.1-0.1c0.4-0.3,0.9-0.3,1.6-0.3
	c0.1,0.1,0,0,0.1,0.1l-0.1,0.3c-0.1,0.1-0.3,0.3-0.4,0.3V27h-0.3v-0.1c-0.1,0.1-0.1,0.1-0.1,0.4c0.1,0.1,0.1,0.1,0.3,0.3
	c0.1,0.1,0,0,0.1,0.1v0.1c0,0,0.1,0,0.1,0.1v0.1h0.1v0.1h0.1c0.1,0.3-0.1,0.1,0.1,0.3v0.1h0.3c0-0.1,0-0.1,0.1-0.3h0.1v-0.3
	c0,0,0.1,0,0.1-0.1v-0.1h0.1v-0.1c0.1-0.1,0.3-0.3,0.6-0.4v-0.1c0.1,0,0.1-0.1,0.3-0.1v-0.1h0.1c0,0,0-0.1,0.1-0.1
	c0.3-0.1,0.9,0,1.3-0.1v-0.1h0.1c0-0.1,0-0.1,0.1-0.3c0.1-0.1,0.3-0.3,0.6-0.4v-0.1h0.3c0.1-0.1,1-0.1,1.4-0.1
	c0-0.1,0.1-0.1,0.1-0.3v-0.3C103.2,12.3,86.2,4.4,67.5,4.4C31.8,4.4,2.7,33.5,2.7,69.3c0,4.9,0.6,9.6,1.6,14.2
	C5,83.3,5.8,83,6.2,82.8z"/>
<path class="st1" d="M55.8,109.5C55.6,109.5,55.8,109.5,55.8,109.5c-0.3,0.3-0.3,0.6-0.3,0.9h-0.1v0.4h-0.1v0.3H55v0.6h-0.1v0.6
	h-0.1v0.9h-0.1v1h-0.1v1.2h0.1c0,0.9,0.1,1.7,0.1,2.7l0.3,0.3v0.1h0.1c0,0,0,0.1,0.1,0.1h0.1c0,0.1,0.1,0.1,0.1,0.3h0.1
	c0,0.1,0.1,0.1,0.1,0.3H56c0,0.1,0.1,0.1,0.1,0.3h0.7c0,0,0,0.1,0.1,0.1h0.1c0,0.1,0.1,0.1,0.1,0.3h0.1v0.1c0.1,0,0.1,0,0.3,0.1
	c0,0,0,0.1,0.1,0.1h0.1c0,0.1,0.1,0.1,0.1,0.3h0.1v0.1c0.1,0,0.1,0,0.3,0.1c0,0,0,0.1,0.1,0.1h0.1c0,0.1,0.1,0.1,0.1,0.3h0.1v0.1
	c0.1,0,0.1,0,0.3,0.1c0,0,0,0.1,0.1,0.1h0.1c0,0.1,0.1,0.1,0.1,0.3h0.1c0,0,0,0.1,0.1,0.1h0.1c0,0,0,0.1,0.1,0.1h0.1
	c0,0,0,0.1,0.1,0.1h0.1c0,0,0,0.1,0.1,0.1c0.1,0,0.3,0,0.3,0.1c0,0,0,0.1,0.1,0.1h0.1c0,0,0,0.1,0.1,0.1h0.1c0,0,0,0.1,0.1,0.1h0.1
	c0,0,0,0.1,0.1,0.1c0.1,0,0.1,0,0.3,0.1v0.1h0.1v0.1h0.1c0,0,0,0.1,0.1,0.1c0.1,0,0.3,0.1,0.6,0.1c0,0,0,0.1,0.1,0.1
	c0.1,0,0.3,0,0.3,0.1c0,0,0,0.1,0.1,0.1h0.1v0.1h0.1l0.1,0.1h0.1c0,0.1,0.1,0.1,0.1,0.3h0.1v0.1c0.1,0.1,0.3,0.4,0.6,0.4v0.1
	c0.6,0.3,0.9,0.9,1.3,1.4l0.3,0.3v0.1c0,0,0.1,0,0.1,0.1v0.1c0.1,0.1,0.3,0.1,0.3,0.3c0,0.1,0,0.1,0.1,0.3c0,0,0.1,0,0.1,0.1v0.1
	c0,0,0.1,0,0.1,0.1v0.1c0.1,0,0.1,0.1,0.3,0.1v0.1c0,0,0.1,0,0.1,0.1c0,0.1,0,0.1,0.1,0.3h0.1v0.1c0,0,0.1,0,0.1,0.1v0.1
	c0,0,0.1,0,0.1,0.1v0.1c0,0,0.1,0,0.1,0.1v-0.3c0,0,0.1,0,0.1,0.1v0.1c0,0,0.1,0,0.1,0.1c0,0.1,0,0.3,0.1,0.3c0,0,0.1,0,0.1,0.1v0.1
	c0,0,0.1,0,0.1,0.1v0.1c0,0,0.1,0,0.1,0.1c0,0.1,0,0.3,0.1,0.3c0,0,0.1,0,0.1,0.1v0.1c0,0,0.1,0,0.1,0.1c0,0.1,0,0.3,0.1,0.3
	c0,0,0.1,0,0.1,0.1v0.1c0,0,0.1,0,0.1,0.1s0,0.3,0.1,0.3c0,0,0.1,0,0.1,0.1c0,0.1,0,0.3,0.1,0.3c0,0,0.1,0,0.1,0.1
	c1.3-0.1,2.6-0.1,3.9-0.4c0-0.1-0.1-0.3-0.3-0.6v-0.3h0.4v-0.1c0-0.1,0-0.3-0.1-0.6h-0.1v-0.1h-0.1v-0.3H75v-0.1h-0.1
	c0-0.1,0-0.3-0.1-0.4h-0.1v-0.3h-0.1v-0.1h-0.1v-0.3h-0.1V130H74v-0.1h-0.1c0-0.1,0-0.3-0.1-0.6h-0.1v-0.1h0.6c0-0.1,0-0.3-0.1-0.6
	h-0.1v-0.1h-0.1c0-0.1,0-0.3-0.1-0.6h-0.1v-0.1h-0.1v-0.3h-0.1v-0.1H73V127h-0.1c0-0.1,0-0.3-0.1-0.4h-0.1v-0.1h-0.1v-0.3h-0.1
	c0-0.1-0.1-0.3-0.1-0.6h0.6v-0.1c0-0.1-0.1-0.3-0.1-0.6c0,0-0.1,0-0.1-0.1c0-0.1,0-0.3-0.1-0.3c0,0-0.1,0-0.1-0.1v-0.1
	c0,0-0.1,0-0.1-0.1v-0.1c-0.1-0.1-0.3-0.3-0.4-0.3v-0.1c0,0-0.1,0-0.1-0.1c-0.1-0.1-0.1-0.3-0.3-0.3H71l-0.3-0.3h-0.1
	c0,0,0-0.1-0.1-0.1h-0.1c0,0,0-0.1-0.1-0.1l-0.3-0.1v-0.1c-0.1,0-0.3-0.1-0.6-0.1v-0.3h-0.4v-0.1h-0.4v-0.1h-0.1v-0.1
	c-0.1,0-0.3,0-0.6-0.1v-0.1h-0.1v-0.1c-0.3,0-0.6-0.1-0.9-0.1v-0.1h-0.1v-0.1h-0.3v-0.1H66v-0.1h-0.3v-0.1h-0.3v-0.1
	c-0.1,0-0.3,0-0.4-0.1v0.6h-0.1v-0.1h-0.3v-0.1h-0.1v-0.1c-0.3-0.1-0.6-0.1-0.9-0.3c0,0,0-0.1-0.1-0.1c-0.1,0-0.3,0-0.3-0.1
	c0,0,0-0.1-0.1-0.1h-0.1c0-0.1-0.1-0.1-0.1-0.3h-0.1c0-0.1-0.1-0.1-0.1-0.3c-0.3-0.1-0.4-0.4-0.7-0.6v-0.1c-0.1,0-0.1-0.1-0.3-0.1
	l-0.1-0.3c0,0-0.1,0-0.1-0.1v-0.1c0,0-0.1,0-0.1-0.1c0-0.1-0.1-0.3-0.1-0.6c0,0-0.1,0-0.1-0.1c0-0.1-0.1-0.3-0.1-0.6
	c0,0-0.1,0-0.1-0.1v-0.1c0,0-0.1,0-0.1-0.1v-0.1c0,0-0.1,0-0.1-0.1c0-0.1,0-0.3-0.1-0.3c0,0-0.1,0-0.1-0.1v-0.1
	c-0.1,0-0.1-0.1-0.3-0.1c0-0.1,0-0.3-0.1-0.3c0,0-0.1,0-0.1-0.1v-0.1c0,0-0.1,0-0.1-0.1c0-0.1,0-0.1-0.1-0.3c-0.1,0-0.1-0.1-0.3-0.1
	c0,0-0.1,0-0.1-0.1v-0.1c-0.1,0-0.1-0.1-0.3-0.1v-0.1c0,0-0.1,0-0.1-0.1v-0.1c-0.1,0-0.1-0.1-0.3-0.1v-0.1c-0.1,0-0.1-0.1-0.3-0.1
	v-0.1c-0.1,0-0.1-0.1-0.3-0.1v-0.1c-0.1,0-0.1-0.1-0.3-0.1V111c-0.1,0-0.1-0.1-0.3-0.1v-0.1l-0.4-0.6V110c-0.1,0-0.1-0.1-0.3-0.1
	v-0.1C55.9,109.5,55.8,109.5,55.8,109.5z"/>
<path class="st1" d="M50.3,131.1v-0.7h0.1v-1h0.1c0-0.9,0-1.7-0.1-2.4h-0.1c0-0.6,0-1-0.1-1.6H50v-0.7h-0.1v-0.6h-0.1v-0.6
	c-0.3-1-0.3-2.2-0.6-3.2v-0.6c-0.1-0.6-0.1-1.3-0.3-1.7c-0.1-0.4,0-0.9-0.1-1.1c-0.1,0.1-0.3,0.3-0.4,0.6v0.1
	c-0.1,0.1-0.3,0.3-0.6,0.4v0.1c-0.1,0.1-0.3,0.1-0.3,0.3v0.1c-0.1,0-0.1,0.1-0.3,0.1v0.1l-0.3,0.3v0.1c-0.1,0-0.1,0.1-0.3,0.1
	c0,0.1,0,0.1-0.1,0.3c0,0-0.1,0-0.1,0.1v0.3c0,0-0.1,0-0.1,0.1c0,0.1,0,0.1-0.1,0.3h-0.1v0.1c0,0-0.1,0-0.1,0.1v0.1h-0.1
	c0,0.1,0,0.1-0.1,0.3c0,0-0.1,0-0.1,0.1v0.1c-0.1,0-0.1,0.1-0.3,0.1c0,0.1-0.1,0.3-0.1,0.6c0,0-0.1,0-0.1,0.1c0,0.1,0,0.3-0.1,0.3
	c0,0-0.1,0-0.1,0.1c0,0.1-0.1,0.3-0.1,0.6c0,0-0.1,0-0.1,0.1v0.3H44v0.1c0,0.1-0.1,0.3-0.1,0.6h-0.1v0.3c-0.6,1-1,2.4-1.2,4.2
	c2.4,1,5,1.9,7.6,2.6C50.3,131.6,50.3,131.4,50.3,131.1z"/>
<path class="st1" d="M85.4,131.1c-0.1-0.3-0.4-0.4-0.6-0.7h-0.1v-0.1l-0.4-0.1c-0.1-0.1-0.3-0.3-0.3-0.4h-0.1
	c-0.3-0.3-0.6-0.6-0.9-0.9h-0.1v-0.1c-0.1,0-0.1-0.1-0.3-0.1l-0.3-0.3h-0.1c-0.1-0.1-0.3-0.4-0.6-0.6h-0.1c-0.1-0.1-0.3-0.3-0.4-0.6
	h-0.1c-0.1-0.1-0.1-0.3-0.3-0.3h-0.1l-0.4-0.6h-0.1c0-0.1-0.1-0.1-0.1-0.3h-0.1c0-0.1-0.1-0.1-0.1-0.3h-0.1l-0.3-0.3h-0.1
	c0-0.1-0.1-0.1-0.1-0.3h-0.1c-0.1-0.1-0.3-0.3-0.4-0.6h-0.1c0,0,0-0.1-0.1-0.1c-0.3-0.3-0.9-0.6-1.3-0.6c0.3,0.7,0.6,1.3,0.9,2h0.1
	v0.1h0.1v0.3h0.1v0.1h0.1c0,0.1,0,0.3,0.1,0.3h0.1c0,0.1,0,0.3,0.1,0.3h0.1c0,0.1,0,0.3,0.1,0.3h0.1v0.1h0.1v0.1H79v0.1h0.1v0.1h0.1
	v0.1h-0.9v0.3h0.1v0.6h0.1v0.1l0.1,0.1v0.1c0,0,0.1,0,0.1,0.1v0.3c0,0,0.1,0,0.1,0.1v0.1l0.1,0.1v0.1h0.1v0.1h0.1v0.1h0.1v0.1h0.1
	v0.1c0,0.1,0,0.3,0.1,0.3h0.1v0.1c0,0,0.1,0,0.1,0.1c0,0.1,0,0.3,0.1,0.3h0.1c0,0.1,0,0.3,0.1,0.3c0.1,0.1,0.1,0.3,0.3,0.4
	c1.7-0.3,3.5-0.7,5.2-1.3C85.7,131.4,85.5,131.3,85.4,131.1z"/>
<path class="st1" d="M40.1,127c0-0.1,0-0.3,0.1-0.6h0.1v-0.3h0.1c0-0.3,0-0.6,0.1-0.9h0.1V125H41v-0.3h0.1v-0.1h0.1
	c0-0.1,0.1-0.3,0.1-0.6h-0.3v-0.1c0-0.1,0.1-0.3,0.1-0.6c0,0,0.1,0,0.1-0.1c0-0.1,0-0.3,0.1-0.3c0,0,0.1,0,0.1-0.1
	c0-0.1,0-0.3,0.1-0.3c0.1,0,0.1-0.1,0.3-0.1v-0.1c0,0,0.1,0,0.1-0.1l0.1-0.3h0.1v-0.1c0-0.1,0-0.1,0.1-0.3c0,0,0.1,0,0.1-0.1v-0.1
	c0.1,0,0.1-0.1,0.3-0.1v-0.1c0,0,0.1,0,0.1-0.1v-0.3c0.1,0,0.1-0.1,0.3-0.1v-0.1c0.1,0,0.1-0.1,0.3-0.1v-0.1c0.1,0,0.1-0.1,0.3-0.1
	v-0.1h0.1c0-0.1,0-0.1,0.1-0.3c0,0,0.1,0,0.1-0.1v-0.1c0,0,0.1,0,0.1-0.1c0-0.1,0-0.1,0.1-0.3c0.1,0,0.1-0.1,0.3-0.1v-0.1
	c0,0,0.1,0,0.1-0.1v-0.1c0.1,0,0.1-0.1,0.3-0.1v-0.3h0.1c0-0.1,0-0.1,0.1-0.3c0,0,0.1,0,0.1-0.1v-0.1c0.1,0,0.1-0.1,0.3-0.1
	c0-0.1,0-0.3,0.1-0.3c0,0,0.1,0,0.1-0.1v-0.1c0,0,0.1,0,0.1-0.1v-0.1c0,0,0.1,0,0.1-0.1v-0.1c0,0,0.1,0,0.1-0.1v-0.1
	c0.1,0,0.1-0.1,0.3-0.1v-0.1c0,0,0.1,0,0.1-0.1v-0.1c0.1,0,0.1-0.1,0.3-0.1v-0.1l0.3-0.3v-0.1c0.1,0,0.1-0.1,0.3-0.1v-0.1
	c0,0,0.1,0,0.1-0.1v-0.1l0.3-0.3v-0.6c0.1-0.1,0-0.6,0.1-0.9c0.1-0.6,0.1-1.4,0.3-2H49c-0.1,0.3-0.6,0.3-0.9,0.6
	c0,0.1-0.1,0.1-0.1,0.3h-0.1c0,0,0,0.1-0.1,0.1h-0.1c-0.1,0.1-0.1,0.3-0.3,0.3h-0.1c0,0,0,0.1-0.1,0.1h-0.1
	c-0.1,0.1-0.1,0.3-0.3,0.3h-0.1c-0.1,0.1-0.1,0.3-0.3,0.3H46c-0.1,0.1-0.3,0.3-0.3,0.4h-0.3c0,0.1-0.1,0.1-0.1,0.3l-0.3,0.3v0.1
	h-0.1c0,0,0,0.1-0.1,0.1c-0.1,0.1-0.4,0.4-0.7,0.6v0.1h-0.1c-0.3,0.4-1,1-1.3,1.3c-0.7,0.9-1.6,1.6-2.3,2.4v0.1
	c-0.1,0.1-0.3,0.1-0.3,0.3c0,0.1,0,0.1-0.1,0.3c0,0-0.1,0-0.1,0.1v0.1c0,0-0.1,0-0.1,0.1c0,0.1,0,0.1-0.1,0.3h-0.1v0.1
	c0,0-0.1,0-0.1,0.1c0,0.1,0,0.3-0.1,0.3c0,0-0.1,0-0.1,0.1v0.1c0,0-0.1,0-0.1,0.1v0.1l-0.4,0.1v0.3h-0.1v0.1h-0.1v0.1h-0.1v0.1h-0.1
	v0.1h-0.1c0,0.1-0.1,0.3-0.1,0.6h-0.1c0,0.1,0,0.3-0.1,0.4h-0.1l-0.1,0.3h-0.1v0.3h-0.1v0.1h-0.1v0.4h0.4v0.1
	c-0.3,0.9-0.6,1.7-0.9,2.6c1.3,0.7,2.4,1.3,3.7,2C39.8,127.6,40,127.3,40.1,127z"/>
<path class="st1" d="M118.4,28.9c-0.4,0-0.7,0-1,0.3c0,0,0,0.1-0.1,0.1c-0.1,0.1-0.3,0.3-0.4,0.3v0.1h-0.1c-0.1,0.1,0,0.1-0.3,0.1
	v-0.1h-0.6v-0.1c-0.1,0-0.3,0-0.4-0.1c0-0.1-0.1-0.1-0.1-0.1v-0.3h-0.1c-0.1-0.3-0.1-0.4-0.4-0.6v-0.1H114v0.1c0,0,0.1,0,0.1,0.1
	c0,0.1-0.4,1.2-0.4,1.2c-0.1,0.1-0.6,0.1-0.9,0.1h-2c-0.1,0.1,0,0.1-0.1,0.1c0.1,0.1,0,0,0.1,0.1c0.1,0.4,0.4,0.6,0.9,0.9v0.1h0.3
	c0,0,0,0.1,0.1,0.1v-0.1c0.3-0.1,0.3-0.1,0.4-0.3h0.1v0.1c0.1,0.1,0.3,0.9,0.3,1.3c-0.1,0.1-0.4,0.4-0.4,0.6c-0.3,0-0.4,0-0.7-0.1
	c-0.3-0.6-0.3-0.7-1.2-0.6v0.1c-0.1,0-0.4,0-0.6,0.1v0.1h-0.3c-0.1,0-0.1,0-0.3,0.1c0,0.1,0,0.3-0.1,0.4c0.3,0.3,0.1,0.6,0.3,0.9
	h0.4v0.6h0.1v0.3h0.1v0.3h0.1c0.1,0.3,0.1,0.4,0.3,0.7h0.3c0.1-0.3,0.4-0.3,0.6-0.4c0,0,0-0.1,0.1-0.1c0.3-0.3,0.6-0.6,0.9-1
	c0.4,0.1,0.9,0.3,1.3,0.3c0,0,0,0.1,0.1,0.1c0.1,0,0.3,0,0.3,0.1v0.1c0.1,0,0.3,0,0.3-0.1v-0.1h0.7c0,0.1,0,0.1,0.1,0.3
	c0.3,0.3,0,0.7,0.1,1h0.1c0,0,0,0.1,0.1,0.1h0.1c0.1,0.1,0.1,0.3,0.3,0.3h0.1v0.1c0.1,0,0.1,0.1,0.3,0.1v0.1c0.1,0,0.1,0.1,0.3,0.1
	c0.3,0.4,0.1,0.9,0,1.3c-0.3,0.1-0.6,0.1-0.9,0.3c0,0,0,0.1-0.1,0.1h-0.3V39c-0.3,0.1-0.4,0.1-0.6,0.6c0.3,0.1,0.4,0.6,0.6,0.9
	c0,0,0.1,0,0.1,0.1v0.3c-0.1,0.1-0.1,0.3-0.4,0.3v0.1h-0.3c0,0.7,0.3,1.2,0.6,1.7c0.3,0,0.4,0,0.7,0.1c0.1-0.1,0.3-0.1,0.3-0.3v-0.1
	h0.1c0,0,0-0.1,0.1-0.1h1.2c0,0.1,0.4,0.1,0.7,0.1c0,0.3,0.3,0.4,0.3,0.6v0.1c0.1,0,0.1,0.1,0.3,0.1v0.1c0,0,0.1,0,0.1,0.1v0.3
	c0,0,0.1,0,0.1,0.1v0.1h0.1c0,0.1,0,0.1,0.1,0.3H120v0.1h-0.1c0,0.3,0,0.6,0.1,0.9c-0.1,0-0.1,0.1-0.1,0.1c-0.1,0-0.4,0-0.6,0.1
	l-0.1,0.1v0.1c0.1,0.1,0.3,0.3,0.6,0.4h-0.1c-0.3,0.4-1.3,0.4-1.9,0.6c0,0.3-0.4,1.4-0.1,1.7v0.1h0.1c0,0.1,0.1,0.1,0.1,0.3h0.1
	l0.3,0.3h0.1c0,0,0,0.1,0.1,0.1h0.1c0,0,0,0.1,0.1,0.1h0.1c0.1,0.4,0.4,0.7,0.6,1c0.4,0.1,0.3,0.3,0.7,0.3c0.1-0.3,0.1,0,0.3-0.1
	c0,0,0-0.1,0.1-0.1h0.1l0.1-0.3c0,0,0.1,0,0.1-0.1v-0.1h0.1c0.1-0.1,0.1-0.3,0.3-0.3c0.1,0,0.3,0,0.4-0.1v0.1c0.3,0,0.9,0.3,1,0.6
	v0.1c0.1,0,0.1,0.1,0.3,0.1v0.3h0.6v0.1h0.3v0.1c0.3,0.1,0.1,0.1,0.1,0.6h-0.1c0,0.1,0,0.4-0.1,0.6c-0.1,0.3-0.6,0.4-0.6,0.9h0.1
	c0,0.1,0,0.3,0.1,0.3h0.3c0,0,0-0.1,0.1-0.1h0.1v-0.1c0.1-0.1,0.1-0.1,0.4-0.3c0,0.3,0.3,0.4,0.3,0.6v0.3h0.1v0.1h0.1v0.1
	c0,0,0.1,0,0.1,0.1c0,0.1,0,0.3,0.1,0.4c0,0,0.1,0,0.1,0.1v0.1c0,0,0.1,0,0.1,0.1v0.1c0,0,0.1,0,0.1,0.1v0.1c0.1,0.3,0.3,0,0.3,0.6
	c-0.1,0.1-0.3,0.3-0.6,0.4v0.1c-0.3,0-0.7,0.1-1,0.1v0.1h-0.3c-0.1,0.3-0.3,0.4-0.4,0.7c-0.1,0-0.3,0-0.4,0.1c0,0,0,0.1-0.1,0.1
	h-0.1c0,0-0.3,0.4-0.3,0.6c-0.1,0.1,0,0.3-0.1,0.4h-0.1c-0.1,0.1-0.7,0-1.1,0c0,0.1-0.1,0.1-0.1,0.3h-0.1c0,0.1,0,0.3-0.1,0.3
	c0,0-0.1,0-0.1,0.1v0.3h-0.1v0.1h-0.1c0,0.1,0,0.1-0.1,0.3c-0.1-0.1,0,0-0.1-0.1c-0.1-0.1-0.1-0.1-0.1-0.3h-0.1
	c0-0.1-0.1-0.1-0.1-0.3h-0.1v-0.3c0,0-0.1,0-0.1-0.1c-0.3-0.3-0.4-0.4-1-0.3c-0.1,0.1-0.1,0.3-0.3,0.3h-0.1v0.3h-0.1v0.1
	c-0.1,0.1-0.1,0-0.3,0.1v-0.1h-0.3v-0.1h-0.1v-0.1c-0.4-0.1-1.1-0.1-1.6-0.1c0,0.3-0.1,0.3-0.1,0.4h-0.1v0.3c-0.4,0-0.9-0.1-1.2-0.3
	c-0.4-0.1-1.3,0-1.7,0.1c-0.1,0.4,0,0.4,0,0.9c0.3,0,0.7,0,1,0.1c0.1,0,0.3-0.1,0.4-0.1v0.1h0.3v0.1c0.1,0,0.3,0,0.3,0.1
	c0.3,0.1,1,0.9,1,1.3c0.1,0,0.3,0,0.3,0.1v-0.1c0.4-0.1,0.3-0.3,0.6-0.6h0.1c0,0,0-0.1,0.1-0.1c0.1-0.1,0.1,0,0.3-0.1
	c0.6,0,1.2-0.1,1.7,0c0.1,0.3,0.1,0.7,0.1,1c-0.1,0.1,0,0-0.1,0.1c-0.6,0.1-0.4,0.4-0.6,0.9h0.1c0.1,0.3,0.7,0.1,1.2,0.1
	c0.1-0.1,0.3-0.4,0.3-0.6c0.1-0.3,0-0.9,0.1-1.1v-0.1h0.6c0.1,0.1,0.1,0,0.1,0.1c0.1,0.1,0.3,0.3,0.3,0.4c0.1,0.1,0.7,0.3,1,0.3
	v-0.3h0.1c0,0.4,0,0.7-0.1,1.1c0.1,0.1,0.3,0.1,0.4,0.3c-0.1,0.1,0,0-0.1,0.1c-0.1,0.1-0.1,0.1-0.3,0.1c-0.1,0.1-0.1,0.3-0.3,0.3
	v0.9h-1.2v0.1c-0.1,0-0.3,0.1-0.6,0.1v0.1c0.1,0,1.3,0.6,1.3,0.6v0.4c-0.3,0.1,0,0.1-0.1,0.3H121v0.1c0,0-0.1,0-0.1,0.1
	c0,0.1,0,0.3-0.1,0.6c-0.4-0.1-0.7-0.3-1-0.6h-0.1v-0.1h-0.1v-0.4c0,0-0.1,0-0.1-0.1c-0.3-0.3,0-0.3-0.6-0.3c-0.1,0.1,0,0-0.1,0.1
	c0,0.3,0.1,0.1,0.1,0.4h-1c-0.1,0.3-0.1,0.1-0.1,0.6c0.3,0.1,0.4,0.4,0.7,0.6v0.1c0.3,0.1,0.4,0.3,0.6,0.4v0.1
	c0.1,0,0.4,0.1,0.6,0.1c0,0.4,0.1,1,0.1,1.4c0.1,0,0.1,0,0.3,0.1c0,0,0,0.1,0.1,0.1c0.1,0,0.1,0.1,0.3,0.1v0.1c0,0,0.1,0,0.1,0.1
	v0.3h0.1c0.1,0.3,0,0.3,0.3,0.4c0.3,0.3,0.6,0,0.9,0.1v0.1h0.3v0.1l0.3,0.1v0.1c0.1,0.1,0.1,0.1,0.3,0.1c0,0.1,0,0.1,0.1,0.3h0.1
	v0.1h0.1V74h-0.1c-0.1,0.4-0.3,1-0.7,1v0.1c-0.3,0-0.6-0.1-0.9-0.1v-0.1H121c0,0.1-0.1,0.3-0.1,0.6h-0.1c0,0.1-0.3,0.3-0.3,0.3v1
	c0.1,0.1,0.1,0.3,0.3,0.1v1c-0.4-0.1-0.9,0.1-1.3,0.3c-0.1-0.1-0.3-0.4-0.4-0.6c0-0.7,0-1.4-0.1-2c-0.3,0-0.6,0-0.9-0.1v0.1h-0.3
	v0.1h-0.1v-0.1c-0.3-0.1-0.1-0.3-0.3-0.6c-0.1-0.1-0.3-0.1-0.3-0.3c0,0,0-0.1-0.1-0.1h-0.1c-0.1-0.1-0.3-0.3-0.4-0.6
	c0.1-0.3,0.3-0.4,0.3-0.9h-0.7c0,0,0-0.1-0.1-0.1h-0.1c-0.1,0.1-0.3,0.4-0.3,0.6c-0.1,0.4,0.1,0.6-0.4,0.6c0-0.1-0.1-0.3-0.3-0.4
	v0.1c-0.1,0.1-0.1,0.3-0.3,0.3h-0.1c0,0,0,0.1-0.1,0.1h-0.4c-0.3,0.1-0.7,0.1-0.9,0.3v-0.3c0.1-0.3,0-1,0-1.3c-0.1,0.1,0,0-0.1,0.1
	h-0.1v0.6c-0.1,0.3-0.4,0.4-0.4,0.9c-0.3,0-0.7-0.1-1-0.3c0-0.1-0.1-0.3-0.1-0.3h-0.7v0.1h-0.3c-0.1,0.1-0.3,0.3-0.3,0.4
	c-0.1,0-0.3,0-0.4,0.1v-0.4c-0.1,0-0.3,0-0.6-0.1V74h-0.1v-0.1c0,0-0.3-0.1-0.4-0.1v0.1c-0.1,0-0.1,0.1-0.1,0.1c0,0.1,0,0.1,0.1,0.3
	c0.3,0.1,0.6,0.1,0.9,0.3c0,0,0,0.1-0.1,0.1c-0.1,0-0.1,0-0.3,0.1V75c-0.4,0.1-1-0.1-1.3,0.1c0.1,0.1,0.1,0.1,0.1,0.3
	c0,0.1,0,0.3-0.1,0.4c0,0.3,0,0.6,0.1,0.9h-0.1c0,0.1,0,0.1-0.1,0.3h-0.1c0-0.3,0-0.3-0.1-0.4c-0.1,0-0.6,0.3-0.9,0.1l-0.3-0.3
	c-0.3,0-0.7-0.1-1-0.1v0.1h-0.1v0.3h0.1V77h0.1v0.1c0.1,0.3,0.3,0.4,0.3,0.7h0.4c0,0.1,0,0.1,0.1,0.3c0.3,0.3,0,0.7,0.1,1.2h0.1v0.3
	h0.1c0,0.3,0,0.7-0.1,1h-0.1v1.3h-0.1c-0.1-0.1-0.1-0.3-0.3-0.3h-0.1c0-0.1-0.1-0.1-0.1-0.3h-0.1v-0.1c-0.1-0.1-0.3-0.1-0.3-0.3
	v-0.1c0,0-0.1,0-0.1-0.1v-0.1c-0.1-0.3-0.3-0.4-0.4-0.7h-0.4v0.1h-0.3V80H103v-0.6c0.1-0.1,0.1-0.1,0.1-0.3c0.1-0.1,0.3-0.3,0.4-0.3
	c0.3-0.4,0.3-1.1,0.3-1.7c-0.3-0.3-0.1-0.6-0.6-0.6c0,0.3-0.1,0.3-0.1,0.6c-0.1,0-0.1,0.1-0.4,0.1c-0.1-0.1-0.3-0.3-0.6-0.4v-0.1
	H102v0.1h-0.1c0,0.3-0.1,0.7-0.1,1h0.1v0.3h0.1c0.1,0.1,0.1,0.3,0.3,0.3H101c-0.1,0.1-0.1,0.3-0.3,0.4c-0.1,0.1-0.4,0-0.6,0.1v-0.4
	c-0.1,0.1-0.1,0-0.3,0.1c0-0.1,0-0.3-0.1-0.4c-0.3-0.1-0.6-0.1-1-0.1c-0.1,0.1-0.9,0-1-0.1c-0.6-0.3-0.6-0.1-0.6-0.6h0.1
	c0-0.3,0-0.4-0.1-0.7v-0.6c0.4-0.1,0.9-0.4,1.3-0.9c0,0,0.1,0,0.1-0.1v-0.9c-0.1-0.1,0,0-0.1-0.1c-0.3,0-0.4,0-0.7-0.1
	c0,0,0,0.1-0.1,0.1h-0.1c0,0.1,0,0.4-0.1,0.6c-0.4,0.1-0.6,0.3-1,0.3c-0.1-0.3-0.4-0.4-1-0.3v0.1c-0.1,0-0.3,0-0.4,0.1
	c-0.1,0.4-0.1,0.6-0.1,1.3h-0.1c-0.3-0.4-0.6-0.1-1-0.1v0.3h-0.1v0.1h-0.6c-0.1-0.1,0,0-0.1-0.1c0-0.1,0-0.1-0.1-0.3h-0.1V76h-0.1
	v-0.3h-0.1c0-0.1-0.1-0.1-0.1-0.3h-0.1c0-0.1-0.1-0.1-0.1-0.3h-0.1c0,0,0-0.1-0.1-0.1h-0.1c-0.1-0.3-0.3-0.4-0.3-0.7
	c-0.4,0.1-0.7,0.4-1.2,0.6c0,0.1,0,0.1-0.1,0.3H90c0,0.1,0,0.3,0.1,0.4c0.4,0,0.6,0.1,0.9,0.3h0.1c0,0,0,0.1,0.1,0.1h0.1v0.1
	c0,0,0.1,0,0.1,0.1v0.3c-0.4,0.3-0.3,0.6-0.1,1c0.1,0,0.3,0.1,0.6,0.1c0-0.1,0.1-0.1,0.1-0.1v-0.4h0.1c0,0.9,0.4,1.4,0.6,2.2v0.9
	c-0.1,0-0.3,0.1-0.6,0.1c-0.1-0.1-0.3-0.1-0.6-0.1c-0.1,0.1-0.1,0.4-0.1,0.7h0.1c0,0.1,0,0.3,0.1,0.6l0.1,0.1h-0.6v-0.1h-0.1
	c0,0,0-0.1-0.1-0.1H91c0,0,0-0.1-0.1-0.1C90.5,81,90.4,81,90,81c-0.1,0.4-0.3,0.7-0.3,1.3h-0.1c0-0.1-0.1-0.3-0.1-0.6
	c-0.1,0-0.1-0.1-0.3-0.1c0-0.3,0-0.6,0.1-0.9h-0.1c-0.3-0.4-0.3-0.4-0.9-0.4c0,0.1-0.1,0.3-0.1,0.6c0.1,0.1,0.3,0.7,0.3,0.9
	c-0.1,0.1-0.1,0.1-0.3,0.3c-0.1,0.1-1,0.6-1.3,0.4v-0.1c-0.1,0-0.3,0-0.4-0.1c0-0.1-0.1-0.3-0.3-0.3v-0.1c0.1,0,0.1-0.1,0.3-0.1
	v-0.1c0.4-0.3,0.9-0.4,0.9-1.1c-0.3-0.1-0.3-0.3-0.7-0.3h-0.3v-0.3c0.3-0.1,0.4-0.3,0.7-0.4h0.3v-0.1h0.1V79h0.1
	c0.1-0.3,0.3-0.4,0.6-0.7h0.4c0,0,0-0.1,0.1-0.1c0.1,0,0.3,0,0.3-0.1c0-0.1,0-0.1,0.1-0.3c0.1,0,0.1-0.1,0.3-0.1v-0.1
	c-0.4-0.4,0-0.7-0.3-1c-0.1-0.1-0.3-0.1-0.3-0.3c-0.1-0.3-0.4-0.4-0.6-0.7h-0.1c0,0,0-0.1-0.1-0.1l-0.3-0.1c0,0,0-0.1-0.1-0.1h-0.1
	c-0.1-0.1-0.3-0.6-0.3-0.9h-0.3v0.1h-0.1v0.6c0.1,0.1,0.4,0.4,0.3,0.9h-0.1v0.6h-0.1c0,0.1,0.1,0.1,0.1,0.1v0.9
	c-0.3,0.1-0.4,0.3-0.7,0.3v0.1c-0.1,0-0.1,0.1-0.3,0.1V78h-0.1c0,0.4-0.1,0.6,0,1c-1,0-1.3-0.6-2.3-0.6c0,0.1,0,0.4,0.1,0.6
	c0.3,0.1,0.4,0.1,0.9,0.1v0.1h0.3c0,0.6-0.3,0.4-0.3,0.9v0.3h-0.1v0.9h-0.1v0.3h-0.1v0.3c0,0-0.1,0-0.1,0.1
	c-0.1,0.3,0.1,0.1-0.3,0.3c0-0.3-0.1-0.6-0.1-0.7V81h-0.1v-0.1h-0.3c-0.1,0.1-0.1,0.1-0.3,0.3V81c-0.3-0.3-0.6-0.4-0.9-0.7v-0.4
	c0.1,0,0.1,0,0.3-0.1c0-0.1,0-0.3-0.1-0.6h-0.1V79c-0.1,0-0.4,0-0.6-0.1V79h-0.3v0.1c0.4,0.1,0.3,0.3,0.1,0.6V80
	c-0.3,0.1-0.6,0.1-0.9,0.3c-0.1,0.3-0.3,0.4-0.4,0.7v0.3h-0.1c-0.3-0.4-1-0.3-1.6-0.6c-0.1-0.4-0.1-0.9-0.3-1.3
	c-0.1,0-0.1,0-0.3-0.1v-0.1h-0.1V79c-0.3,0-0.7-0.1-1-0.1c0,0,0-0.1-0.1-0.1c-0.1,0-0.1-0.1-0.3-0.1c-0.1-0.4,0.3-0.4-0.3-0.6
	c0,0.3-0.3,0.6-0.6,0.7v0.1c-0.1,0-0.3,0-0.4,0.1c0,0.4,0,0.3,0,0.7h-0.4c-0.1,0.1-0.3,0.4-0.3,0.6v0.3h-0.1c0,0.1,0,0.3-0.1,0.4
	h-0.1v-0.1h-0.1c0-0.1,0-0.3-0.1-0.6c0.1-0.1,0,0,0.1-0.1c-0.4,0-0.7,0-1-0.1c0-0.1,0-0.4,0.1-0.6h-0.1c-0.4,0.4-1.6,0.4-1.7,1.2
	h-0.1c0,0.4-0.1,0.9-0.1,1.3H70v-0.3c-0.1,0-0.1-0.1-0.3-0.1v-0.1h-0.1c0,0,0-0.1-0.1-0.1c-0.3-0.3-0.3-0.3-0.3-0.9
	c0.3-0.1,0.4-0.3,0.7-0.4v-0.1h0.6v-0.1h0.1v-0.1h0.1c0-0.1,0.1-0.1,0.1-0.3h0.4V79c0.1-0.1,0.3-0.1,0.3-0.3
	c-0.3-0.3-0.3-0.1-0.3-0.7v-0.1c0.3,0,1,0,1.2-0.1h0.1v-0.3h-0.1V77h-0.1v-0.1H72c-0.1,0.1-0.4,0.3-0.7,0.3
	c-0.1-0.3-0.3-0.4-0.6-0.7h-0.1v-0.1h-0.3v0.1c-0.3,0-0.7-0.1-0.9-0.1h-0.1v-0.1c0.3,0,0.4-0.1,0.7-0.1c0-0.1,0-0.3,0.1-0.4
	c-0.1-0.1-0.3-0.1-0.3-0.3v-0.1h-0.1c0,0,0-0.1-0.1-0.3v-0.3h-1v0.1h-0.1v1c-0.4,0-0.7,0-1.2,0.1v-0.6c-0.3-0.1-0.3-0.4-0.6-0.6v0.1
	c-0.1,0-0.1,0.1-0.3,0.1v0.1h-0.3v0.1c-0.3,0.1-0.6,0.1-0.6,0.7c0.3,0.3,0,1.1,0,1.4h-0.3c0,0,0-0.1-0.1-0.1c-0.3-0.3-0.1-1.4-0.1-2
	h-0.1v0.1h-0.1c0,0.1,0,0.3-0.1,0.4c0,0-0.1,0-0.1,0.1v0.1h-0.1c0,0.1,0,0.1-0.1,0.3H64v-0.3c0-0.4,0-0.4-0.4-0.4
	c-0.1,0.3-0.3,0.4-0.6,0.4c0,0.3-0.1,0.7-0.1,1c-0.3,0-0.4,0.1-0.7,0.1c0-0.1-0.3-0.3-0.3-0.3c0-0.1,0-0.3-0.1-0.6h-0.1
	c0,0,0-0.1-0.1-0.1c-0.1-0.1-0.1,0-0.3-0.1c-0.4,0-0.4,0-0.9,0c0,0.3,0,0.7-0.1,1h-0.1c0,0.1,0,0.1-0.1,0.3c0-0.1-0.1-0.1-0.1-0.3
	h-0.1V77h-0.1c-0.3-0.6,0.3-0.9-0.9-0.9c-0.1,0.3-0.3,0.7-0.4,0.9h-0.3c0,0,0,0.1-0.1,0.1c0,0-0.1,0-0.1,0.1v0.3
	c-0.1,0.1-0.4,0.1-0.6,0.1c-0.1-0.3-0.3-0.1-0.4-0.4h-0.1c0-0.1,0-0.4-0.1-0.6c-0.3,0-0.3,0.1-0.6,0.1c-0.1,0.3-0.3,0.3-0.3,0.9
	c-0.3,0-0.7,0-1,0.1c0,0.1,0,0.1-0.1,0.3H54c-0.1,0.3,0.1,0.1-0.3,0.3v0.1c-0.1,0-0.3,0-0.6-0.1v-0.6c-0.1-0.1-0.3-0.4-0.4-0.4h-0.1
	v-0.3h-0.1V77h-0.1v-0.1c-0.1-0.1-0.4-0.3-0.6-0.4c0,0.6-0.4,0.7-1,0.6c0,1.6,0.3,2.7,0.9,3.7c0,0.1,0,0.3,0.1,0.3h0.1
	c0,0.1,0,0.1,0.1,0.3c0,0,0.1,0,0.1,0.1v0.1c0,0,0.1,0,0.1,0.1c0,0.1,0,0.1,0.1,0.3c0.1,0,0.1,0.1,0.3,0.1v0.1
	c0.1,0.1,0.3,0.3,0.4,0.3v0.1c0.1,0.1,0.4,0.3,0.6,0.6c0,0.1,0.1,0.1,0.1,0.3H54c0,0,0,0.1,0.1,0.1c0.1,0,0.1,0,0.3,0.1V84
	c0.1,0,0.3,0,0.3,0.1c0,0,0,0.1,0.1,0.1c0.1,0,0.3,0.1,0.6,0.1c0,0,0,0.1,0.1,0.1c0.1,0,0.3,0,0.3,0.1c0,0,0,0.1,0.1,0.1
	c0.1,0,0.3,0,0.3,0.1c0,0,0,0.1,0.1,0.1h0.1c0,0,0,0.1,0.1,0.1h0.1c0.1,0.1,0.3,0.3,0.3,0.4c0.1,0,0.1,0,0.3,0.1v-0.1h0.1
	c0,0.1,0,0.1,0.1,0.3l0.3,0.3v0.1c0.1,0,0.1,0.1,0.3,0.1c0,0.1,0,0.3,0.1,0.3c0,0,0.1,0,0.1,0.1c0,0.1,0,0.3,0.1,0.3
	c0,0,0.1,0,0.1,0.1v0.3h0.1v0.1h0.1v0.3h0.1v0.4h0.1v0.6h0.1v0.3h0.1v0.1h0.1v0.3h0.1v0.3h0.1c0,0.1,0,0.4,0.1,0.6h-0.6
	c0,0.3,0,0.4,0.1,0.7h0.1v0.6h0.1c0.1,0.6-0.1,2-0.3,2.4c0,0.6-0.1,1.2-0.1,1.7h-0.1v0.1h-0.1v0.3h-0.1v0.6h-0.1v0.3h-0.1v0.1h-0.1
	c0,0.1,0,0.3-0.1,0.6h-0.1c0,0.1,0,0.3-0.1,0.6h-0.1V99h-0.1c0,0.3-0.1,0.6-0.1,0.9h0.3v0.6h-0.1v0.3h-0.1v0.1h-0.1v0.3h-0.1v0.1
	h-0.1v0.3c-0.1,0.1-0.1,0.4-0.3,0.6c0.6,0.1,1,0.4,1.6,0.6v0.3c0.1,0,0.3,0,0.3,0.1c0,0,0,0.1,0.1,0.1c0.1,0,0.3,0.1,0.6,0.1
	c0,0,0,0.1,0.1,0.1h0.1v0.1h0.1v0.1c0.1,0,0.1,0,0.3,0.1c0,0,0,0.1,0.1,0.1h0.4v0.1c0.1,0,0.1,0,0.3,0.1c0,0,0,0.1,0.1,0.1h0.1
	c0,0.1,0.1,0.1,0.1,0.3h0.1c0,0,0,0.1,0.1,0.1h0.1c0,0.1,0.1,0.1,0.1,0.3h0.1l0.3,0.3c0.1,0,0.1,0,0.3,0.1c0,0,0,0.1,0.1,0.1h0.1
	c0.1,0.1,0.3,0.3,0.3,0.4H64c0.1,0.1,0.3,0.3,0.3,0.4h0.1c0.1,0.1,0.3,0.4,0.6,0.6h0.1c0,0,0,0.1,0.1,0.1h0.1
	c0.3,0.3,0.4,0.6,0.9,0.7v0.1c0.3,0.1,1.2,1,1.3,1.3h0.1v0.1c0.3,0,0.3,0.1,0.4,0.3v0.1h0.1c0,0,0,0.1,0.1,0.1
	c0.1,0,0.3,0.1,0.6,0.1v0.1h0.1v0.1c0.1,0,0.3,0.1,0.6,0.1v0.1c1.3,0.4,2.6,0.9,3.9,1.3H74v0.1h0.1v0.1h0.4c0.9,0.3,2.2,0.7,3,0.6
	V113h0.1c0.1-0.3,0.3-0.3,0.3-0.6c-0.1,0-0.3-0.1-0.6-0.1c0-0.1-0.1-0.1-0.1-0.3h-0.1c-0.1-0.1-0.3-0.4-0.4-0.6v-0.3h-0.1v-0.6h-0.1
	c0-0.3,0-0.6,0.1-0.9h-0.1c0-0.1,0-0.3-0.1-0.3c-0.3,0-0.4-0.1-0.6-0.3h-0.1c0,0,0-0.1-0.1-0.1c0.3,0,0.6,0,0.9-0.1
	c0,0,0-0.1,0.1-0.1c0.1-0.1,0.7-0.7,1-0.4c0.7,0.1,0.7,0.4,1,0.9c0.1,0,0.1,0.1,0.3,0.1c0,0,0,0.1,0.1,0.1c0.4,0.1,1,0.1,1.4,0.3
	v0.1c0.1,0,0.3,0,0.4,0.1v0.1c0.1,0,0.3,0,0.3,0.1v0.1h0.3v0.1c0.1,0.1,0.1,0.1,0.3,0.1v0.6c0.3,0.1,1.1,0.7,1.1,1h-0.3v0.1
	c0.1,0,0.1,0,0.3,0.1v0.1h0.1c0,0,0,0.1,0.1,0.1c0.1,0,0.3,0,0.3,0.1c0,0,0,0.1,0.1,0.1c0.1,0,0.3,0,0.3,0.1v0.1h0.4v0.1h0.1v0.1
	h0.1v0.1h0.3V113h0.1v0.1l0.3,0.1v0.1h-0.1v-0.1h-0.3v-0.1h-0.1V113h-0.1v-0.1h-0.1v-0.1h-0.1v-0.1h-0.3v-0.1h-0.1v-0.1
	c-0.3-0.1-0.7-0.3-1-0.3c0,0,0,0.1,0.1,0.1h-0.3V112c-0.1,0-0.3,0-0.4-0.1c-0.4-0.1-1-0.4-1.6-0.1v0.1h-0.3v0.1
	c-0.1,0-0.3,0-0.6,0.1v0.1c0.1,0.1,0.1,0,0.1,0.3h-0.1c-0.1-0.1-0.4-0.3-0.7-0.3c-0.1,0.4-0.3,0.4-0.6,0.7l0.1,0.1v0.1
	c0.4,0,0.7,0.1,1.2,0.1v0.1h0.4v0.1h0.3v0.1h0.4v0.1h0.3v0.1h0.1v0.1h0.3v0.1c0.1,0,0.3,0,0.6,0.1v0.1h0.1v0.1h0.3v-0.4
	c0.1,0,0.3,0,0.3,0.1v0.1h0.1v0.1h0.3c0,0,0,0.1,0.1,0.1c0.1,0,0.3,0,0.4,0.1c0,0,0,0.1,0.1,0.1h0.1v0.1h0.1v0.1h0.1l0.1,0.1h0.1
	c0,0,0,0.1,0.1,0.1c0.1,0,0.3,0,0.3,0.1c0,0,0,0.1,0.1,0.1h0.3v0.1h0.1c0,0,0,0.1,0.1,0.1h0.1c0,0,0,0.1,0.1,0.1h0.1
	c0,0,0,0.1,0.1,0.1c0.1,0,0.3,0,0.3,0.1c0,0,0,0.1,0.1,0.1h0.1v0.1c0.1,0,0.1,0,0.3,0.1c0,0,0,0.1,0.1,0.1h0.1v-0.1
	c0.1,0,0.1,0,0.3,0.1c0,0,0,0.1,0.1,0.1h0.1c0,0.1,0.1,0.1,0.1,0.3h0.1v0.1c0.1,0,0.1,0,0.3,0.1c0,0,0,0.1,0.1,0.1h0.1
	c0,0.1,0.1,0.1,0.1,0.3h0.1c0,0,0,0.1,0.1,0.1h0.1c0,0.1,0.1,0.1,0.1,0.3H90c0,0.1,0.1,0.1,0.1,0.3h0.1c0,0.1,0.1,0.1,0.1,0.3h0.1
	v0.1c0.1,0,0.1,0,0.3,0.1c0,0,0,0.1,0.1,0.1h0.1c0.1,0.1,0.1,0.3,0.3,0.3c0.1,0,0.1,0,0.3,0.1c0,0,0,0.1,0.1,0.1H92
	c0,0,0,0.1,0.1,0.1h0.1c0,0,0,0.1,0.1,0.1c0.1,0,0.1,0,0.3,0.1c0,0.1,0.1,0.1,0.1,0.3H93c0,0,0,0.1,0.1,0.1h0.1
	c0,0.1,0.1,0.1,0.1,0.3c0.1,0,0.3,0,0.3,0.1c0,0,0,0.1,0.1,0.1H94c0,0,0,0.1,0.1,0.1h0.1c0,0,0,0.1,0.1,0.1c0.1,0,0.3,0,0.3,0.1
	c0,0,0,0.1,0.1,0.1H95l0.1,0.1h0.1v0.1h0.4v0.1h0.1c0,0,0,0.1,0.1,0.1h0.3v-0.1h0.1c0,0,0,0.1,0.1,0.1h0.3c0,0,0,0.1,0.1,0.1h0.1
	v0.1h0.1v0.1c0.1,0,0.3,0.1,0.6,0.1v0.1c0.1,0,0.3,0,0.4,0.1v0.1h0.1v0.1c0.1,0,0.3,0,0.6,0.1v0.1c0.1,0,0.3,0,0.3,0.1v-0.3h0.3v0.1
	h0.3v0.1h0.1v0.1h0.3v0.1h0.3v0.1h0.1c19-11.5,31.8-32.3,31.8-56C132.5,54,127.2,40,118.4,28.9z"/>
<path class="st1" d="M32.3,122l0.1-0.3c0,0,0.1,0,0.1-0.1v-0.1c0.1,0,0.1-0.1,0.3-0.1v-0.1c0.1-0.1,0.3-0.1,0.3-0.3v-0.1
	c0.1,0,0.1-0.1,0.3-0.1v-0.1c0.1,0,0.1-0.1,0.3-0.1v-0.1c0.1,0,0.1-0.1,0.3-0.1v-0.1c0,0,0.1,0,0.1-0.1c0-0.1,0-0.1,0.1-0.3h0.1
	v-0.1c0,0,0.1,0,0.1-0.1v-0.1c0,0,0.1,0,0.1-0.1v-0.1c0,0,0.1,0,0.1-0.1l0.1-0.3c0.1,0,0.1-0.1,0.3-0.1v-0.1c0.1,0,0.1-0.1,0.3-0.1
	v-0.1c0,0,0.1,0,0.1-0.1v-0.1h0.1c0.1-0.3,0.4-0.4,0.6-0.7h0.1c0.1-0.3,0.3-0.6,0.6-0.7c0,0,0.1,0,0.1-0.1v-0.1
	c0.1-0.1,0.3-0.3,0.6-0.4v-0.1c0,0,0.1,0,0.1-0.1v-0.1c0.1-0.1,0.3-0.3,0.4-0.3v-0.1c0.1-0.1,0.3-0.1,0.3-0.3v-0.1
	c0,0,0.1,0,0.1-0.1v-0.1c0.1,0,0.1-0.1,0.3-0.1c0.1-0.3,0.3-0.4,0.3-0.7h-0.1c-0.1,0.1-0.3,0.3-0.6,0.3c0,0,0,0.1-0.1,0.1
	c-0.1,0-0.3,0-0.3,0.1c0,0,0,0.1-0.1,0.1l-0.1,0.1l-0.3,0.1c0,0,0,0.1-0.1,0.1c-0.1,0-0.3,0.1-0.6,0.1v0.1c-0.1,0-0.1,0-0.3,0.1
	c0,0,0,0.1-0.1,0.1c-0.1,0-0.3,0-0.3,0.1c0,0,0,0.1-0.1,0.1h-0.1c0,0,0,0.1-0.1,0.1h-0.1c0,0,0,0.1-0.1,0.1h-0.1c0,0,0,0.1-0.1,0.1
	h-0.1c0,0,0,0.1-0.1,0.1h-0.1c0,0,0,0.1-0.1,0.1h-0.1v0.1c-0.1,0-0.1,0-0.3,0.1c0,0,0,0.1-0.1,0.1h-0.1c0,0.1-0.1,0.1-0.1,0.3h-0.1
	v0.1c-0.1,0-0.1,0-0.3,0.1c0,0,0,0.1-0.1,0.1h-0.1c0,0.1-0.1,0.1-0.1,0.3h-0.1v0.1c-0.1,0-0.1,0-0.3,0.1c0,0,0,0.1-0.1,0.1h-0.1
	c-0.1,0.1-0.1,0.3-0.3,0.3h-0.1c0,0.1-0.1,0.1-0.1,0.3h-0.1c0,0,0,0.1-0.1,0.1h-0.1c0,0.1-0.1,0.1-0.1,0.3H31c0,0.1-0.1,0.1-0.1,0.3
	h-0.1c0,0.1-0.1,0.1-0.1,0.3h-0.1c0,0.1-0.1,0.1-0.1,0.3c-0.1,0-0.1,0-0.3,0.1c0,0,0,0.1-0.1,0.1c-0.1,0-0.1,0-0.3,0.1v0.1
	c-0.1,0-0.1,0-0.3,0.1v0.1h-0.1c0,0.1-0.1,0.1-0.1,0.3h-0.1l-0.3,0.3h-0.4l-0.1,0.1c1.2,0.9,2.2,1.6,3.3,2.4
	c0.1-0.1,0.3-0.3,0.4-0.6h0.1C32,122.2,32.2,122.1,32.3,122z"/>
<path class="st1" d="M67.3,134C67.3,134,67.1,134,67.3,134c-0.3-0.4-0.3-0.7-0.4-1h-0.1v-0.3c0,0-0.1,0-0.1-0.1v-0.3h-0.1
	c0-0.1-0.1-0.3-0.1-0.6h-0.1c0-0.1,0-0.3-0.1-0.3c0,0-0.1,0-0.1-0.1V131c0,0-0.1,0-0.1-0.1v-0.1h-0.1v-0.1l-0.1-0.1v-0.1
	c0,0-0.1,0-0.1-0.1v-0.3h-0.1c0-0.1,0-0.1-0.1-0.3c0,0-0.1,0-0.1-0.1c0-0.1,0-0.3-0.1-0.3c0,0-0.1,0-0.1-0.1c0-0.1,0-0.3-0.1-0.3
	h-0.1c0-0.1,0-0.1-0.1-0.3c0,0-0.1,0-0.1-0.1v-0.1h0.1c0-0.1,0-0.1-0.1-0.3c0,0-0.1,0-0.1-0.1v-0.1c-0.1,0-0.1-0.1-0.3-0.1l-0.3-0.3
	V127c-0.1-0.1-0.3-0.3-0.6-0.4v-0.1l-0.3-0.3V126h-0.1c-0.1-0.1-0.3-0.3-0.3-0.4h-0.1c0,0,0-0.1-0.1-0.1h-0.1c0,0,0-0.1-0.1-0.1
	h-0.3v-0.1c-0.1,0-0.3,0-0.3-0.1v-0.1h-0.1c0,0,0-0.1-0.1-0.1h-0.3c0,0,0-0.1-0.1-0.1h-0.4v-0.1h-0.1v-0.1h-0.1l-0.1-0.1h-0.1
	c0,0,0-0.1-0.1-0.1c-0.1,0-0.3-0.1-0.6-0.1c0,0,0-0.1-0.1-0.1c-0.1,0-0.3,0-0.3-0.1c0,0,0-0.1-0.1-0.1h-0.1l-0.3-0.3h-0.1
	c-0.1,0-0.1,0-0.3-0.1c0,0,0-0.1-0.1-0.1c-0.1,0-0.3,0-0.3-0.1c0,0,0-0.1-0.1-0.1c-0.3-0.1-0.6-0.3-0.9-0.4v0.6
	c0.3,0.3,0,0.9,0.1,1.3h0.1v0.6h0.1c0,0.4,0,0.7,0.1,1.1h0.1v0.6h0.1v0.6h0.1c0,0.3,0,0.7,0.1,1h0.1v0.4h0.1v0.6h0.1v0.3h0.1v0.6
	h-0.3v1h0.1v0.4c0.3,0.7,0.4,1.4,0.6,2.3c3.2,0.4,6.3,0.7,9.6,0.7C67.3,134,67.3,134,67.3,134z"/>
<g>
	<g transform="translate(135.166201, 209.011522)">
		<g>
			<path d="M74.1-126.1H48.4l-5.8,16h-8.3l23.4-61.3h7.1l23.4,61.3h-8.3L74.1-126.1z M50.9-132.7h20.8l-10.4-28.6L50.9-132.7z"/>
		</g>
	</g>
</g>
<g>
	<g transform="translate(189.413578, 209.011522)">
		<g>
			<path d="M83.6-122.2c0-2.1-0.8-3.7-2.4-4.9c-1.6-1.2-4.3-2.2-8.3-3c-3.9-0.8-7.1-1.9-9.4-3c-2.3-1.2-4-2.6-5.1-4.2
				c-1.1-1.6-1.6-3.6-1.6-5.8c0-3.7,1.6-6.9,4.7-9.5c3.2-2.6,7.2-3.9,12.1-3.9c5.2,0,9.4,1.3,12.6,4c3.2,2.7,4.8,6.1,4.8,10.2h-7.8
				c0-2.1-0.9-4-2.7-5.5c-1.8-1.6-4.1-2.3-6.8-2.3c-2.8,0-5.1,0.6-6.6,1.9c-1.6,1.2-2.4,2.9-2.4,4.9c0,1.9,0.7,3.3,2.2,4.2
				c1.5,0.9,4.2,1.9,8.1,2.7c3.9,0.9,7,1.9,9.4,3.1c2.4,1.2,4.2,2.7,5.4,4.4c1.2,1.7,1.8,3.8,1.8,6.2c0,4.1-1.6,7.3-4.9,9.8
				c-3.2,2.4-7.5,3.7-12.6,3.7c-3.7,0-6.9-0.6-9.7-1.9c-2.8-1.3-5-3.1-6.6-5.4c-1.6-2.3-2.4-4.8-2.4-7.5H63c0.2,2.6,1.2,4.7,3.1,6.2
				c1.9,1.5,4.5,2.3,7.7,2.3c2.9,0,5.3-0.6,7.1-1.8C82.7-118.6,83.6-120.2,83.6-122.2z"/>
		</g>
	</g>
</g>
<g>
	<g transform="translate(234.824924, 209.011522)">
		<g>
			<path d="M85-131.2l-4.9,5.1v16h-7.8v-64.6h7.8v39.1l4.2-5l14.2-15h9.5l-17.7,19l19.8,26.5h-9.1L85-131.2z"/>
		</g>
	</g>
</g>
<g>
	<g transform="translate(279.66824, 209.011522)">
		<g>
			<path d="M115.3-110.1c-0.5-0.9-0.8-2.5-1.1-4.8c-3.6,3.8-7.9,5.6-13,5.6c-4.5,0-8.2-1.3-11-3.8c-2.9-2.5-4.3-5.8-4.3-9.7
				c0-4.7,1.8-8.4,5.4-11c3.6-2.6,8.7-3.9,15.2-3.9h7.6v-3.6c0-2.7-0.8-4.9-2.4-6.5c-1.6-1.6-4-2.4-7.2-2.4c-2.8,0-5.1,0.7-7,2.1
				c-1.9,1.4-2.8,3.1-2.8,5.1h-7.8c0-2.3,0.8-4.5,2.4-6.6c1.6-2.1,3.8-3.8,6.6-5c2.8-1.2,5.8-1.9,9.1-1.9c5.2,0,9.4,1.3,12.3,3.9
				c3,2.6,4.5,6.2,4.6,10.8v21c0,4.2,0.5,7.5,1.6,10v0.7H115.3z M102.4-116c2.4,0,4.7-0.6,6.9-1.9c2.2-1.3,3.8-2.9,4.8-4.9v-9.3H108
				c-9.5,0-14.3,2.8-14.3,8.4c0,2.4,0.8,4.3,2.4,5.7S99.8-116,102.4-116z"/>
		</g>
	</g>
</g>
</svg>
