<svg xmlns="http://www.w3.org/2000/svg" xmlns:xlink="http://www.w3.org/1999/xlink" width="500" zoomAndPan="magnify" viewBox="0 0 375 374.999991" height="500" preserveAspectRatio="xMidYMid meet" version="1.0"><path fill="#ffffff" d="M 74.917969 140.355469 C 54.808594 140.355469 41.074219 169.835938 41.074219 188.265625 C 41.074219 216.25 60.183594 229.695312 74.71875 229.695312 L 75.113281 229.695312 C 89.648438 229.695312 108.761719 216.25 108.761719 188.265625 C 108.761719 169.835938 95.023438 140.355469 74.917969 140.355469 Z M 74.917969 140.355469 " fill-opacity="1" fill-rule="nonzero"/><path fill="#a72c29" d="M 73.769531 201.949219 L 74.917969 202.609375 L 76.050781 201.949219 L 74.917969 201.296875 Z M 73.769531 201.949219 " fill-opacity="1" fill-rule="nonzero"/><path fill="#a72c29" d="M 74.074219 207.914062 L 75.828125 207.914062 L 75.828125 208.652344 L 74.074219 208.652344 Z M 74.074219 207.914062 " fill-opacity="1" fill-rule="nonzero"/><path fill="#a72c29" d="M 74.917969 140.355469 C 54.808594 140.355469 41.074219 169.835938 41.074219 188.265625 C 41.074219 216.25 60.183594 229.695312 74.71875 229.695312 L 75.113281 229.695312 C 89.648438 229.695312 108.761719 216.25 108.761719 188.265625 C 108.761719 169.835938 95.023438 140.355469 74.917969 140.355469 Z M 75.113281 228.640625 L 74.722656 228.640625 C 61.503906 228.640625 42.894531 216.398438 42.894531 189.179688 C 42.894531 180.085938 46.433594 168.449219 51.917969 159.53125 C 56.597656 151.917969 64.390625 142.839844 74.914062 142.839844 C 85.445312 142.839844 93.238281 151.917969 97.917969 159.53125 C 103.402344 168.449219 106.941406 180.085938 106.941406 189.179688 C 106.941406 216.398438 88.328125 228.640625 75.113281 228.640625 Z M 75.113281 228.640625 " fill-opacity="1" fill-rule="nonzero"/><path fill="#a72c29" d="M 97.03125 160.082031 C 93.433594 154.230469 85.78125 144.417969 74.914062 144.417969 C 64.058594 144.417969 56.402344 154.230469 52.804688 160.082031 C 47.414062 168.84375 43.9375 180.265625 43.9375 189.179688 C 43.9375 215.773438 61.9375 227.734375 74.722656 227.734375 L 75.113281 227.734375 C 87.894531 227.734375 105.898438 215.773438 105.898438 189.179688 C 105.898438 180.265625 102.421875 168.84375 97.03125 160.082031 Z M 80.167969 199.75 L 80.171875 199.75 L 80.171875 203.867188 C 80.171875 204.105469 79.972656 204.304688 79.730469 204.304688 L 77.414062 204.304688 L 77.414062 204.300781 C 77.167969 204.300781 76.976562 204.105469 76.976562 203.863281 C 76.976562 203.621094 77.171875 203.417969 77.414062 203.417969 L 79.292969 203.417969 L 79.292969 202.707031 L 77.417969 202.707031 C 77.417969 202.707031 77.414062 202.707031 77.414062 202.707031 C 77.222656 202.707031 77.0625 202.585938 77 202.414062 C 77.070312 202.269531 77.113281 202.113281 77.113281 201.949219 C 77.195312 201.875 77.296875 201.832031 77.414062 201.832031 L 79.292969 201.832031 L 79.292969 201.125 L 77.425781 201.125 C 77.417969 201.125 77.414062 201.128906 77.410156 201.128906 C 77.164062 201.128906 76.96875 200.933594 76.96875 200.691406 C 76.96875 200.445312 77.164062 200.25 77.410156 200.25 L 79.292969 200.25 L 79.292969 199.75 C 79.292969 199.507812 79.488281 199.3125 79.730469 199.3125 C 79.972656 199.3125 80.167969 199.507812 80.167969 199.75 Z M 70 197.914062 L 70 192.425781 C 70 192.132812 70.242188 191.890625 70.539062 191.890625 L 74.167969 191.890625 L 74.167969 190.429688 C 74.167969 190.089844 74.4375 189.816406 74.777344 189.816406 C 75.117188 189.816406 75.386719 190.089844 75.386719 190.425781 L 75.390625 190.425781 L 75.390625 191.890625 L 79.019531 191.890625 C 79.3125 191.890625 79.558594 192.132812 79.558594 192.425781 L 79.558594 197.921875 L 79.550781 197.921875 C 79.550781 197.929688 79.554688 197.929688 79.554688 197.929688 C 79.554688 198.222656 79.3125 198.464844 79.019531 198.464844 C 78.71875 198.464844 78.480469 198.222656 78.480469 197.929688 C 78.480469 197.929688 78.480469 197.929688 78.480469 197.921875 L 78.480469 192.964844 L 76.785156 192.964844 L 76.785156 197.519531 C 76.78125 197.855469 76.507812 198.125 76.175781 198.125 C 75.839844 198.125 75.5625 197.851562 75.5625 197.511719 C 75.5625 197.507812 75.566406 197.507812 75.566406 197.503906 L 75.566406 192.964844 L 74.035156 192.964844 L 74.035156 197.519531 L 74.03125 197.519531 C 74.027344 197.855469 73.753906 198.125 73.417969 198.125 C 73.082031 198.125 72.808594 197.847656 72.808594 197.511719 C 72.808594 197.492188 72.8125 197.476562 72.8125 197.457031 L 72.8125 192.964844 L 71.074219 192.964844 L 71.074219 197.933594 C 71.074219 198.230469 70.828125 198.46875 70.535156 198.46875 C 70.238281 198.46875 70 198.230469 70 197.929688 C 70 197.929688 70 197.921875 70 197.914062 Z M 76.449219 202.617188 L 75.6875 203.054688 L 76.449219 203.488281 L 76.441406 203.492188 C 76.554688 203.558594 76.636719 203.683594 76.636719 203.824219 C 76.636719 204.039062 76.460938 204.214844 76.25 204.214844 C 76.183594 204.214844 76.121094 204.191406 76.0625 204.160156 L 76.058594 204.164062 L 74.917969 203.5 L 73.773438 204.164062 L 73.769531 204.160156 C 73.714844 204.191406 73.652344 204.214844 73.582031 204.214844 C 73.371094 204.214844 73.199219 204.039062 73.199219 203.824219 C 73.199219 203.683594 73.273438 203.558594 73.390625 203.492188 L 73.386719 203.488281 L 74.144531 203.054688 L 73.386719 202.617188 C 73.15625 202.484375 73.003906 202.234375 73.003906 201.949219 C 73.003906 201.671875 73.160156 201.425781 73.390625 201.292969 L 73.386719 201.292969 L 74.144531 200.847656 L 73.386719 200.417969 C 73.359375 200.394531 73.332031 200.375 73.308594 200.347656 C 73.15625 200.199219 73.15625 199.953125 73.304688 199.804688 C 73.433594 199.675781 73.621094 199.664062 73.773438 199.75 L 73.773438 199.746094 L 74.917969 200.402344 L 76.058594 199.746094 L 76.066406 199.746094 C 76.121094 199.714844 76.183594 199.699219 76.25 199.699219 C 76.460938 199.699219 76.636719 199.871094 76.636719 200.082031 C 76.636719 200.226562 76.558594 200.347656 76.449219 200.414062 L 76.449219 200.417969 L 75.691406 200.847656 L 76.449219 201.292969 C 76.671875 201.425781 76.828125 201.671875 76.828125 201.949219 C 76.828125 202.234375 76.671875 202.480469 76.445312 202.609375 Z M 69.664062 199.75 C 69.664062 199.507812 69.859375 199.3125 70.101562 199.3125 C 70.347656 199.3125 70.539062 199.507812 70.539062 199.75 L 70.539062 200.25 L 72.425781 200.25 C 72.667969 200.25 72.863281 200.445312 72.863281 200.6875 C 72.863281 200.933594 72.667969 201.128906 72.425781 201.128906 C 72.417969 201.128906 72.414062 201.125 72.410156 201.125 L 70.539062 201.125 L 70.539062 201.828125 L 72.417969 201.828125 C 72.539062 201.828125 72.644531 201.875 72.714844 201.949219 C 72.714844 202.117188 72.761719 202.273438 72.832031 202.417969 C 72.769531 202.589844 72.605469 202.707031 72.417969 202.707031 C 72.417969 202.707031 72.414062 202.707031 72.414062 202.707031 L 70.539062 202.707031 L 70.539062 203.417969 L 72.417969 203.417969 C 72.660156 203.417969 72.859375 203.621094 72.859375 203.859375 C 72.859375 204.105469 72.660156 204.300781 72.417969 204.300781 L 72.417969 204.304688 L 70.101562 204.304688 C 69.859375 204.304688 69.660156 204.105469 69.660156 203.863281 L 69.660156 199.75 Z M 70.085938 205.148438 L 79.773438 205.148438 C 80.046875 205.148438 80.261719 205.363281 80.261719 205.636719 L 80.730469 210.726562 L 80.726562 210.726562 L 80.726562 210.730469 C 80.726562 211 80.511719 211.21875 80.246094 211.21875 C 79.972656 211.21875 79.757812 211 79.757812 210.730469 L 79.757812 210.726562 L 79.285156 206.121094 L 70.574219 206.121094 L 70.078125 210.714844 C 70.078125 210.714844 70.078125 210.71875 70.078125 210.722656 C 70.078125 210.996094 69.859375 211.207031 69.589844 211.207031 C 69.324219 211.207031 69.109375 210.996094 69.105469 210.726562 L 69.101562 210.726562 L 69.597656 205.636719 C 69.597656 205.363281 69.816406 205.148438 70.085938 205.148438 Z M 71.957031 211.171875 C 71.710938 211.171875 71.519531 210.96875 71.519531 210.726562 L 71.519531 207.496094 C 71.519531 207.488281 71.515625 207.480469 71.515625 207.472656 C 71.515625 207.230469 71.710938 207.035156 71.957031 207.035156 C 72.195312 207.035156 72.394531 207.230469 72.394531 207.472656 L 72.394531 210.289062 L 74.457031 210.289062 L 74.457031 209.535156 L 73.636719 209.535156 C 73.390625 209.535156 73.195312 209.335938 73.195312 209.09375 L 73.195312 207.472656 C 73.195312 207.230469 73.390625 207.035156 73.636719 207.035156 L 76.269531 207.035156 C 76.511719 207.035156 76.707031 207.230469 76.707031 207.472656 L 76.707031 209.09375 C 76.707031 209.335938 76.511719 209.535156 76.269531 209.535156 L 75.335938 209.535156 L 75.335938 210.289062 L 77.503906 210.289062 L 77.503906 207.472656 C 77.503906 207.230469 77.707031 207.035156 77.945312 207.035156 C 78.1875 207.035156 78.382812 207.230469 78.382812 207.472656 L 78.382812 210.726562 C 78.382812 210.96875 78.1875 211.171875 77.941406 211.171875 L 75.335938 211.171875 L 75.335938 212.480469 C 75.335938 212.726562 75.136719 212.925781 74.894531 212.925781 L 72.824219 212.925781 C 72.820312 212.925781 72.816406 212.925781 72.8125 212.925781 C 72.570312 212.925781 72.375 212.726562 72.375 212.480469 C 72.375 212.238281 72.570312 212.039062 72.8125 212.039062 C 72.816406 212.039062 72.816406 212.039062 72.820312 212.039062 L 74.457031 212.039062 L 74.457031 211.171875 Z M 75 226.644531 C 60.617188 226.5 47.230469 213.386719 50.035156 195.394531 C 50.039062 195.394531 50.042969 195.394531 50.042969 195.394531 C 50.042969 195.34375 50.085938 195.304688 50.140625 195.304688 C 50.1875 195.304688 50.21875 195.34375 50.226562 195.386719 C 50.230469 195.386719 50.230469 195.386719 50.230469 195.386719 C 50.652344 197.03125 52.238281 202.507812 55.292969 205.519531 C 55.308594 205.535156 55.339844 205.550781 55.363281 205.550781 C 55.417969 205.550781 55.460938 205.507812 55.460938 205.453125 C 55.460938 205.441406 55.453125 205.429688 55.453125 205.417969 C 55.453125 205.417969 55.453125 205.417969 55.457031 205.417969 C 53.007812 197.621094 50.808594 186.292969 57.382812 178.15625 C 57.402344 178.144531 57.417969 178.132812 57.441406 178.132812 C 57.496094 178.132812 57.539062 178.171875 57.539062 178.226562 C 57.539062 178.238281 57.53125 178.246094 57.527344 178.253906 L 57.535156 178.257812 C 54.984375 184.597656 56.136719 190.59375 56.542969 192.242188 L 56.546875 192.242188 C 56.554688 192.289062 56.585938 192.324219 56.636719 192.324219 C 56.683594 192.324219 56.726562 192.28125 56.734375 192.230469 L 56.738281 192.230469 C 56.925781 189.527344 57.707031 176.28125 69.089844 167.898438 C 69.105469 167.890625 69.117188 167.878906 69.132812 167.878906 C 69.1875 167.878906 69.230469 167.925781 69.230469 167.976562 C 69.230469 168.003906 69.21875 168.023438 69.207031 168.039062 C 62.417969 175.929688 61.457031 184.039062 61.324219 186.519531 L 61.328125 186.519531 L 61.324219 186.519531 C 61.324219 186.578125 61.371094 186.617188 61.421875 186.617188 C 61.464844 186.617188 61.492188 186.59375 61.507812 186.554688 L 61.511719 186.558594 C 62.070312 184.769531 63.886719 180.113281 68.15625 177.316406 C 68.175781 177.304688 68.191406 177.296875 68.210938 177.296875 C 68.265625 177.296875 68.304688 177.339844 68.304688 177.394531 C 68.304688 177.414062 68.296875 177.429688 68.289062 177.445312 C 63.683594 184.5 63.585938 190.46875 63.640625 191.902344 L 63.648438 191.902344 C 63.648438 191.902344 63.648438 191.902344 63.648438 191.910156 C 63.648438 191.960938 63.691406 192.003906 63.742188 192.003906 C 63.777344 192.003906 63.800781 191.984375 63.820312 191.957031 L 63.824219 191.957031 C 64.296875 191.195312 65.820312 188.96875 68.214844 187.40625 L 68.214844 187.414062 C 68.226562 187.402344 68.238281 187.390625 68.261719 187.390625 C 68.3125 187.390625 68.359375 187.433594 68.359375 187.492188 C 68.359375 187.503906 68.347656 187.511719 68.34375 187.519531 L 68.351562 187.519531 C 62.121094 201.027344 66.285156 217.53125 75 221.644531 C 79.355469 223.703125 90.933594 222.199219 97.402344 210.871094 C 97.417969 210.84375 97.453125 210.824219 97.492188 210.824219 C 97.542969 210.824219 97.582031 210.875 97.574219 210.953125 C 93.835938 220.21875 84.667969 226.644531 75 226.644531 Z M 98.933594 206.277344 C 95.746094 216.167969 83.570312 220.734375 78.265625 219.5625 L 78.265625 219.558594 C 78.222656 219.542969 78.1875 219.511719 78.1875 219.46875 C 78.1875 219.441406 78.199219 219.417969 78.214844 219.402344 C 81.140625 216.597656 83.199219 212.199219 84.101562 207.171875 C 84.136719 206.960938 84.167969 206.75 84.199219 206.535156 C 84.214844 206.449219 84.222656 206.359375 84.238281 206.277344 C 84.242188 206.238281 84.246094 206.203125 84.25 206.171875 C 85.125 200.28125 84.433594 193.597656 81.625 187.523438 L 81.632812 187.519531 C 81.628906 187.511719 81.621094 187.503906 81.621094 187.492188 C 81.621094 187.4375 81.664062 187.394531 81.714844 187.394531 C 81.734375 187.394531 81.75 187.402344 81.765625 187.414062 L 81.765625 187.410156 C 84.15625 188.96875 85.679688 191.195312 86.15625 191.957031 C 86.175781 191.984375 86.199219 192.003906 86.234375 192.003906 C 86.289062 192.003906 86.332031 191.960938 86.332031 191.910156 C 86.332031 191.902344 86.328125 191.902344 86.328125 191.902344 L 86.339844 191.902344 C 86.390625 190.472656 86.292969 184.5 81.691406 177.449219 C 81.683594 177.429688 81.667969 177.414062 81.667969 177.394531 C 81.667969 177.339844 81.710938 177.296875 81.765625 177.296875 C 81.785156 177.296875 81.804688 177.308594 81.820312 177.316406 C 86.089844 180.113281 87.90625 184.769531 88.46875 186.558594 L 88.472656 186.554688 C 88.488281 186.59375 88.511719 186.617188 88.554688 186.617188 C 88.609375 186.617188 88.648438 186.578125 88.648438 186.519531 C 88.519531 184.039062 87.558594 175.929688 80.769531 168.039062 C 80.757812 168.023438 80.75 168.003906 80.75 167.980469 C 80.75 167.925781 80.792969 167.878906 80.851562 167.878906 C 80.863281 167.878906 80.875 167.890625 80.886719 167.898438 C 92.273438 176.28125 93.054688 189.527344 93.242188 192.230469 L 93.25 192.230469 C 93.253906 192.28125 93.289062 192.324219 93.34375 192.324219 C 93.394531 192.324219 93.425781 192.289062 93.433594 192.246094 L 93.441406 192.246094 C 93.839844 190.59375 94.996094 184.597656 92.441406 178.257812 L 92.453125 178.253906 C 92.445312 178.246094 92.441406 178.242188 92.441406 178.226562 C 92.441406 178.171875 92.484375 178.132812 92.535156 178.132812 C 92.5625 178.132812 92.578125 178.144531 92.59375 178.160156 C 99.171875 186.292969 96.972656 197.621094 94.523438 205.417969 C 94.527344 205.417969 94.527344 205.417969 94.53125 205.417969 C 94.527344 205.429688 94.515625 205.441406 94.515625 205.453125 C 94.515625 205.507812 94.5625 205.550781 94.617188 205.550781 C 94.640625 205.550781 94.664062 205.535156 94.6875 205.519531 C 97.742188 202.507812 99.328125 197.03125 99.746094 195.386719 L 99.75 195.386719 C 99.757812 195.34375 99.792969 195.304688 99.839844 195.304688 C 99.894531 195.304688 99.929688 195.34375 99.9375 195.394531 C 99.941406 195.394531 99.941406 195.394531 99.941406 195.394531 C 100.539062 199.234375 99.890625 202.9375 98.964844 206.171875 C 98.953125 206.203125 98.945312 206.242188 98.933594 206.277344 Z M 98.933594 206.277344 " fill-opacity="1" fill-rule="nonzero"/><path fill="#a72c29" d="M 123.101562 172.242188 C 123.628906 170.980469 124.382812 169.875 125.351562 168.929688 C 126.320312 167.976562 127.492188 167.234375 128.867188 166.6875 C 130.242188 166.148438 131.769531 165.878906 133.457031 165.878906 C 135.007812 165.878906 136.453125 166.089844 137.785156 166.511719 C 139.125 166.941406 140.28125 167.582031 141.273438 168.433594 C 142.257812 169.289062 143.039062 170.367188 143.613281 171.675781 C 144.1875 172.980469 144.46875 174.507812 144.46875 176.253906 C 144.46875 177.707031 144.191406 179.066406 143.636719 180.324219 C 143.089844 181.582031 142.324219 182.691406 141.34375 183.625 C 140.367188 184.566406 139.199219 185.300781 137.84375 185.824219 C 136.488281 186.339844 134.996094 186.605469 133.367188 186.605469 C 131.839844 186.605469 130.398438 186.414062 129.054688 186.039062 C 127.710938 185.664062 126.535156 185.050781 125.539062 184.207031 C 124.542969 183.367188 123.753906 182.289062 123.171875 180.976562 C 122.589844 179.667969 122.296875 178.105469 122.296875 176.285156 C 122.296875 174.851562 122.5625 173.503906 123.101562 172.242188 Z M 139.234375 172.253906 C 138.929688 171.257812 138.5 170.410156 137.945312 169.710938 C 137.394531 169.011719 136.722656 168.480469 135.941406 168.101562 C 135.15625 167.722656 134.300781 167.53125 133.367188 167.53125 C 132.382812 167.53125 131.496094 167.773438 130.710938 168.242188 C 129.929688 168.71875 129.265625 169.359375 128.71875 170.175781 C 128.179688 170.992188 127.769531 171.945312 127.488281 173.042969 C 127.207031 174.136719 127.066406 175.304688 127.066406 176.546875 C 127.066406 178.09375 127.226562 179.40625 127.554688 180.46875 C 127.886719 181.535156 128.335938 182.390625 128.894531 183.042969 C 129.460938 183.691406 130.105469 184.160156 130.84375 184.453125 C 131.578125 184.742188 132.351562 184.890625 133.164062 184.890625 C 134.039062 184.890625 134.871094 184.703125 135.664062 184.335938 C 136.460938 183.964844 137.152344 183.40625 137.742188 182.648438 C 138.332031 181.894531 138.808594 180.9375 139.164062 179.773438 C 139.523438 178.609375 139.703125 177.234375 139.703125 175.644531 C 139.703125 174.382812 139.550781 173.253906 139.234375 172.253906 Z M 139.234375 172.253906 " fill-opacity="1" fill-rule="nonzero"/><path fill="#a72c29" d="M 153.464844 167.675781 C 152.570312 167.675781 151.84375 167.941406 151.285156 168.464844 C 150.71875 168.984375 150.441406 169.59375 150.441406 170.296875 C 150.441406 171.011719 150.660156 171.597656 151.09375 172.054688 C 151.53125 172.507812 152.078125 172.921875 152.734375 173.289062 C 153.394531 173.65625 154.105469 174.007812 154.855469 174.351562 C 155.613281 174.691406 156.320312 175.105469 156.980469 175.601562 C 157.636719 176.09375 158.183594 176.695312 158.621094 177.402344 C 159.058594 178.113281 159.277344 179.019531 159.277344 180.125 C 159.277344 181.089844 159.089844 181.976562 158.722656 182.78125 C 158.355469 183.585938 157.832031 184.273438 157.152344 184.84375 C 156.472656 185.417969 155.667969 185.851562 154.730469 186.152344 C 153.792969 186.453125 152.738281 186.605469 151.574219 186.605469 C 150.53125 186.605469 149.59375 186.492188 148.773438 186.265625 C 147.949219 186.046875 147.324219 185.773438 146.894531 185.441406 C 147.089844 184.765625 147.257812 184.144531 147.394531 183.582031 C 147.523438 183.019531 147.644531 182.40625 147.742188 181.75 L 148.289062 181.75 C 148.371094 182.175781 148.515625 182.578125 148.730469 182.957031 C 148.941406 183.332031 149.214844 183.667969 149.542969 183.957031 C 149.871094 184.25 150.265625 184.476562 150.734375 184.640625 C 151.199219 184.804688 151.71875 184.890625 152.300781 184.890625 C 153.464844 184.890625 154.320312 184.597656 154.875 184.011719 C 155.425781 183.433594 155.699219 182.738281 155.699219 181.921875 C 155.699219 181.1875 155.488281 180.585938 155.058594 180.125 C 154.632812 179.65625 154.105469 179.246094 153.464844 178.882812 C 152.828125 178.527344 152.128906 178.175781 151.371094 177.839844 C 150.617188 177.5 149.917969 177.085938 149.28125 176.601562 C 148.640625 176.121094 148.109375 175.523438 147.683594 174.816406 C 147.257812 174.105469 147.042969 173.199219 147.042969 172.097656 C 147.042969 171.089844 147.21875 170.199219 147.582031 169.421875 C 147.9375 168.648438 148.417969 168 149.019531 167.476562 C 149.621094 166.949219 150.3125 166.554688 151.09375 166.28125 C 151.878906 166.011719 152.710938 165.878906 153.582031 165.878906 C 154.625 165.878906 155.542969 166.007812 156.328125 166.257812 C 157.109375 166.507812 157.785156 166.855469 158.34375 167.300781 C 158.167969 167.746094 158.019531 168.179688 157.894531 168.59375 C 157.769531 169.011719 157.609375 169.539062 157.414062 170.175781 L 156.980469 170.175781 C 156.359375 168.511719 155.1875 167.675781 153.464844 167.675781 Z M 153.464844 167.675781 " fill-opacity="1" fill-rule="nonzero"/><path fill="#a72c29" d="M 178.652344 186.226562 C 178.1875 186.183594 177.746094 186.167969 177.332031 186.167969 C 176.914062 186.167969 176.503906 186.167969 176.09375 186.167969 C 175.6875 186.167969 175.277344 186.167969 174.859375 186.167969 C 174.441406 186.167969 174.03125 186.183594 173.625 186.226562 C 173.316406 185.277344 172.996094 184.3125 172.667969 183.316406 C 172.335938 182.332031 171.988281 181.34375 171.617188 180.355469 C 171 180.335938 170.378906 180.316406 169.757812 180.3125 C 169.136719 180.300781 168.519531 180.296875 167.898438 180.296875 C 167.394531 180.296875 166.894531 180.300781 166.390625 180.3125 C 165.882812 180.320312 165.382812 180.335938 164.875 180.355469 C 164.488281 181.34375 164.132812 182.332031 163.800781 183.316406 C 163.476562 184.3125 163.167969 185.277344 162.898438 186.226562 C 162.667969 186.183594 162.441406 186.167969 162.21875 186.167969 C 162 186.167969 161.765625 186.167969 161.535156 186.167969 C 161.304688 186.167969 161.070312 186.167969 160.835938 186.167969 C 160.605469 186.167969 160.351562 186.183594 160.082031 186.226562 C 160.3125 185.726562 160.625 185.023438 161.011719 184.132812 C 161.398438 183.246094 161.828125 182.234375 162.289062 181.109375 C 162.757812 179.984375 163.257812 178.78125 163.789062 177.488281 C 164.320312 176.203125 164.851562 174.898438 165.386719 173.578125 C 165.917969 172.261719 166.4375 170.964844 166.953125 169.683594 C 167.46875 168.40625 167.9375 167.210938 168.363281 166.109375 C 168.558594 166.148438 168.742188 166.179688 168.917969 166.210938 C 169.09375 166.238281 169.273438 166.253906 169.46875 166.253906 C 169.660156 166.253906 169.847656 166.238281 170.019531 166.210938 C 170.195312 166.179688 170.378906 166.148438 170.574219 166.109375 C 171.191406 167.753906 171.855469 169.519531 172.5625 171.398438 C 173.269531 173.277344 173.980469 175.125 174.703125 176.9375 C 175.414062 178.75 176.113281 180.46875 176.789062 182.097656 C 177.472656 183.726562 178.089844 185.101562 178.652344 186.226562 Z M 168.363281 171.71875 C 167.859375 172.882812 167.386719 174.03125 166.941406 175.164062 C 166.492188 176.300781 166.058594 177.457031 165.636719 178.636719 L 170.953125 178.636719 C 170.523438 177.457031 170.101562 176.300781 169.691406 175.164062 C 169.269531 174.035156 168.832031 172.882812 168.363281 171.71875 Z M 168.363281 171.71875 " fill-opacity="1" fill-rule="nonzero"/><path fill="#a72c29" d="M 185.714844 182.621094 C 185.730469 184.132812 185.796875 185.335938 185.914062 186.226562 C 185.589844 186.1875 185.226562 186.167969 184.84375 186.167969 C 184.457031 186.167969 184.015625 186.167969 183.53125 186.167969 C 183.046875 186.167969 182.613281 186.167969 182.226562 186.167969 C 181.839844 186.167969 181.480469 186.183594 181.15625 186.226562 C 181.226562 185.023438 181.285156 183.800781 181.328125 182.546875 C 181.363281 181.296875 181.386719 179.875 181.386719 178.261719 L 181.386719 174.304688 C 181.386719 172.699219 181.363281 171.265625 181.328125 170.019531 C 181.285156 168.769531 181.226562 167.515625 181.15625 166.257812 C 181.480469 166.292969 181.839844 166.324219 182.226562 166.355469 C 182.613281 166.382812 183.046875 166.398438 183.53125 166.398438 C 184.019531 166.398438 184.457031 166.382812 184.84375 166.355469 C 185.226562 166.324219 185.589844 166.292969 185.914062 166.257812 C 185.820312 166.835938 185.753906 167.707031 185.726562 168.871094 C 185.699219 170.035156 185.683594 171.324219 185.683594 172.738281 L 185.683594 175.527344 C 186.339844 174.753906 187.050781 173.902344 187.804688 172.980469 C 188.558594 172.0625 189.285156 171.167969 189.984375 170.296875 C 190.679688 169.421875 191.308594 168.621094 191.875 167.894531 C 192.433594 167.167969 192.839844 166.621094 193.09375 166.257812 C 193.363281 166.292969 193.632812 166.324219 193.90625 166.355469 C 194.179688 166.382812 194.449219 166.398438 194.71875 166.398438 C 194.988281 166.398438 195.265625 166.382812 195.546875 166.355469 C 195.828125 166.324219 196.132812 166.292969 196.460938 166.257812 C 196.132812 166.585938 195.628906 167.113281 194.953125 167.851562 C 194.277344 168.589844 193.554688 169.382812 192.789062 170.238281 C 192.019531 171.089844 191.289062 171.917969 190.59375 172.722656 C 189.898438 173.527344 189.351562 174.160156 188.96875 174.628906 C 189.585938 175.574219 190.273438 176.625 191.027344 177.765625 C 191.789062 178.910156 192.535156 180.035156 193.28125 181.125 C 194.023438 182.21875 194.71875 183.226562 195.355469 184.148438 C 195.996094 185.070312 196.511719 185.761719 196.894531 186.226562 C 196.335938 186.183594 195.832031 186.167969 195.386719 186.167969 C 194.941406 186.167969 194.5 186.167969 194.078125 186.167969 C 193.652344 186.167969 193.230469 186.167969 192.8125 186.167969 C 192.398438 186.167969 191.976562 186.183594 191.550781 186.226562 C 190.5625 184.753906 189.59375 183.257812 188.644531 181.730469 C 187.695312 180.210938 186.730469 178.695312 185.742188 177.183594 L 185.683594 177.183594 C 185.683594 179.296875 185.695312 181.109375 185.714844 182.621094 Z M 185.714844 182.621094 " fill-opacity="1" fill-rule="nonzero"/><path fill="#a72c29" d="M 216.457031 186.226562 C 215.992188 186.183594 215.554688 186.167969 215.140625 186.167969 C 214.71875 186.167969 214.308594 186.167969 213.898438 186.167969 C 213.488281 186.167969 213.089844 186.167969 212.664062 186.167969 C 212.25 186.167969 211.835938 186.183594 211.429688 186.226562 C 211.121094 185.277344 210.796875 184.3125 210.472656 183.316406 C 210.148438 182.332031 209.796875 181.34375 209.421875 180.355469 C 208.804688 180.335938 208.1875 180.316406 207.566406 180.3125 C 206.949219 180.300781 206.328125 180.296875 205.703125 180.296875 C 205.199219 180.296875 204.695312 180.300781 204.195312 180.3125 C 203.695312 180.320312 203.1875 180.335938 202.683594 180.355469 C 202.296875 181.34375 201.941406 182.332031 201.609375 183.316406 C 201.28125 184.3125 200.984375 185.277344 200.707031 186.226562 C 200.476562 186.183594 200.246094 186.167969 200.027344 186.167969 C 199.804688 186.167969 199.578125 186.167969 199.347656 186.167969 C 199.113281 186.167969 198.878906 186.167969 198.648438 186.167969 C 198.414062 186.167969 198.164062 186.183594 197.890625 186.226562 C 198.125 185.726562 198.4375 185.023438 198.824219 184.132812 C 199.207031 183.246094 199.636719 182.234375 200.101562 181.109375 C 200.570312 179.984375 201.0625 178.78125 201.59375 177.488281 C 202.128906 176.203125 202.664062 174.898438 203.195312 173.578125 C 203.726562 172.261719 204.253906 170.964844 204.761719 169.683594 C 205.277344 168.40625 205.746094 167.210938 206.171875 166.109375 C 206.363281 166.148438 206.554688 166.179688 206.722656 166.210938 C 206.898438 166.238281 207.085938 166.253906 207.277344 166.253906 C 207.46875 166.253906 207.652344 166.238281 207.828125 166.210938 C 208.007812 166.179688 208.1875 166.148438 208.378906 166.109375 C 209 167.753906 209.660156 169.519531 210.371094 171.398438 C 211.078125 173.277344 211.789062 175.125 212.511719 176.9375 C 213.21875 178.75 213.921875 180.46875 214.597656 182.097656 C 215.28125 183.726562 215.894531 185.101562 216.457031 186.226562 Z M 206.171875 171.71875 C 205.667969 172.882812 205.195312 174.03125 204.746094 175.164062 C 204.300781 176.300781 203.867188 177.457031 203.4375 178.636719 L 208.757812 178.636719 C 208.332031 177.457031 207.910156 176.300781 207.496094 175.164062 C 207.074219 174.035156 206.636719 172.882812 206.171875 171.71875 Z M 206.171875 171.71875 " fill-opacity="1" fill-rule="nonzero"/><path fill="#a72c29" d="M 231.261719 182.621094 C 231.277344 184.132812 231.347656 185.335938 231.464844 186.226562 C 231.132812 186.1875 230.773438 186.167969 230.386719 186.167969 C 229.996094 186.167969 229.558594 186.167969 229.082031 186.167969 C 228.597656 186.167969 228.160156 186.167969 227.773438 186.167969 C 227.382812 186.167969 227.027344 186.183594 226.695312 186.226562 C 226.777344 185.023438 226.832031 183.800781 226.875 182.546875 C 226.910156 181.296875 226.929688 179.875 226.929688 178.261719 L 226.929688 174.304688 C 226.929688 172.699219 226.910156 171.265625 226.875 170.019531 C 226.832031 168.769531 226.777344 167.515625 226.695312 166.257812 C 227.027344 166.292969 227.382812 166.324219 227.773438 166.355469 C 228.160156 166.382812 228.597656 166.398438 229.082031 166.398438 C 229.558594 166.398438 229.996094 166.382812 230.386719 166.355469 C 230.773438 166.324219 231.132812 166.292969 231.464844 166.257812 C 231.367188 166.835938 231.300781 167.707031 231.273438 168.871094 C 231.242188 170.035156 231.230469 171.324219 231.230469 172.738281 L 231.230469 175.527344 C 231.886719 174.753906 232.597656 173.902344 233.351562 172.980469 C 234.105469 172.0625 234.835938 171.167969 235.53125 170.296875 C 236.230469 169.421875 236.859375 168.621094 237.421875 167.894531 C 237.976562 167.167969 238.386719 166.621094 238.636719 166.257812 C 238.90625 166.292969 239.179688 166.324219 239.453125 166.355469 C 239.726562 166.382812 239.992188 166.398438 240.265625 166.398438 C 240.535156 166.398438 240.808594 166.382812 241.09375 166.355469 C 241.375 166.324219 241.675781 166.292969 242.003906 166.257812 C 241.675781 166.585938 241.175781 167.113281 240.5 167.851562 C 239.824219 168.589844 239.101562 169.382812 238.335938 170.238281 C 237.566406 171.089844 236.835938 171.917969 236.144531 172.722656 C 235.441406 173.527344 234.902344 174.160156 234.511719 174.628906 C 235.132812 175.574219 235.824219 176.625 236.570312 177.765625 C 237.328125 178.910156 238.078125 180.035156 238.824219 181.125 C 239.574219 182.21875 240.261719 183.226562 240.902344 184.148438 C 241.546875 185.070312 242.058594 185.761719 242.445312 186.226562 C 241.878906 186.183594 241.375 186.167969 240.933594 186.167969 C 240.484375 186.167969 240.050781 186.167969 239.628906 186.167969 C 239.199219 186.167969 238.777344 186.167969 238.359375 186.167969 C 237.949219 186.167969 237.523438 186.183594 237.097656 186.226562 C 236.109375 184.753906 235.140625 183.257812 234.191406 181.730469 C 233.242188 180.210938 232.273438 178.695312 231.285156 177.183594 L 231.230469 177.183594 C 231.230469 179.296875 231.238281 181.109375 231.261719 182.621094 Z M 231.261719 182.621094 " fill-opacity="1" fill-rule="nonzero"/><path fill="#a72c29" d="M 254.785156 173.070312 C 255.171875 172.363281 255.554688 171.625 255.921875 170.847656 C 256.289062 170.070312 256.644531 169.292969 257 168.507812 C 257.34375 167.722656 257.683594 166.96875 258.015625 166.257812 C 258.222656 166.292969 258.441406 166.324219 258.664062 166.355469 C 258.890625 166.382812 259.121094 166.398438 259.351562 166.398438 C 259.582031 166.398438 259.8125 166.382812 260.035156 166.355469 C 260.253906 166.324219 260.492188 166.292969 260.742188 166.257812 C 260.414062 166.792969 260.003906 167.507812 259.511719 168.390625 C 259.011719 169.273438 258.488281 170.226562 257.925781 171.253906 C 257.359375 172.28125 256.792969 173.335938 256.226562 174.410156 C 255.65625 175.484375 255.136719 176.476562 254.667969 177.386719 C 254.667969 177.851562 254.660156 178.324219 254.644531 178.796875 C 254.621094 179.277344 254.605469 179.753906 254.605469 180.238281 C 254.605469 181.222656 254.625 182.207031 254.652344 183.171875 C 254.6875 184.144531 254.769531 185.160156 254.902344 186.226562 C 254.496094 186.183594 254.085938 186.167969 253.667969 186.167969 C 253.25 186.167969 252.839844 186.167969 252.429688 186.167969 C 252.027344 186.167969 251.613281 186.167969 251.195312 186.167969 C 250.78125 186.167969 250.378906 186.183594 249.960938 186.226562 C 250 185.335938 250.070312 184.425781 250.167969 183.492188 C 250.265625 182.5625 250.316406 181.632812 250.316406 180.703125 C 250.316406 180.261719 250.304688 179.808594 250.296875 179.351562 C 250.289062 178.898438 250.273438 178.441406 250.253906 178 C 249.769531 177.03125 249.210938 175.949219 248.585938 174.757812 C 247.953125 173.5625 247.34375 172.402344 246.75 171.28125 C 246.160156 170.160156 245.617188 169.140625 245.125 168.226562 C 244.632812 167.320312 244.269531 166.660156 244.039062 166.253906 C 244.480469 166.292969 244.917969 166.320312 245.34375 166.351562 C 245.769531 166.382812 246.199219 166.398438 246.652344 166.398438 C 247.09375 166.398438 247.527344 166.382812 247.945312 166.351562 C 248.367188 166.320312 248.792969 166.292969 249.234375 166.253906 C 249.566406 166.96875 249.9375 167.765625 250.355469 168.632812 C 250.773438 169.507812 251.179688 170.359375 251.585938 171.195312 C 251.996094 172.027344 252.375 172.78125 252.71875 173.460938 C 253.070312 174.140625 253.347656 174.644531 253.566406 174.976562 L 253.625 174.976562 C 254.011719 174.410156 254.398438 173.777344 254.785156 173.070312 Z M 254.785156 173.070312 " fill-opacity="1" fill-rule="nonzero"/><path fill="#a72c29" d="M 261.589844 172.242188 C 262.121094 170.980469 262.875 169.875 263.839844 168.929688 C 264.8125 167.976562 265.980469 167.234375 267.359375 166.6875 C 268.738281 166.148438 270.261719 165.878906 271.949219 165.878906 C 273.503906 165.878906 274.941406 166.089844 276.273438 166.511719 C 277.617188 166.941406 278.78125 167.582031 279.769531 168.433594 C 280.746094 169.289062 281.53125 170.367188 282.105469 171.675781 C 282.679688 172.980469 282.960938 174.507812 282.960938 176.253906 C 282.960938 177.707031 282.683594 179.066406 282.136719 180.324219 C 281.578125 181.582031 280.816406 182.691406 279.84375 183.625 C 278.863281 184.566406 277.695312 185.300781 276.335938 185.824219 C 274.976562 186.339844 273.488281 186.605469 271.863281 186.605469 C 270.332031 186.605469 268.890625 186.414062 267.546875 186.039062 C 266.207031 185.664062 265.03125 185.050781 264.035156 184.207031 C 263.035156 183.367188 262.246094 182.289062 261.664062 180.976562 C 261.082031 179.667969 260.789062 178.105469 260.789062 176.285156 C 260.789062 174.851562 261.054688 173.503906 261.589844 172.242188 Z M 277.734375 172.253906 C 277.421875 171.257812 276.988281 170.410156 276.441406 169.710938 C 275.886719 169.011719 275.21875 168.480469 274.433594 168.101562 C 273.652344 167.722656 272.792969 167.53125 271.863281 167.53125 C 270.875 167.53125 269.988281 167.773438 269.207031 168.242188 C 268.417969 168.71875 267.757812 169.359375 267.210938 170.175781 C 266.671875 170.992188 266.257812 171.945312 265.976562 173.042969 C 265.699219 174.136719 265.554688 175.304688 265.554688 176.546875 C 265.554688 178.09375 265.722656 179.40625 266.050781 180.46875 C 266.382812 181.535156 266.828125 182.390625 267.386719 183.042969 C 267.945312 183.691406 268.597656 184.160156 269.332031 184.453125 C 270.070312 184.742188 270.84375 184.890625 271.65625 184.890625 C 272.53125 184.890625 273.359375 184.703125 274.15625 184.335938 C 274.953125 183.964844 275.644531 183.40625 276.238281 182.648438 C 276.828125 181.894531 277.296875 180.9375 277.660156 179.773438 C 278.019531 178.609375 278.195312 177.234375 278.195312 175.644531 C 278.191406 174.382812 278.035156 173.253906 277.734375 172.253906 Z M 277.734375 172.253906 " fill-opacity="1" fill-rule="nonzero"/><path fill="#a72c29" d="M 286.625 170.019531 C 286.582031 168.769531 286.527344 167.515625 286.445312 166.253906 C 286.78125 166.292969 287.128906 166.324219 287.523438 166.355469 C 287.910156 166.382812 288.34375 166.398438 288.835938 166.398438 C 289.316406 166.398438 289.75 166.382812 290.136719 166.355469 C 290.523438 166.324219 290.882812 166.292969 291.210938 166.253906 C 291.132812 167.515625 291.078125 168.769531 291.039062 170.019531 C 291 171.265625 290.980469 172.695312 290.980469 174.304688 L 290.980469 178.257812 C 290.980469 179.871094 291 181.296875 291.039062 182.546875 C 291.078125 183.800781 291.132812 185.023438 291.210938 186.226562 C 290.882812 186.183594 290.523438 186.167969 290.136719 186.167969 C 289.75 186.167969 289.3125 186.167969 288.835938 186.167969 C 288.34375 186.167969 287.910156 186.167969 287.523438 186.167969 C 287.128906 186.167969 286.78125 186.183594 286.445312 186.226562 C 286.527344 185.023438 286.582031 183.800781 286.625 182.546875 C 286.664062 181.296875 286.683594 179.871094 286.683594 178.257812 L 286.683594 174.304688 C 286.683594 172.695312 286.664062 171.265625 286.625 170.019531 Z M 286.625 170.019531 " fill-opacity="1" fill-rule="nonzero"/><path fill="#a72c29" d="M 299.972656 182.621094 C 299.988281 184.132812 300.058594 185.335938 300.175781 186.226562 C 299.847656 186.1875 299.488281 186.167969 299.09375 186.167969 C 298.714844 186.167969 298.273438 186.167969 297.792969 186.167969 C 297.304688 186.167969 296.875 186.167969 296.480469 186.167969 C 296.097656 186.167969 295.738281 186.183594 295.40625 186.226562 C 295.488281 185.023438 295.539062 183.800781 295.582031 182.546875 C 295.621094 181.296875 295.636719 179.875 295.636719 178.261719 L 295.636719 174.304688 C 295.636719 172.699219 295.625 171.265625 295.582031 170.019531 C 295.539062 168.769531 295.488281 167.515625 295.40625 166.257812 C 295.738281 166.292969 296.097656 166.324219 296.480469 166.355469 C 296.875 166.382812 297.304688 166.398438 297.792969 166.398438 C 298.273438 166.398438 298.714844 166.382812 299.09375 166.355469 C 299.488281 166.324219 299.847656 166.292969 300.175781 166.257812 C 300.074219 166.835938 300.019531 167.707031 299.988281 168.871094 C 299.960938 170.035156 299.945312 171.324219 299.945312 172.738281 L 299.945312 175.527344 C 300.597656 174.753906 301.308594 173.902344 302.0625 172.980469 C 302.820312 172.0625 303.542969 171.167969 304.242188 170.296875 C 304.941406 169.421875 305.570312 168.621094 306.132812 167.894531 C 306.691406 167.167969 307.097656 166.621094 307.351562 166.257812 C 307.625 166.292969 307.894531 166.324219 308.160156 166.355469 C 308.4375 166.382812 308.707031 166.398438 308.976562 166.398438 C 309.253906 166.398438 309.519531 166.382812 309.804688 166.355469 C 310.085938 166.324219 310.394531 166.292969 310.726562 166.257812 C 310.394531 166.585938 309.886719 167.113281 309.214844 167.851562 C 308.53125 168.589844 307.8125 169.382812 307.046875 170.238281 C 306.28125 171.089844 305.550781 171.917969 304.855469 172.722656 C 304.15625 173.527344 303.613281 174.160156 303.226562 174.628906 C 303.84375 175.574219 304.53125 176.625 305.289062 177.765625 C 306.042969 178.910156 306.792969 180.035156 307.542969 181.125 C 308.285156 182.21875 308.976562 183.226562 309.617188 184.148438 C 310.257812 185.070312 310.773438 185.761719 311.160156 186.226562 C 310.59375 186.183594 310.09375 186.167969 309.644531 186.167969 C 309.199219 186.167969 308.765625 186.167969 308.339844 186.167969 C 307.910156 186.167969 307.488281 186.167969 307.070312 186.167969 C 306.660156 186.167969 306.234375 186.183594 305.816406 186.226562 C 304.828125 184.753906 303.855469 183.257812 302.90625 181.730469 C 301.953125 180.210938 300.984375 178.695312 300 177.183594 L 299.945312 177.183594 C 299.945312 179.296875 299.953125 181.109375 299.972656 182.621094 Z M 299.972656 182.621094 " fill-opacity="1" fill-rule="nonzero"/><path fill="#a72c29" d="M 318.710938 186.210938 C 317.636719 185.949219 316.703125 185.511719 315.902344 184.90625 C 315.109375 184.292969 314.488281 183.507812 314.03125 182.546875 C 313.578125 181.589844 313.347656 180.421875 313.347656 179.042969 C 313.347656 178.269531 313.355469 177.578125 313.359375 176.964844 C 313.371094 176.355469 313.378906 175.789062 313.378906 175.265625 C 313.378906 174.742188 313.382812 174.238281 313.390625 173.753906 C 313.402344 173.269531 313.402344 172.765625 313.402344 172.242188 C 313.402344 170.671875 313.398438 169.40625 313.378906 168.433594 C 313.355469 167.464844 313.324219 166.738281 313.289062 166.257812 C 313.683594 166.292969 314.070312 166.324219 314.480469 166.355469 C 314.886719 166.382812 315.285156 166.398438 315.671875 166.398438 C 316.054688 166.398438 316.457031 166.382812 316.863281 166.355469 C 317.269531 166.324219 317.671875 166.292969 318.054688 166.257812 C 317.863281 168.132812 317.746094 169.882812 317.707031 171.5 C 317.671875 173.121094 317.644531 174.761719 317.644531 176.429688 C 317.644531 178.195312 317.777344 179.617188 318.027344 180.703125 C 318.277344 181.792969 318.652344 182.628906 319.140625 183.21875 C 319.640625 183.8125 320.242188 184.199219 320.964844 184.394531 C 321.671875 184.589844 322.511719 184.683594 323.457031 184.683594 C 324.625 184.683594 325.527344 184.394531 326.191406 183.816406 C 326.847656 183.230469 327.347656 182.453125 327.683594 181.488281 C 328.023438 180.515625 328.230469 179.40625 328.308594 178.15625 C 328.390625 176.90625 328.433594 175.605469 328.433594 174.25 C 328.433594 172.914062 328.40625 171.578125 328.367188 170.25 C 328.324219 168.921875 328.273438 167.589844 328.195312 166.253906 C 328.460938 166.292969 328.726562 166.324219 328.980469 166.355469 C 329.230469 166.382812 329.464844 166.398438 329.675781 166.398438 C 329.929688 166.398438 330.171875 166.382812 330.402344 166.355469 C 330.632812 166.324219 330.878906 166.292969 331.128906 166.253906 C 331.09375 166.679688 331.054688 167.253906 331.011719 167.96875 C 330.976562 168.683594 330.9375 169.511719 330.894531 170.453125 C 330.855469 171.394531 330.824219 172.429688 330.792969 173.566406 C 330.765625 174.695312 330.753906 175.894531 330.753906 177.15625 C 330.753906 180.53125 330.027344 182.945312 328.574219 184.40625 C 327.117188 185.871094 324.988281 186.605469 322.183594 186.605469 C 320.941406 186.605469 319.785156 186.472656 318.710938 186.210938 Z M 318.710938 186.210938 " fill-opacity="1" fill-rule="nonzero"/><path fill="#a72c29" d="M 129.394531 210.246094 C 128.558594 210.039062 127.835938 209.699219 127.222656 209.230469 C 126.605469 208.757812 126.121094 208.148438 125.769531 207.40625 C 125.417969 206.664062 125.238281 205.757812 125.238281 204.6875 C 125.238281 204.085938 125.246094 203.550781 125.25 203.082031 C 125.261719 202.609375 125.261719 202.167969 125.261719 201.761719 C 125.261719 201.355469 125.265625 200.96875 125.273438 200.589844 C 125.28125 200.214844 125.285156 199.824219 125.285156 199.421875 C 125.285156 198.203125 125.277344 197.21875 125.261719 196.472656 C 125.246094 195.71875 125.222656 195.15625 125.195312 194.777344 C 125.492188 194.808594 125.804688 194.832031 126.117188 194.855469 C 126.429688 194.878906 126.742188 194.894531 127.039062 194.894531 C 127.339844 194.894531 127.652344 194.878906 127.964844 194.855469 C 128.277344 194.832031 128.589844 194.808594 128.886719 194.777344 C 128.734375 196.234375 128.648438 197.589844 128.617188 198.847656 C 128.589844 200.097656 128.570312 201.375 128.570312 202.664062 C 128.570312 204.027344 128.667969 205.128906 128.863281 205.972656 C 129.054688 206.8125 129.347656 207.464844 129.730469 207.921875 C 130.113281 208.378906 130.582031 208.683594 131.144531 208.832031 C 131.695312 208.988281 132.34375 209.0625 133.074219 209.0625 C 133.972656 209.0625 134.683594 208.832031 135.1875 208.382812 C 135.703125 207.9375 136.089844 207.335938 136.351562 206.582031 C 136.613281 205.832031 136.773438 204.96875 136.835938 204.003906 C 136.890625 203.035156 136.921875 202.027344 136.921875 200.972656 C 136.921875 199.933594 136.90625 198.910156 136.878906 197.875 C 136.851562 196.847656 136.804688 195.816406 136.746094 194.777344 C 136.953125 194.808594 137.15625 194.832031 137.351562 194.855469 C 137.546875 194.878906 137.730469 194.894531 137.894531 194.894531 C 138.089844 194.894531 138.273438 194.878906 138.457031 194.855469 C 138.636719 194.832031 138.820312 194.808594 139.015625 194.777344 C 138.988281 195.109375 138.957031 195.554688 138.933594 196.105469 C 138.898438 196.664062 138.867188 197.304688 138.839844 198.035156 C 138.804688 198.765625 138.78125 199.566406 138.757812 200.445312 C 138.738281 201.324219 138.726562 202.246094 138.726562 203.222656 C 138.726562 205.835938 138.160156 207.714844 137.035156 208.847656 C 135.914062 209.980469 134.261719 210.546875 132.082031 210.546875 C 131.125 210.546875 130.226562 210.445312 129.394531 210.246094 Z M 129.394531 210.246094 " fill-opacity="1" fill-rule="nonzero"/><path fill="#a72c29" d="M 150.792969 196.652344 C 150.761719 195.945312 150.738281 195.316406 150.726562 194.78125 C 151.144531 194.855469 151.484375 194.894531 151.738281 194.894531 C 151.996094 194.894531 152.332031 194.855469 152.75 194.78125 C 154.386719 196.597656 156.003906 198.382812 157.601562 200.140625 C 159.199219 201.898438 160.84375 203.683594 162.523438 205.503906 L 162.523438 201.355469 C 162.523438 200.621094 162.519531 199.898438 162.515625 199.183594 C 162.503906 198.46875 162.5 197.8125 162.484375 197.210938 C 162.480469 196.609375 162.464844 196.09375 162.441406 195.664062 C 162.421875 195.222656 162.390625 194.929688 162.367188 194.78125 C 162.785156 194.855469 163.121094 194.894531 163.375 194.894531 C 163.632812 194.894531 163.96875 194.855469 164.386719 194.78125 C 164.316406 196.152344 164.25 197.386719 164.210938 198.484375 C 164.167969 199.589844 164.128906 200.628906 164.097656 201.609375 C 164.070312 202.582031 164.046875 203.546875 164.042969 204.503906 C 164.035156 205.453125 164.03125 206.46875 164.03125 207.554688 L 164.03125 210.257812 C 163.730469 210.222656 163.425781 210.207031 163.105469 210.207031 C 162.777344 210.207031 162.484375 210.222656 162.226562 210.257812 C 159.136719 206.652344 155.859375 203.019531 152.390625 199.375 C 152.375 199.8125 152.363281 200.25 152.355469 200.683594 C 152.347656 201.117188 152.34375 201.558594 152.34375 202.011719 L 152.34375 204.625 C 152.34375 205.523438 152.347656 206.292969 152.355469 206.921875 C 152.363281 207.554688 152.375 208.085938 152.390625 208.519531 C 152.402344 208.953125 152.421875 209.3125 152.4375 209.589844 C 152.449219 209.867188 152.46875 210.085938 152.484375 210.257812 C 152.296875 210.222656 152.121094 210.207031 151.941406 210.207031 C 151.761719 210.207031 151.585938 210.207031 151.417969 210.207031 C 151.074219 210.207031 150.730469 210.222656 150.386719 210.257812 C 150.417969 210.132812 150.457031 209.707031 150.5 208.96875 C 150.542969 208.234375 150.59375 207.339844 150.644531 206.277344 C 150.703125 205.21875 150.742188 204.074219 150.78125 202.828125 C 150.820312 201.59375 150.835938 200.402344 150.835938 199.261719 C 150.835938 198.226562 150.820312 197.359375 150.792969 196.652344 Z M 150.792969 196.652344 " fill-opacity="1" fill-rule="nonzero"/><path fill="#a72c29" d="M 176.710938 197.699219 C 176.679688 196.730469 176.632812 195.753906 176.578125 194.78125 C 176.828125 194.8125 177.105469 194.832031 177.402344 194.859375 C 177.707031 194.882812 178.039062 194.894531 178.421875 194.894531 C 178.792969 194.894531 179.132812 194.882812 179.429688 194.859375 C 179.734375 194.832031 180.007812 194.8125 180.265625 194.78125 C 180.207031 195.753906 180.160156 196.730469 180.128906 197.699219 C 180.101562 198.667969 180.089844 199.777344 180.089844 201.019531 L 180.089844 204.082031 C 180.089844 205.328125 180.101562 206.4375 180.128906 207.40625 C 180.160156 208.371094 180.207031 209.324219 180.265625 210.257812 C 180.007812 210.222656 179.734375 210.207031 179.429688 210.207031 C 179.132812 210.207031 178.792969 210.207031 178.421875 210.207031 C 178.039062 210.207031 177.707031 210.207031 177.402344 210.207031 C 177.105469 210.207031 176.828125 210.222656 176.578125 210.257812 C 176.632812 209.324219 176.679688 208.371094 176.710938 207.40625 C 176.742188 206.4375 176.75 205.328125 176.75 204.082031 L 176.75 201.019531 C 176.75 199.777344 176.742188 198.667969 176.710938 197.699219 Z M 176.710938 197.699219 " fill-opacity="1" fill-rule="nonzero"/><path fill="#a72c29" d="M 201.3125 200.332031 C 202.046875 198.40625 202.710938 196.550781 203.292969 194.78125 C 203.667969 194.855469 203.996094 194.894531 204.285156 194.894531 C 204.570312 194.894531 204.902344 194.855469 205.273438 194.78125 C 204.898438 195.664062 204.445312 196.730469 203.921875 197.980469 C 203.398438 199.226562 202.847656 200.546875 202.28125 201.945312 C 201.707031 203.339844 201.148438 204.757812 200.589844 206.199219 C 200.03125 207.640625 199.539062 208.992188 199.105469 210.257812 C 198.804688 210.222656 198.472656 210.207031 198.113281 210.207031 C 197.753906 210.207031 197.425781 210.222656 197.121094 210.257812 C 196.898438 209.65625 196.621094 208.925781 196.304688 208.074219 C 195.980469 207.214844 195.640625 206.304688 195.265625 205.34375 C 194.898438 204.382812 194.511719 203.402344 194.105469 202.394531 C 193.699219 201.390625 193.3125 200.414062 192.9375 199.472656 C 192.558594 198.539062 192.207031 197.664062 191.882812 196.851562 C 191.546875 196.042969 191.261719 195.351562 191.023438 194.78125 C 191.371094 194.808594 191.710938 194.832031 192.046875 194.855469 C 192.382812 194.878906 192.71875 194.894531 193.046875 194.894531 C 193.382812 194.894531 193.710938 194.882812 194.035156 194.855469 C 194.371094 194.832031 194.699219 194.808594 195.027344 194.78125 C 195.285156 195.621094 195.574219 196.507812 195.894531 197.4375 C 196.222656 198.371094 196.550781 199.324219 196.898438 200.289062 C 197.25 201.253906 197.601562 202.230469 197.96875 203.207031 C 198.332031 204.183594 198.6875 205.140625 199.03125 206.085938 C 199.8125 204.183594 200.574219 202.261719 201.3125 200.332031 Z M 201.3125 200.332031 " fill-opacity="1" fill-rule="nonzero"/><path fill="#a72c29" d="M 215.945312 197.699219 C 215.914062 196.730469 215.878906 195.753906 215.828125 194.78125 C 216.5 194.796875 217.171875 194.820312 217.824219 194.851562 C 218.488281 194.878906 219.15625 194.894531 219.835938 194.894531 C 220.941406 194.894531 221.925781 194.882812 222.789062 194.855469 C 223.65625 194.832031 224.238281 194.808594 224.539062 194.78125 C 224.476562 195.019531 224.449219 195.332031 224.449219 195.726562 C 224.449219 195.960938 224.453125 196.152344 224.46875 196.292969 C 224.480469 196.425781 224.507812 196.574219 224.535156 196.742188 C 224.101562 196.710938 223.621094 196.683594 223.105469 196.652344 C 222.589844 196.617188 222.085938 196.589844 221.597656 196.5625 C 221.113281 196.527344 220.667969 196.507812 220.28125 196.496094 C 219.890625 196.476562 219.613281 196.472656 219.449219 196.472656 C 219.382812 197.296875 219.355469 198.117188 219.351562 198.925781 C 219.339844 199.738281 219.335938 200.554688 219.335938 201.382812 C 220.308594 201.367188 221.195312 201.339844 221.984375 201.3125 C 222.773438 201.28125 223.59375 201.246094 224.449219 201.199219 C 224.398438 201.453125 224.375 201.648438 224.355469 201.785156 C 224.339844 201.921875 224.335938 202.0625 224.335938 202.210938 C 224.335938 202.332031 224.34375 202.457031 224.375 202.582031 C 224.386719 202.710938 224.414062 202.898438 224.449219 203.140625 C 222.738281 203.003906 221.03125 202.933594 219.335938 202.933594 C 219.335938 203.414062 219.328125 203.894531 219.324219 204.375 C 219.320312 204.855469 219.320312 205.335938 219.320312 205.816406 C 219.320312 206.789062 219.335938 207.734375 219.378906 208.636719 C 220.238281 208.636719 221.09375 208.613281 221.945312 208.5625 C 222.800781 208.519531 223.660156 208.445312 224.535156 208.335938 C 224.503906 208.511719 224.480469 208.65625 224.46875 208.792969 C 224.453125 208.925781 224.449219 209.117188 224.449219 209.355469 C 224.449219 209.59375 224.453125 209.78125 224.46875 209.921875 C 224.480469 210.054688 224.507812 210.164062 224.535156 210.257812 C 224.128906 210.238281 223.632812 210.230469 223.039062 210.222656 C 222.441406 210.210938 221.632812 210.210938 220.59375 210.210938 C 219.679688 210.210938 218.933594 210.210938 218.371094 210.210938 C 217.808594 210.210938 217.363281 210.210938 217.027344 210.210938 C 216.691406 210.210938 216.4375 210.214844 216.261719 210.222656 C 216.089844 210.230469 215.945312 210.238281 215.824219 210.257812 C 215.878906 209.324219 215.914062 208.375 215.945312 207.40625 C 215.96875 206.4375 215.984375 205.328125 215.984375 204.085938 L 215.984375 201.019531 C 215.984375 199.777344 215.96875 198.667969 215.945312 197.699219 Z M 215.945312 197.699219 " fill-opacity="1" fill-rule="nonzero"/><path fill="#a72c29" d="M 240.445312 203.160156 L 240.445312 204.082031 C 240.445312 205.328125 240.457031 206.4375 240.488281 207.40625 C 240.515625 208.371094 240.558594 209.324219 240.621094 210.257812 C 240.363281 210.222656 240.09375 210.207031 239.789062 210.207031 C 239.488281 210.207031 239.152344 210.207031 238.773438 210.207031 C 238.398438 210.207031 238.0625 210.207031 237.765625 210.207031 C 237.46875 210.207031 237.191406 210.222656 236.9375 210.257812 C 236.988281 209.324219 237.035156 208.371094 237.066406 207.40625 C 237.09375 206.4375 237.113281 205.328125 237.113281 204.082031 L 237.113281 201.019531 C 237.113281 199.777344 237.09375 198.667969 237.066406 197.699219 C 237.035156 196.730469 236.988281 195.753906 236.9375 194.78125 C 237.191406 194.8125 237.46875 194.832031 237.765625 194.859375 C 238.0625 194.882812 238.398438 194.894531 238.773438 194.894531 C 239.179688 194.894531 239.644531 194.875 240.164062 194.832031 C 240.683594 194.796875 241.320312 194.78125 242.089844 194.78125 C 242.652344 194.78125 243.136719 194.796875 243.550781 194.824219 C 243.953125 194.855469 244.308594 194.898438 244.59375 194.960938 C 244.886719 195.019531 245.140625 195.101562 245.363281 195.195312 C 245.574219 195.296875 245.78125 195.410156 245.980469 195.546875 C 246.425781 195.875 246.785156 196.289062 247.046875 196.773438 C 247.308594 197.261719 247.441406 197.839844 247.441406 198.519531 C 247.441406 199.617188 247.140625 200.507812 246.539062 201.203125 C 245.941406 201.890625 245.070312 202.375 243.953125 202.664062 C 244.671875 203.941406 245.441406 205.210938 246.273438 206.480469 C 247.09375 207.753906 247.921875 209.011719 248.75 210.257812 C 248.402344 210.222656 248.066406 210.207031 247.738281 210.207031 C 247.40625 210.207031 247.070312 210.207031 246.726562 210.207031 C 246.378906 210.207031 246.039062 210.207031 245.699219 210.207031 C 245.363281 210.207031 245.019531 210.222656 244.675781 210.257812 L 240.644531 203.160156 Z M 243.796875 197.4375 C 243.660156 197.046875 243.453125 196.75 243.175781 196.542969 C 242.898438 196.34375 242.539062 196.214844 242.09375 196.152344 C 241.660156 196.09375 241.128906 196.066406 240.507812 196.066406 C 240.46875 198.105469 240.445312 200.152344 240.445312 202.1875 C 240.53125 202.203125 240.621094 202.214844 240.699219 202.222656 C 240.78125 202.230469 240.859375 202.238281 240.933594 202.238281 C 241.929688 202.238281 242.691406 201.972656 243.210938 201.433594 C 243.734375 200.902344 244 200.09375 244 199.015625 C 244 198.355469 243.929688 197.828125 243.796875 197.4375 Z M 243.796875 197.4375 " fill-opacity="1" fill-rule="nonzero"/><path fill="#a72c29" d="M 263.773438 195.882812 C 263.085938 195.882812 262.519531 196.085938 262.089844 196.496094 C 261.652344 196.898438 261.4375 197.371094 261.4375 197.914062 C 261.4375 198.472656 261.609375 198.921875 261.9375 199.273438 C 262.285156 199.628906 262.703125 199.945312 263.210938 200.230469 C 263.726562 200.515625 264.273438 200.792969 264.859375 201.054688 C 265.441406 201.316406 265.988281 201.636719 266.503906 202.023438 C 267.011719 202.40625 267.4375 202.871094 267.769531 203.417969 C 268.109375 203.964844 268.285156 204.671875 268.285156 205.523438 C 268.285156 206.277344 268.136719 206.960938 267.847656 207.585938 C 267.566406 208.210938 267.160156 208.742188 266.636719 209.1875 C 266.109375 209.628906 265.480469 209.964844 264.753906 210.199219 C 264.027344 210.433594 263.210938 210.550781 262.3125 210.550781 C 261.503906 210.550781 260.777344 210.460938 260.140625 210.292969 C 259.5 210.113281 259.023438 209.910156 258.6875 209.648438 C 258.839844 209.125 258.96875 208.640625 259.070312 208.207031 C 259.171875 207.769531 259.269531 207.300781 259.339844 206.789062 L 259.773438 206.789062 C 259.828125 207.121094 259.945312 207.429688 260.105469 207.726562 C 260.277344 208.011719 260.480469 208.273438 260.738281 208.5 C 260.992188 208.722656 261.304688 208.902344 261.664062 209.03125 C 262.023438 209.15625 262.421875 209.222656 262.875 209.222656 C 263.773438 209.222656 264.433594 208.992188 264.867188 208.542969 C 265.296875 208.09375 265.511719 207.554688 265.511719 206.925781 C 265.511719 206.355469 265.34375 205.882812 265.011719 205.527344 C 264.683594 205.167969 264.273438 204.847656 263.773438 204.570312 C 263.289062 204.289062 262.738281 204.019531 262.160156 203.757812 C 261.570312 203.492188 261.03125 203.175781 260.53125 202.800781 C 260.035156 202.425781 259.628906 201.96875 259.296875 201.417969 C 258.96875 200.871094 258.800781 200.164062 258.800781 199.308594 C 258.800781 198.527344 258.941406 197.839844 259.222656 197.234375 C 259.496094 196.636719 259.867188 196.136719 260.332031 195.730469 C 260.800781 195.320312 261.335938 195.011719 261.9375 194.808594 C 262.550781 194.597656 263.195312 194.488281 263.871094 194.488281 C 264.675781 194.488281 265.386719 194.585938 265.992188 194.78125 C 266.601562 194.976562 267.121094 195.25 267.554688 195.59375 C 267.421875 195.941406 267.304688 196.273438 267.207031 196.597656 C 267.109375 196.917969 266.984375 197.324219 266.835938 197.824219 L 266.503906 197.824219 C 266.019531 196.527344 265.113281 195.882812 263.773438 195.882812 Z M 263.773438 195.882812 " fill-opacity="1" fill-rule="nonzero"/><path fill="#a72c29" d="M 280.605469 197.699219 C 280.574219 196.730469 280.527344 195.753906 280.46875 194.78125 C 280.726562 194.8125 281.003906 194.832031 281.304688 194.859375 C 281.605469 194.882812 281.941406 194.894531 282.316406 194.894531 C 282.691406 194.894531 283.03125 194.882812 283.332031 194.859375 C 283.632812 194.832031 283.902344 194.8125 284.164062 194.78125 C 284.105469 195.753906 284.058594 196.730469 284.019531 197.699219 C 283.996094 198.667969 283.980469 199.777344 283.980469 201.019531 L 283.980469 204.082031 C 283.980469 205.328125 283.996094 206.4375 284.019531 207.40625 C 284.058594 208.371094 284.105469 209.324219 284.164062 210.257812 C 283.902344 210.222656 283.628906 210.207031 283.332031 210.207031 C 283.03125 210.207031 282.691406 210.207031 282.316406 210.207031 C 281.941406 210.207031 281.605469 210.207031 281.304688 210.207031 C 281.003906 210.207031 280.726562 210.222656 280.46875 210.257812 C 280.527344 209.324219 280.574219 208.371094 280.605469 207.40625 C 280.632812 206.4375 280.652344 205.328125 280.652344 204.082031 L 280.652344 201.019531 C 280.652344 199.777344 280.632812 198.667969 280.605469 197.699219 Z M 280.605469 197.699219 " fill-opacity="1" fill-rule="nonzero"/><path fill="#a72c29" d="M 299.714844 197.257812 C 299.707031 196.894531 299.675781 196.636719 299.660156 196.472656 C 299.425781 196.472656 299.148438 196.476562 298.824219 196.496094 C 298.488281 196.507812 298.136719 196.523438 297.761719 196.542969 C 297.386719 196.570312 297 196.601562 296.617188 196.636719 C 296.21875 196.679688 295.863281 196.71875 295.53125 196.761719 C 295.5625 196.597656 295.585938 196.433594 295.609375 196.265625 C 295.628906 196.101562 295.648438 195.9375 295.648438 195.769531 C 295.648438 195.601562 295.628906 195.445312 295.609375 195.277344 C 295.585938 195.109375 295.5625 194.945312 295.53125 194.78125 C 296.046875 194.796875 296.503906 194.8125 296.917969 194.824219 C 297.328125 194.839844 297.75 194.851562 298.179688 194.859375 C 298.605469 194.871094 299.070312 194.875 299.570312 194.882812 C 300.074219 194.890625 300.683594 194.894531 301.386719 194.894531 C 302.09375 194.894531 302.695312 194.890625 303.203125 194.882812 C 303.703125 194.875 304.164062 194.867188 304.582031 194.859375 C 305.007812 194.851562 305.414062 194.839844 305.808594 194.824219 C 306.207031 194.8125 306.636719 194.796875 307.105469 194.78125 C 307.078125 194.945312 307.050781 195.109375 307.027344 195.277344 C 307.007812 195.445312 306.988281 195.601562 306.988281 195.769531 C 306.988281 195.941406 307.003906 196.101562 307.027344 196.265625 C 307.050781 196.433594 307.078125 196.597656 307.105469 196.761719 C 306.804688 196.71875 306.46875 196.679688 306.089844 196.636719 C 305.714844 196.601562 305.347656 196.570312 304.976562 196.542969 C 304.609375 196.523438 304.257812 196.507812 303.929688 196.496094 C 303.605469 196.476562 303.324219 196.472656 303.101562 196.472656 C 303.082031 196.542969 303.074219 196.652344 303.066406 196.785156 C 303.0625 196.917969 303.050781 197.078125 303.050781 197.257812 L 303.050781 204.082031 C 303.050781 205.328125 303.066406 206.4375 303.101562 207.40625 C 303.125 208.371094 303.171875 209.324219 303.230469 210.257812 C 302.976562 210.222656 302.695312 210.207031 302.402344 210.207031 C 302.097656 210.207031 301.761719 210.207031 301.386719 210.207031 C 301.015625 210.207031 300.671875 210.207031 300.378906 210.207031 C 300.078125 210.207031 299.796875 210.222656 299.542969 210.257812 C 299.601562 209.324219 299.648438 208.371094 299.675781 207.40625 C 299.707031 206.4375 299.722656 205.328125 299.722656 204.082031 L 299.722656 198.453125 C 299.722656 198.015625 299.714844 197.621094 299.714844 197.257812 Z M 299.714844 197.257812 " fill-opacity="1" fill-rule="nonzero"/><path fill="#a72c29" d="M 324.148438 200.066406 C 324.449219 199.515625 324.738281 198.945312 325.027344 198.339844 C 325.308594 197.738281 325.589844 197.136719 325.859375 196.527344 C 326.128906 195.917969 326.390625 195.332031 326.648438 194.78125 C 326.808594 194.8125 326.976562 194.832031 327.152344 194.859375 C 327.320312 194.882812 327.5 194.894531 327.679688 194.894531 C 327.863281 194.894531 328.035156 194.882812 328.210938 194.859375 C 328.382812 194.832031 328.566406 194.8125 328.765625 194.78125 C 328.511719 195.199219 328.183594 195.75 327.804688 196.433594 C 327.421875 197.121094 327.011719 197.859375 326.574219 198.652344 C 326.140625 199.449219 325.703125 200.269531 325.257812 201.101562 C 324.820312 201.933594 324.417969 202.703125 324.058594 203.40625 C 324.058594 203.769531 324.046875 204.132812 324.03125 204.503906 C 324.019531 204.867188 324.007812 205.242188 324.007812 205.613281 C 324.007812 206.378906 324.023438 207.136719 324.042969 207.894531 C 324.070312 208.640625 324.132812 209.429688 324.234375 210.257812 C 323.925781 210.222656 323.605469 210.207031 323.28125 210.207031 C 322.960938 210.207031 322.636719 210.207031 322.324219 210.207031 C 322.011719 210.207031 321.691406 210.207031 321.371094 210.207031 C 321.046875 210.207031 320.722656 210.222656 320.410156 210.257812 C 320.441406 209.566406 320.492188 208.859375 320.570312 208.136719 C 320.648438 207.417969 320.679688 206.695312 320.679688 205.972656 C 320.679688 205.628906 320.675781 205.28125 320.667969 204.929688 C 320.664062 204.574219 320.652344 204.226562 320.632812 203.886719 C 320.261719 203.132812 319.832031 202.292969 319.34375 201.367188 C 318.855469 200.445312 318.378906 199.546875 317.925781 198.675781 C 317.464844 197.808594 317.046875 197.019531 316.664062 196.3125 C 316.277344 195.601562 315.996094 195.101562 315.820312 194.78125 C 316.167969 194.8125 316.503906 194.832031 316.828125 194.859375 C 317.160156 194.882812 317.5 194.894531 317.847656 194.894531 C 318.195312 194.894531 318.527344 194.882812 318.847656 194.859375 C 319.171875 194.832031 319.5 194.8125 319.847656 194.78125 C 320.101562 195.332031 320.390625 195.949219 320.714844 196.628906 C 321.039062 197.300781 321.355469 197.964844 321.671875 198.609375 C 321.988281 199.257812 322.277344 199.839844 322.550781 200.367188 C 322.824219 200.894531 323.039062 201.28125 323.203125 201.539062 L 323.25 201.539062 C 323.546875 201.101562 323.84375 200.613281 324.148438 200.066406 Z M 324.148438 200.066406 " fill-opacity="1" fill-rule="nonzero"/></svg>