<svg xmlns="http://www.w3.org/2000/svg" xmlns:xlink="http://www.w3.org/1999/xlink" width="500" zoomAndPan="magnify" viewBox="0 0 375 374.999991" height="500" preserveAspectRatio="xMidYMid meet" version="1.0"><path fill="#612428" d="M 116.945312 181.695312 C 116.945312 181.695312 116.945312 181.632812 116.882812 181.632812 C 116.882812 181.632812 110.695312 172.324219 110.695312 172.324219 C 110.695312 172.324219 105.820312 161.886719 105.820312 161.886719 C 105.820312 161.886719 105.820312 161.824219 105.757812 161.824219 C 105.757812 161.824219 105.695312 161.761719 105.695312 161.761719 C 105.695312 161.761719 96.132812 157.511719 96.132812 157.511719 C 96.132812 157.511719 87.195312 148.390625 87.195312 148.390625 C 87.195312 148.390625 87.132812 148.328125 87.132812 148.328125 C 87.070312 148.328125 87.070312 148.328125 87.070312 148.328125 C 87.070312 148.328125 75.632812 154.015625 75.632812 154.015625 C 75.632812 154.015625 64.324219 154.578125 64.324219 154.578125 C 64.324219 154.578125 64.261719 154.578125 64.261719 154.578125 C 64.261719 154.578125 64.199219 154.640625 64.199219 154.640625 C 64.199219 154.640625 57.074219 163.261719 57.074219 163.261719 C 57.074219 163.261719 48.074219 170.199219 48.074219 170.199219 C 48.074219 170.199219 48.011719 170.261719 48.011719 170.261719 C 48.011719 170.261719 48.011719 170.324219 48.011719 170.324219 C 48.011719 170.324219 47.449219 181.695312 47.449219 181.695312 C 47.449219 181.695312 44.761719 192.757812 44.761719 192.757812 C 44.761719 192.757812 44.761719 192.820312 44.761719 192.820312 C 44.761719 192.820312 44.761719 192.882812 44.824219 192.882812 C 44.824219 192.882812 50.511719 202.257812 50.511719 202.257812 C 50.511719 202.257812 54.574219 212.878906 54.574219 212.878906 C 54.574219 212.878906 54.574219 212.941406 54.636719 212.941406 C 54.636719 212.941406 54.699219 213.003906 54.699219 213.003906 C 54.699219 213.003906 65.074219 217.066406 65.074219 217.066406 C 65.074219 217.066406 74.007812 226.191406 74.007812 226.191406 C 74.007812 226.191406 74.070312 226.253906 74.070312 226.253906 C 74.132812 226.253906 74.132812 226.253906 74.132812 226.253906 C 74.132812 226.253906 85.570312 220.566406 85.570312 220.566406 C 85.570312 220.566406 96.570312 219.503906 96.570312 219.503906 C 96.570312 219.503906 96.632812 219.503906 96.632812 219.503906 C 96.632812 219.503906 96.695312 219.441406 96.695312 219.441406 C 96.695312 219.441406 104.195312 211.316406 104.195312 211.316406 C 104.195312 211.316406 112.382812 204.378906 112.445312 204.378906 C 112.445312 204.378906 112.507812 204.316406 112.507812 204.316406 C 112.507812 204.316406 112.507812 204.253906 112.507812 204.253906 C 112.507812 204.253906 113.820312 192.882812 113.820312 192.882812 C 113.820312 192.882812 116.945312 181.820312 116.945312 181.757812 C 116.945312 181.757812 116.945312 181.695312 116.945312 181.695312 Z M 116.945312 181.695312 " fill-opacity="1" fill-rule="nonzero"/><path fill="#d10a2e" d="M 57.074219 163.261719 L 47.449219 181.695312 L 50.511719 202.257812 L 65.074219 217.128906 L 85.570312 220.566406 L 104.195312 211.316406 L 113.820312 192.882812 L 110.757812 172.324219 L 96.195312 157.453125 L 75.695312 154.015625 Z M 57.074219 163.261719 " fill-opacity="1" fill-rule="nonzero"/><path fill="#7e1c2e" d="M 45.636719 168.949219 C 45.636719 168.949219 45.574219 169.011719 45.574219 169.011719 C 45.574219 169.011719 45.574219 169.074219 45.574219 169.074219 C 45.574219 169.074219 47.449219 181.695312 47.449219 181.695312 L 57.074219 163.261719 C 57.074219 163.261719 45.636719 168.949219 45.636719 168.949219 Z M 45.636719 168.949219 " fill-opacity="1" fill-rule="nonzero"/><path fill="#a00f16" d="M 63.136719 151.890625 C 63.136719 151.890625 63.074219 151.890625 63.074219 151.890625 C 63.074219 151.890625 63.011719 151.953125 63.011719 151.953125 C 63.011719 151.953125 57.136719 163.261719 57.136719 163.261719 L 75.757812 154.015625 C 75.695312 154.015625 63.136719 151.890625 63.136719 151.890625 Z M 63.136719 151.890625 " fill-opacity="1" fill-rule="nonzero"/><path fill="#a00f16" d="M 108.882812 159.699219 C 108.882812 159.699219 108.882812 159.636719 108.820312 159.636719 C 108.820312 159.636719 108.757812 159.574219 108.757812 159.574219 C 108.757812 159.574219 96.195312 157.453125 96.195312 157.453125 L 110.757812 172.261719 C 110.757812 172.324219 108.882812 159.699219 108.882812 159.699219 Z M 108.882812 159.699219 " fill-opacity="1" fill-rule="nonzero"/><path fill="#a00f16" d="M 119.695312 181.570312 C 119.695312 181.570312 119.695312 181.507812 119.695312 181.507812 C 119.695312 181.507812 119.695312 181.445312 119.632812 181.445312 C 119.632812 181.445312 110.695312 172.324219 110.695312 172.324219 L 113.757812 192.882812 C 113.820312 192.882812 119.695312 181.570312 119.695312 181.570312 Z M 119.695312 181.570312 " fill-opacity="1" fill-rule="nonzero"/><path fill="#7e1c2e" d="M 115.570312 205.628906 C 115.570312 205.628906 115.632812 205.566406 115.632812 205.566406 C 115.632812 205.566406 115.632812 205.503906 115.632812 205.503906 C 115.632812 205.503906 113.757812 192.882812 113.757812 192.882812 L 104.132812 211.316406 C 104.195312 211.316406 115.570312 205.628906 115.570312 205.628906 Z M 115.570312 205.628906 " fill-opacity="1" fill-rule="nonzero"/><path fill="#a00f16" d="M 98.132812 222.691406 C 98.132812 222.691406 98.195312 222.691406 98.195312 222.691406 C 98.195312 222.691406 98.257812 222.628906 98.257812 222.628906 C 98.257812 222.628906 104.132812 211.316406 104.132812 211.316406 L 85.507812 220.566406 C 85.570312 220.566406 98.132812 222.691406 98.132812 222.691406 Z M 98.132812 222.691406 " fill-opacity="1" fill-rule="nonzero"/><path fill="#7e1c2e" d="M 52.386719 214.878906 C 52.386719 214.878906 52.386719 214.941406 52.449219 214.941406 C 52.449219 214.941406 52.511719 215.003906 52.511719 215.003906 C 52.511719 215.003906 65.074219 217.128906 65.074219 217.128906 L 50.511719 202.257812 C 50.511719 202.257812 52.386719 214.878906 52.386719 214.878906 Z M 52.386719 214.878906 " fill-opacity="1" fill-rule="nonzero"/><path fill="#a00f16" d="M 41.574219 193.007812 C 41.574219 193.007812 41.574219 193.070312 41.574219 193.070312 C 41.574219 193.070312 41.574219 193.132812 41.636719 193.132812 C 41.636719 193.132812 50.574219 202.257812 50.574219 202.257812 L 47.511719 181.695312 C 47.449219 181.695312 41.574219 193.007812 41.574219 193.007812 Z M 41.574219 193.007812 " fill-opacity="1" fill-rule="nonzero"/><path fill="#612428" d="M 116.945312 181.695312 C 116.945312 181.695312 116.945312 181.632812 116.882812 181.632812 C 116.882812 181.632812 110.695312 172.324219 110.695312 172.324219 C 110.695312 172.324219 105.820312 161.886719 105.820312 161.886719 C 105.820312 161.886719 105.820312 161.824219 105.757812 161.824219 C 105.757812 161.824219 105.695312 161.761719 105.695312 161.761719 C 105.695312 161.761719 96.132812 157.511719 96.132812 157.511719 C 96.132812 157.511719 87.195312 148.390625 87.195312 148.390625 C 87.195312 148.390625 87.132812 148.328125 87.132812 148.328125 C 87.070312 148.328125 87.070312 148.328125 87.070312 148.328125 C 87.070312 148.328125 75.632812 154.015625 75.632812 154.015625 C 75.632812 154.015625 64.324219 154.578125 64.324219 154.578125 C 64.324219 154.578125 64.261719 154.578125 64.261719 154.578125 C 64.261719 154.578125 64.199219 154.640625 64.199219 154.640625 C 64.199219 154.640625 57.074219 163.261719 57.074219 163.261719 C 57.074219 163.261719 48.074219 170.199219 48.074219 170.199219 C 48.074219 170.199219 48.011719 170.261719 48.011719 170.261719 C 48.011719 170.261719 48.011719 170.324219 48.011719 170.324219 C 48.011719 170.324219 47.449219 181.695312 47.449219 181.695312 C 47.449219 181.695312 44.761719 192.757812 44.761719 192.757812 C 44.761719 192.757812 44.761719 192.820312 44.761719 192.820312 C 44.761719 192.820312 44.761719 192.882812 44.824219 192.882812 C 44.824219 192.882812 50.511719 202.257812 50.511719 202.257812 C 50.511719 202.257812 54.574219 212.878906 54.574219 212.878906 C 54.574219 212.878906 54.574219 212.941406 54.636719 212.941406 C 54.636719 212.941406 54.699219 213.003906 54.699219 213.003906 C 54.699219 213.003906 65.074219 217.066406 65.074219 217.066406 C 65.074219 217.066406 74.007812 226.191406 74.007812 226.191406 C 74.007812 226.191406 74.070312 226.253906 74.070312 226.253906 C 74.132812 226.253906 74.132812 226.253906 74.132812 226.253906 C 74.132812 226.253906 85.570312 220.566406 85.570312 220.566406 C 85.570312 220.566406 96.570312 219.503906 96.570312 219.503906 C 96.570312 219.503906 96.632812 219.503906 96.632812 219.503906 C 96.632812 219.503906 96.695312 219.441406 96.695312 219.441406 C 96.695312 219.441406 104.195312 211.316406 104.195312 211.316406 C 104.195312 211.316406 112.382812 204.378906 112.445312 204.378906 C 112.445312 204.378906 112.507812 204.316406 112.507812 204.316406 C 112.507812 204.316406 112.507812 204.253906 112.507812 204.253906 C 112.507812 204.253906 113.820312 192.882812 113.820312 192.882812 C 113.820312 192.882812 116.945312 181.820312 116.945312 181.757812 C 116.945312 181.757812 116.945312 181.695312 116.945312 181.695312 Z M 116.945312 181.695312 " fill-opacity="1" fill-rule="nonzero"/><path fill="#d10a2e" d="M 57.074219 163.261719 L 47.449219 181.695312 L 50.511719 202.257812 L 65.074219 217.128906 L 85.570312 220.566406 L 104.195312 211.316406 L 113.820312 192.882812 L 110.757812 172.324219 L 96.195312 157.453125 L 75.695312 154.015625 Z M 57.074219 163.261719 " fill-opacity="1" fill-rule="nonzero"/><path fill="#7e1c2e" d="M 45.636719 168.949219 C 45.636719 168.949219 45.574219 169.011719 45.574219 169.011719 C 45.574219 169.011719 45.574219 169.074219 45.574219 169.074219 C 45.574219 169.074219 47.449219 181.695312 47.449219 181.695312 L 57.074219 163.261719 C 57.074219 163.261719 45.636719 168.949219 45.636719 168.949219 Z M 45.636719 168.949219 " fill-opacity="1" fill-rule="nonzero"/><path fill="#a00f16" d="M 63.136719 151.890625 C 63.136719 151.890625 63.074219 151.890625 63.074219 151.890625 C 63.074219 151.890625 63.011719 151.953125 63.011719 151.953125 C 63.011719 151.953125 57.136719 163.261719 57.136719 163.261719 L 75.757812 154.015625 C 75.695312 154.015625 63.136719 151.890625 63.136719 151.890625 Z M 63.136719 151.890625 " fill-opacity="1" fill-rule="nonzero"/><path fill="#a00f16" d="M 108.882812 159.699219 C 108.882812 159.699219 108.882812 159.636719 108.820312 159.636719 C 108.820312 159.636719 108.757812 159.574219 108.757812 159.574219 C 108.757812 159.574219 96.195312 157.453125 96.195312 157.453125 L 110.757812 172.261719 C 110.757812 172.324219 108.882812 159.699219 108.882812 159.699219 Z M 108.882812 159.699219 " fill-opacity="1" fill-rule="nonzero"/><path fill="#a00f16" d="M 119.695312 181.570312 C 119.695312 181.570312 119.695312 181.507812 119.695312 181.507812 C 119.695312 181.507812 119.695312 181.445312 119.632812 181.445312 C 119.632812 181.445312 110.695312 172.324219 110.695312 172.324219 L 113.757812 192.882812 C 113.820312 192.882812 119.695312 181.570312 119.695312 181.570312 Z M 119.695312 181.570312 " fill-opacity="1" fill-rule="nonzero"/><path fill="#7e1c2e" d="M 115.570312 205.628906 C 115.570312 205.628906 115.632812 205.566406 115.632812 205.566406 C 115.632812 205.566406 115.632812 205.503906 115.632812 205.503906 C 115.632812 205.503906 113.757812 192.882812 113.757812 192.882812 L 104.132812 211.316406 C 104.195312 211.316406 115.570312 205.628906 115.570312 205.628906 Z M 115.570312 205.628906 " fill-opacity="1" fill-rule="nonzero"/><path fill="#a00f16" d="M 98.132812 222.691406 C 98.132812 222.691406 98.195312 222.691406 98.195312 222.691406 C 98.195312 222.691406 98.257812 222.628906 98.257812 222.628906 C 98.257812 222.628906 104.132812 211.316406 104.132812 211.316406 L 85.507812 220.566406 C 85.570312 220.566406 98.132812 222.691406 98.132812 222.691406 Z M 98.132812 222.691406 " fill-opacity="1" fill-rule="nonzero"/><path fill="#7e1c2e" d="M 52.386719 214.878906 C 52.386719 214.878906 52.386719 214.941406 52.449219 214.941406 C 52.449219 214.941406 52.511719 215.003906 52.511719 215.003906 C 52.511719 215.003906 65.074219 217.128906 65.074219 217.128906 L 50.511719 202.257812 C 50.511719 202.257812 52.386719 214.878906 52.386719 214.878906 Z M 52.386719 214.878906 " fill-opacity="1" fill-rule="nonzero"/><path fill="#a00f16" d="M 41.574219 193.007812 C 41.574219 193.007812 41.574219 193.070312 41.574219 193.070312 C 41.574219 193.070312 41.574219 193.132812 41.636719 193.132812 C 41.636719 193.132812 50.574219 202.257812 50.574219 202.257812 L 47.511719 181.695312 C 47.449219 181.695312 41.574219 193.007812 41.574219 193.007812 Z M 41.574219 193.007812 " fill-opacity="1" fill-rule="nonzero"/><path fill="#000000" d="M 141.445312 207.691406 C 142.070312 207.691406 142.632812 207.753906 143.007812 207.878906 C 143.445312 208.003906 143.757812 208.191406 144.007812 208.378906 C 144.257812 208.566406 144.445312 208.753906 144.570312 208.941406 C 144.695312 209.128906 144.757812 209.253906 144.820312 209.378906 L 145.007812 209.378906 L 145.570312 207.628906 C 144.882812 207.316406 144.132812 207.066406 143.507812 206.941406 C 142.820312 206.816406 142.132812 206.753906 141.382812 206.753906 C 140.195312 206.753906 139.132812 206.941406 138.257812 207.253906 C 137.382812 207.566406 136.632812 208.066406 136.070312 208.628906 C 135.507812 209.191406 135.070312 209.878906 134.757812 210.691406 C 134.445312 211.503906 134.320312 212.316406 134.320312 213.253906 C 134.320312 214.253906 134.507812 215.128906 134.820312 215.941406 C 135.195312 216.691406 135.632812 217.378906 136.195312 217.878906 C 136.757812 218.378906 137.445312 218.816406 138.257812 219.066406 C 139.007812 219.316406 139.882812 219.441406 140.757812 219.441406 C 142.445312 219.441406 143.945312 219.066406 145.320312 218.316406 L 145.507812 216.566406 L 145.320312 216.441406 C 145.132812 216.691406 144.882812 216.941406 144.632812 217.128906 C 144.382812 217.378906 144.070312 217.566406 143.757812 217.753906 C 143.445312 217.941406 143.070312 218.128906 142.632812 218.253906 C 142.195312 218.378906 141.695312 218.441406 141.195312 218.441406 C 140.820312 218.441406 140.445312 218.378906 140.070312 218.316406 C 139.757812 218.253906 139.445312 218.128906 139.195312 217.941406 C 138.945312 217.753906 138.695312 217.628906 138.507812 217.441406 C 138.320312 217.253906 138.132812 217.066406 137.945312 216.816406 C 137.695312 216.441406 137.445312 216.066406 137.320312 215.691406 C 137.195312 215.316406 137.070312 214.941406 137.007812 214.628906 C 136.945312 214.316406 136.882812 214.003906 136.882812 213.691406 C 136.882812 213.441406 136.882812 213.191406 136.882812 213.066406 C 136.882812 211.378906 137.257812 210.003906 138.070312 209.128906 C 138.757812 208.128906 139.882812 207.691406 141.445312 207.691406 Z M 141.445312 207.691406 " fill-opacity="1" fill-rule="nonzero"/><path fill="#000000" d="M 159.695312 210.878906 C 159.695312 210.128906 159.757812 209.378906 159.757812 208.628906 C 159.757812 207.878906 159.820312 207.316406 159.882812 206.816406 L 157.320312 206.816406 C 157.320312 207.128906 157.320312 207.441406 157.382812 207.628906 C 157.382812 207.816406 157.382812 207.941406 157.382812 208.066406 L 157.382812 208.503906 C 157.382812 208.628906 157.382812 208.753906 157.382812 208.878906 C 157.382812 209.003906 157.382812 209.191406 157.382812 209.503906 C 157.382812 209.816406 157.382812 210.128906 157.382812 210.441406 C 157.382812 210.753906 157.382812 211.066406 157.382812 211.378906 C 157.382812 211.691406 157.382812 211.878906 157.382812 212.003906 C 156.820312 212.003906 156.320312 212.066406 155.757812 212.066406 C 155.195312 212.066406 154.695312 212.066406 154.132812 212.066406 C 153.695312 212.066406 153.257812 212.066406 152.757812 212.066406 C 152.320312 212.066406 151.882812 212.066406 151.382812 212.003906 C 151.382812 211.191406 151.382812 210.503906 151.382812 209.941406 C 151.382812 209.378906 151.382812 208.941406 151.445312 208.566406 C 151.445312 208.191406 151.507812 207.878906 151.507812 207.628906 C 151.507812 207.378906 151.570312 207.128906 151.570312 206.878906 L 149.070312 206.878906 C 149.132812 207.566406 149.195312 208.253906 149.195312 208.941406 C 149.195312 209.628906 149.257812 210.316406 149.257812 211.003906 C 149.257812 212.378906 149.257812 213.753906 149.257812 215.066406 C 149.257812 216.378906 149.195312 217.753906 149.132812 219.128906 L 151.632812 219.128906 C 151.632812 218.816406 151.570312 218.566406 151.570312 218.316406 C 151.570312 218.066406 151.507812 217.753906 151.507812 217.441406 C 151.507812 217.128906 151.507812 216.753906 151.445312 216.378906 C 151.445312 215.941406 151.445312 215.441406 151.445312 214.878906 L 151.445312 213.066406 C 151.945312 213.066406 152.445312 213.003906 153.007812 213.003906 C 153.507812 213.003906 154.007812 213.003906 154.570312 213.003906 C 155.070312 213.003906 155.570312 213.003906 156.007812 213.003906 C 156.507812 213.003906 156.945312 213.003906 157.445312 213.066406 L 157.445312 215.941406 C 157.445312 216.128906 157.445312 216.378906 157.445312 216.691406 C 157.445312 217.003906 157.445312 217.316406 157.382812 217.691406 C 157.382812 218.003906 157.320312 218.316406 157.320312 218.628906 C 157.320312 218.878906 157.320312 219.066406 157.320312 219.191406 L 159.820312 219.191406 L 159.695312 218.066406 C 159.695312 217.753906 159.632812 217.441406 159.632812 217.128906 C 159.632812 216.378906 159.632812 215.691406 159.632812 214.941406 C 159.632812 214.503906 159.632812 213.878906 159.632812 213.128906 C 159.632812 212.378906 159.695312 211.691406 159.695312 210.878906 Z M 159.695312 210.878906 " fill-opacity="1" fill-rule="nonzero"/><path fill="#000000" d="M 166.382812 209.816406 C 166.382812 209.253906 166.445312 208.691406 166.445312 208.128906 C 166.445312 207.628906 166.507812 207.191406 166.570312 206.816406 L 164.007812 206.816406 L 164.132812 208.191406 C 164.132812 208.503906 164.195312 208.816406 164.195312 209.066406 C 164.195312 209.691406 164.195312 210.316406 164.195312 210.941406 C 164.195312 212.503906 164.195312 213.941406 164.195312 215.378906 C 164.195312 216.816406 164.132812 218.066406 164.007812 219.128906 L 166.570312 219.128906 C 166.507812 218.378906 166.445312 217.566406 166.445312 216.566406 C 166.445312 215.566406 166.382812 214.441406 166.382812 213.066406 C 166.382812 212.628906 166.382812 212.066406 166.382812 211.503906 C 166.382812 210.941406 166.320312 210.378906 166.382812 209.816406 Z M 166.382812 209.816406 " fill-opacity="1" fill-rule="nonzero"/><path fill="#000000" d="M 178.003906 213.316406 C 177.691406 213.066406 177.316406 212.878906 176.878906 212.753906 C 176.441406 212.628906 176.003906 212.566406 175.503906 212.503906 C 175.878906 212.441406 176.253906 212.378906 176.566406 212.191406 C 176.941406 212.066406 177.253906 211.878906 177.566406 211.628906 C 177.878906 211.378906 178.066406 211.128906 178.253906 210.816406 C 178.441406 210.503906 178.503906 210.128906 178.503906 209.691406 C 178.503906 209.128906 178.378906 208.628906 178.191406 208.253906 C 178.003906 207.878906 177.691406 207.566406 177.378906 207.378906 C 177.003906 207.191406 176.628906 207.003906 176.191406 206.941406 C 175.753906 206.878906 175.253906 206.816406 174.753906 206.816406 L 170.691406 206.816406 C 170.753906 207.816406 170.816406 208.816406 170.816406 209.753906 C 170.816406 210.753906 170.816406 211.753906 170.816406 212.753906 C 170.816406 213.691406 170.816406 214.753906 170.816406 215.878906 C 170.816406 217.003906 170.753906 218.066406 170.691406 219.128906 L 174.691406 219.128906 C 175.191406 219.128906 175.628906 219.066406 175.941406 219.003906 C 176.316406 218.941406 176.566406 218.878906 176.816406 218.753906 C 177.066406 218.628906 177.253906 218.566406 177.441406 218.441406 C 177.628906 218.316406 177.753906 218.191406 177.878906 218.066406 C 177.941406 218.003906 178.066406 217.878906 178.191406 217.753906 C 178.316406 217.628906 178.441406 217.441406 178.566406 217.253906 C 178.691406 217.066406 178.816406 216.816406 178.878906 216.566406 C 178.941406 216.316406 179.003906 216.003906 179.003906 215.691406 C 179.003906 215.128906 178.941406 214.628906 178.753906 214.253906 C 178.566406 213.878906 178.316406 213.566406 178.003906 213.316406 Z M 173.003906 209.253906 C 173.003906 209.003906 173.003906 208.753906 173.003906 208.503906 C 173.003906 208.253906 173.003906 208.003906 173.003906 207.753906 C 173.378906 207.691406 173.816406 207.691406 174.253906 207.691406 C 174.878906 207.691406 175.378906 207.878906 175.691406 208.253906 C 176.003906 208.628906 176.191406 209.128906 176.191406 209.753906 C 176.191406 210.566406 176.003906 211.128906 175.566406 211.503906 C 175.128906 211.878906 174.566406 212.128906 173.753906 212.128906 C 173.628906 212.128906 173.503906 212.128906 173.378906 212.128906 C 173.253906 212.128906 173.128906 212.128906 173.003906 212.128906 Z M 176.003906 217.628906 C 175.566406 218.066406 174.878906 218.253906 174.066406 218.253906 C 173.878906 218.253906 173.753906 218.253906 173.566406 218.191406 C 173.441406 218.191406 173.253906 218.128906 173.066406 218.128906 C 173.066406 217.878906 173.066406 217.628906 173.066406 217.316406 C 173.066406 217.003906 173.066406 216.816406 173.066406 216.628906 L 173.066406 213.003906 C 173.316406 212.941406 173.503906 212.941406 173.691406 212.941406 C 174.128906 212.941406 174.566406 213.003906 174.941406 213.066406 C 175.316406 213.128906 175.628906 213.316406 175.878906 213.503906 C 176.128906 213.691406 176.316406 214.003906 176.503906 214.316406 C 176.628906 214.691406 176.691406 215.066406 176.691406 215.628906 C 176.691406 216.566406 176.441406 217.191406 176.003906 217.628906 Z M 176.003906 217.628906 " fill-opacity="1" fill-rule="nonzero"/><path fill="#000000" d="M 192.066406 216.066406 C 191.816406 215.503906 191.566406 215.003906 191.378906 214.503906 C 191.128906 214.003906 190.941406 213.566406 190.816406 213.128906 C 190.628906 212.753906 190.441406 212.316406 190.253906 211.816406 C 190.066406 211.316406 189.816406 210.816406 189.628906 210.253906 C 189.378906 209.691406 189.191406 209.128906 188.941406 208.503906 C 188.691406 207.878906 188.503906 207.253906 188.253906 206.691406 L 187.066406 206.691406 C 186.941406 207.066406 186.816406 207.503906 186.628906 207.941406 C 186.441406 208.441406 186.191406 209.003906 185.941406 209.628906 C 185.691406 210.253906 185.378906 211.003906 185.003906 211.816406 C 184.628906 212.628906 184.253906 213.566406 183.816406 214.566406 L 181.753906 219.191406 L 183.441406 219.191406 C 183.566406 218.691406 183.816406 218.066406 184.066406 217.378906 C 184.316406 216.691406 184.628906 216.003906 184.878906 215.316406 C 185.253906 215.316406 185.566406 215.253906 185.941406 215.253906 C 186.316406 215.253906 186.628906 215.253906 187.003906 215.253906 C 187.378906 215.253906 187.753906 215.253906 188.128906 215.253906 C 188.503906 215.253906 188.878906 215.253906 189.253906 215.316406 L 190.003906 217.191406 L 190.753906 219.191406 L 193.503906 219.191406 C 193.316406 218.753906 193.066406 218.253906 192.816406 217.753906 C 192.566406 217.191406 192.316406 216.628906 192.066406 216.066406 Z M 187.878906 214.191406 C 187.628906 214.191406 187.316406 214.191406 187.066406 214.191406 C 186.753906 214.191406 186.441406 214.191406 186.128906 214.128906 C 185.816406 214.128906 185.503906 214.128906 185.191406 214.066406 L 187.003906 209.628906 L 188.691406 214.066406 C 188.441406 214.191406 188.128906 214.191406 187.878906 214.191406 Z M 187.878906 214.191406 " fill-opacity="1" fill-rule="nonzero"/><path fill="#000000" d="M 210.941406 210.378906 C 210.941406 211.566406 210.941406 212.691406 210.941406 213.878906 C 210.941406 214.253906 210.941406 214.566406 210.941406 214.816406 C 210.941406 215.066406 210.941406 215.316406 210.878906 215.503906 C 210.878906 215.691406 210.816406 215.878906 210.816406 216.003906 C 210.816406 216.128906 210.753906 216.253906 210.691406 216.316406 C 210.503906 216.878906 210.128906 217.316406 209.566406 217.628906 C 209.003906 217.941406 208.378906 218.128906 207.691406 218.128906 C 207.066406 218.128906 206.503906 218.003906 206.003906 217.816406 C 205.566406 217.628906 205.191406 217.378906 204.878906 217.003906 C 204.753906 216.816406 204.628906 216.628906 204.566406 216.441406 C 204.503906 216.253906 204.441406 216.003906 204.378906 215.691406 C 204.316406 215.378906 204.316406 215.003906 204.316406 214.566406 C 204.316406 214.128906 204.316406 213.503906 204.316406 212.816406 C 204.316406 212.066406 204.316406 211.253906 204.316406 210.441406 C 204.316406 209.628906 204.316406 208.878906 204.378906 208.191406 L 204.441406 206.816406 L 202.003906 206.816406 C 202.003906 207.066406 202.003906 207.316406 202.066406 207.566406 C 202.066406 207.878906 202.066406 208.128906 202.066406 208.441406 C 202.066406 208.753906 202.066406 209.003906 202.066406 209.316406 C 202.066406 209.628906 202.066406 209.878906 202.066406 210.066406 L 202.066406 214.941406 C 202.066406 215.003906 202.066406 215.191406 202.066406 215.378906 C 202.066406 215.566406 202.066406 215.753906 202.128906 215.878906 C 202.253906 216.566406 202.441406 217.128906 202.816406 217.566406 C 203.191406 218.003906 203.566406 218.378906 204.066406 218.628906 C 204.566406 218.878906 205.066406 219.066406 205.628906 219.191406 C 206.191406 219.316406 206.753906 219.316406 207.316406 219.316406 C 207.816406 219.316406 208.316406 219.253906 208.878906 219.128906 C 209.441406 219.003906 209.941406 218.816406 210.378906 218.566406 C 210.691406 218.378906 210.941406 218.191406 211.191406 217.941406 C 211.441406 217.691406 211.628906 217.441406 211.753906 217.128906 C 211.878906 216.816406 212.003906 216.503906 212.128906 216.066406 C 212.191406 215.691406 212.253906 215.191406 212.253906 214.691406 C 212.253906 214.253906 212.253906 213.691406 212.316406 213.066406 C 212.316406 212.441406 212.316406 211.753906 212.378906 211.066406 C 212.378906 210.378906 212.378906 209.753906 212.441406 209.128906 C 212.441406 208.503906 212.503906 208.003906 212.503906 207.628906 L 212.566406 206.753906 L 210.878906 206.753906 C 210.878906 208.066406 210.941406 209.253906 210.941406 210.378906 Z M 210.941406 210.378906 " fill-opacity="1" fill-rule="nonzero"/><path fill="#000000" d="M 233.816406 209.816406 C 233.816406 209.253906 233.816406 208.691406 233.878906 208.128906 C 233.878906 207.628906 233.941406 207.191406 234.003906 206.816406 L 231.441406 206.816406 C 231.503906 207.691406 231.628906 208.441406 231.628906 209.128906 C 231.628906 209.816406 231.628906 210.378906 231.628906 211.003906 C 231.628906 212.566406 231.628906 214.003906 231.628906 215.441406 C 231.628906 216.878906 231.566406 218.066406 231.441406 219.191406 L 234.003906 219.191406 C 233.941406 218.441406 233.878906 217.628906 233.878906 216.628906 C 233.878906 215.628906 233.816406 214.503906 233.816406 213.128906 C 233.816406 212.691406 233.816406 212.128906 233.816406 211.566406 C 233.816406 211.003906 233.816406 210.441406 233.816406 209.816406 Z M 233.816406 209.816406 " fill-opacity="1" fill-rule="nonzero"/><path fill="#000000" d="M 246.878906 208.253906 C 246.691406 208.753906 246.503906 209.316406 246.316406 209.816406 C 246.128906 210.378906 245.878906 210.878906 245.691406 211.441406 C 245.503906 212.003906 245.316406 212.503906 245.128906 212.941406 C 244.941406 213.378906 244.816406 213.753906 244.691406 214.066406 C 244.566406 214.378906 244.503906 214.566406 244.503906 214.628906 L 243.816406 216.316406 C 243.628906 215.816406 243.378906 215.378906 243.191406 214.878906 C 243.003906 214.441406 242.753906 213.941406 242.566406 213.441406 C 242.191406 212.503906 241.878906 211.691406 241.628906 211.066406 C 241.378906 210.441406 241.191406 209.878906 241.003906 209.441406 C 240.816406 209.003906 240.691406 208.566406 240.566406 208.191406 C 240.441406 207.816406 240.316406 207.378906 240.191406 206.941406 L 237.378906 206.941406 C 237.441406 207.066406 237.503906 207.191406 237.628906 207.441406 C 237.753906 207.691406 237.878906 207.941406 238.003906 208.253906 C 238.128906 208.566406 238.253906 208.816406 238.378906 209.066406 C 238.503906 209.316406 238.566406 209.503906 238.628906 209.628906 C 238.691406 209.753906 238.753906 209.878906 238.816406 210.066406 C 238.878906 210.253906 239.003906 210.503906 239.128906 210.753906 C 239.253906 211.003906 239.378906 211.316406 239.441406 211.566406 C 239.566406 211.878906 239.691406 212.128906 239.816406 212.378906 C 239.941406 212.628906 240.003906 212.878906 240.128906 213.128906 C 240.191406 213.316406 240.253906 213.503906 240.316406 213.628906 C 240.628906 214.378906 240.878906 214.941406 241.066406 215.441406 C 241.253906 215.878906 241.441406 216.316406 241.566406 216.691406 C 241.691406 217.066406 241.816406 217.441406 241.941406 217.816406 C 242.066406 218.191406 242.253906 218.691406 242.441406 219.253906 L 243.941406 219.253906 C 244.316406 218.128906 244.753906 217.003906 245.191406 215.941406 C 245.628906 214.878906 246.066406 213.753906 246.503906 212.691406 C 246.691406 212.316406 246.878906 211.816406 247.066406 211.316406 C 247.253906 210.816406 247.503906 210.316406 247.753906 209.816406 C 248.003906 209.316406 248.191406 208.816406 248.441406 208.316406 C 248.691406 207.816406 248.878906 207.378906 249.066406 207.003906 L 247.378906 207.003906 C 247.191406 207.253906 247.066406 207.691406 246.878906 208.253906 Z M 246.878906 208.253906 " fill-opacity="1" fill-rule="nonzero"/><path fill="#000000" d="M 257.066406 218.066406 C 256.628906 218.066406 256.003906 218.066406 255.691406 218.066406 C 255.378906 218.066406 254.941406 218.066406 254.816406 218.066406 L 254.816406 213.191406 C 255.253906 213.191406 255.816406 213.191406 256.253906 213.191406 C 256.691406 213.191406 257.378906 213.191406 257.816406 213.191406 C 258.066406 213.191406 258.503906 213.191406 258.753906 213.253906 C 259.003906 213.253906 259.191406 213.253906 259.441406 213.316406 L 259.441406 212.066406 C 259.191406 212.066406 258.878906 212.128906 258.566406 212.128906 C 258.191406 212.128906 257.628906 212.191406 257.253906 212.191406 C 256.878906 212.191406 256.253906 212.191406 255.878906 212.191406 C 255.566406 212.191406 255.066406 212.191406 254.816406 212.191406 L 254.816406 208.003906 C 255.191406 208.003906 255.753906 208.003906 256.003906 208.003906 C 256.253906 208.003906 256.753906 208.003906 256.941406 208.003906 C 257.128906 208.003906 257.253906 208.003906 257.378906 208.003906 C 257.503906 208.003906 257.628906 208.003906 257.816406 208.003906 L 259.753906 208.066406 L 259.753906 206.816406 C 259.128906 206.816406 258.253906 206.878906 257.691406 206.878906 C 257.128906 206.878906 256.316406 206.941406 255.941406 206.941406 C 255.691406 206.941406 255.253906 206.941406 254.941406 206.941406 C 254.628906 206.941406 254.378906 206.941406 254.066406 206.941406 C 253.753906 206.941406 253.503906 206.941406 253.191406 206.878906 C 252.941406 206.878906 252.691406 206.878906 252.441406 206.816406 C 252.503906 207.253906 252.503906 207.816406 252.503906 208.441406 C 252.503906 209.066406 252.566406 209.628906 252.566406 210.253906 C 252.566406 210.816406 252.566406 211.378906 252.566406 211.878906 C 252.566406 212.378906 252.566406 212.691406 252.566406 212.878906 C 252.566406 213.066406 252.566406 213.378906 252.566406 213.691406 C 252.566406 214.066406 252.566406 214.441406 252.566406 214.816406 C 252.566406 215.191406 252.566406 215.566406 252.566406 215.941406 C 252.566406 216.316406 252.566406 216.628906 252.566406 216.878906 C 252.566406 217.253906 252.566406 217.628906 252.503906 218.003906 C 252.503906 218.378906 252.503906 218.753906 252.441406 219.128906 C 253.566406 219.066406 254.878906 219.003906 256.003906 219.003906 C 257.128906 219.003906 258.753906 219.066406 259.816406 219.128906 L 259.816406 217.878906 C 259.441406 217.878906 259.003906 217.941406 258.566406 217.941406 C 258.191406 218.003906 257.503906 218.003906 257.066406 218.066406 Z M 257.066406 218.066406 " fill-opacity="1" fill-rule="nonzero"/><path fill="#000000" d="M 272.125 217.378906 C 271.9375 217.066406 271.6875 216.753906 271.4375 216.441406 C 271.1875 216.066406 270.875 215.691406 270.503906 215.191406 C 270.378906 215.003906 270.191406 214.753906 270.066406 214.503906 C 269.878906 214.253906 269.753906 214.003906 269.628906 213.816406 L 269.128906 213.128906 C 269.503906 213.066406 269.941406 212.941406 270.316406 212.753906 C 270.691406 212.566406 271.003906 212.378906 271.3125 212.066406 C 271.625 211.816406 271.8125 211.503906 272 211.066406 C 272.1875 210.691406 272.25 210.253906 272.25 209.753906 C 272.25 209.378906 272.1875 209.003906 272.0625 208.628906 C 271.9375 208.253906 271.6875 208.003906 271.4375 207.691406 C 271.066406 207.316406 270.628906 207.066406 270.191406 206.941406 C 269.753906 206.816406 269.191406 206.753906 268.628906 206.753906 L 263.753906 206.753906 C 263.816406 207.316406 263.816406 207.816406 263.816406 208.191406 C 263.816406 208.566406 263.816406 208.878906 263.878906 209.253906 C 263.878906 209.566406 263.878906 209.941406 263.878906 210.316406 C 263.878906 210.691406 263.878906 211.191406 263.878906 211.753906 C 263.878906 212.316406 263.878906 212.816406 263.878906 213.253906 C 263.878906 213.691406 263.878906 214.066406 263.878906 214.441406 C 263.878906 214.816406 263.878906 215.128906 263.878906 215.441406 C 263.878906 215.753906 263.878906 216.066406 263.878906 216.441406 C 263.878906 216.816406 263.878906 217.191406 263.816406 217.628906 C 263.816406 218.066406 263.753906 218.566406 263.753906 219.128906 L 266.191406 219.128906 C 266.191406 219.003906 266.191406 218.816406 266.191406 218.503906 C 266.191406 218.191406 266.191406 217.878906 266.191406 217.503906 C 266.191406 217.128906 266.191406 216.816406 266.191406 216.503906 C 266.191406 216.191406 266.191406 215.941406 266.191406 215.816406 L 266.191406 213.253906 L 266.628906 213.253906 C 267.128906 213.941406 267.628906 214.628906 268.128906 215.378906 C 268.628906 216.128906 269.128906 216.878906 269.628906 217.566406 C 269.753906 217.753906 269.941406 218.003906 270.066406 218.316406 C 270.253906 218.628906 270.378906 218.878906 270.503906 219.066406 L 273.5625 219.066406 C 273.25 218.691406 273 218.378906 272.8125 218.128906 C 272.5625 217.941406 272.3125 217.691406 272.125 217.378906 Z M 267.316406 212.566406 C 267.066406 212.566406 266.878906 212.566406 266.628906 212.566406 C 266.441406 212.566406 266.253906 212.566406 266.066406 212.503906 L 266.066406 207.878906 C 266.191406 207.878906 266.378906 207.878906 266.691406 207.816406 C 266.941406 207.816406 267.191406 207.816406 267.378906 207.816406 C 267.691406 207.816406 267.941406 207.816406 268.253906 207.878906 C 268.566406 207.941406 268.816406 208.066406 269.066406 208.253906 C 269.378906 208.503906 269.566406 208.753906 269.691406 209.066406 C 269.816406 209.378906 269.816406 209.753906 269.816406 210.128906 C 269.816406 210.441406 269.753906 210.691406 269.691406 211.003906 C 269.628906 211.316406 269.441406 211.566406 269.253906 211.816406 C 269.066406 212.066406 268.816406 212.253906 268.503906 212.378906 C 268.191406 212.503906 267.816406 212.566406 267.316406 212.566406 Z M 267.316406 212.566406 " fill-opacity="1" fill-rule="nonzero"/><path fill="#000000" d="M 283.4375 214.441406 C 283.375 214.253906 283.3125 214.003906 283.1875 213.816406 C 283.0625 213.566406 282.9375 213.378906 282.75 213.191406 C 282.625 213.066406 282.5 212.941406 282.375 212.816406 C 282.25 212.691406 282.0625 212.628906 281.875 212.503906 C 281.6875 212.378906 281.4375 212.316406 281.1875 212.191406 C 280.9375 212.066406 280.625 212.003906 280.3125 211.816406 C 279.9375 211.691406 279.5625 211.503906 279.25 211.378906 C 278.9375 211.253906 278.6875 211.128906 278.4375 210.941406 C 278.25 210.753906 278.0625 210.566406 277.9375 210.378906 C 277.8125 210.128906 277.75 209.878906 277.75 209.566406 C 277.75 209.066406 277.9375 208.566406 278.3125 208.191406 C 278.6875 207.816406 279.1875 207.628906 279.875 207.628906 C 280.4375 207.628906 280.9375 207.753906 281.375 208.003906 C 281.8125 208.253906 282.0625 208.628906 282.1875 209.191406 L 282.4375 209.191406 L 283 207.503906 C 282.5625 207.316406 282.125 207.128906 281.6875 207.003906 C 281.25 206.878906 280.6875 206.816406 280.0625 206.816406 C 279.25 206.816406 278.5625 206.941406 278.0625 207.128906 C 277.5 207.378906 277.125 207.628906 276.75 208.003906 C 276.4375 208.378906 276.1875 208.753906 276.0625 209.191406 C 275.9375 209.628906 275.875 210.003906 275.875 210.441406 C 275.875 210.816406 275.9375 211.128906 276 211.441406 C 276.0625 211.753906 276.1875 212.003906 276.375 212.253906 C 276.5625 212.503906 276.8125 212.753906 277.0625 212.941406 C 277.375 213.128906 277.75 213.378906 278.125 213.566406 C 278.375 213.691406 278.6875 213.816406 279.0625 213.941406 C 279.4375 214.066406 279.75 214.191406 280 214.316406 C 280.0625 214.378906 280.1875 214.441406 280.375 214.503906 C 280.5625 214.566406 280.6875 214.691406 280.875 214.878906 C 281.0625 215.066406 281.1875 215.253906 281.3125 215.503906 C 281.4375 215.753906 281.5 216.066406 281.5 216.378906 C 281.5 216.691406 281.4375 217.003906 281.3125 217.253906 C 281.1875 217.503906 281.0625 217.753906 280.8125 217.941406 C 280.625 218.128906 280.375 218.316406 280.0625 218.378906 C 279.75 218.503906 279.4375 218.566406 279.0625 218.566406 C 278.8125 218.566406 278.5625 218.566406 278.3125 218.503906 C 278.0625 218.441406 277.8125 218.378906 277.625 218.191406 C 277.375 218.066406 277.1875 217.816406 276.9375 217.566406 C 276.75 217.316406 276.5 216.941406 276.3125 216.503906 L 276.0625 216.503906 L 275.625 218.503906 C 275.75 218.566406 276 218.691406 276.1875 218.753906 C 276.4375 218.878906 276.6875 218.941406 276.9375 219.066406 C 277.1875 219.191406 277.5 219.253906 277.875 219.316406 C 278.1875 219.378906 278.5625 219.441406 278.9375 219.441406 C 279.75 219.441406 280.4375 219.316406 281.0625 219.066406 C 281.625 218.816406 282.125 218.503906 282.5 218.128906 C 282.875 217.753906 283.125 217.316406 283.3125 216.878906 C 283.5 216.441406 283.5625 215.941406 283.5625 215.503906 C 283.5625 215.378906 283.5625 215.253906 283.5 215.066406 C 283.5625 214.878906 283.5 214.628906 283.4375 214.441406 Z M 283.4375 214.441406 " fill-opacity="1" fill-rule="nonzero"/><path fill="#000000" d="M 289.625 209.816406 C 289.625 209.253906 289.6875 208.691406 289.6875 208.128906 C 289.6875 207.628906 289.75 207.191406 289.8125 206.816406 L 287.25 206.816406 C 287.375 207.691406 287.375 208.441406 287.4375 209.128906 C 287.4375 209.816406 287.4375 210.378906 287.4375 211.003906 C 287.4375 212.566406 287.4375 214.003906 287.4375 215.441406 C 287.4375 216.878906 287.375 218.066406 287.25 219.191406 L 289.8125 219.191406 C 289.75 218.441406 289.6875 217.628906 289.6875 216.628906 C 289.6875 215.628906 289.625 214.503906 289.625 213.128906 C 289.625 212.691406 289.625 212.128906 289.625 211.566406 C 289.625 211.003906 289.625 210.441406 289.625 209.816406 Z M 289.625 209.816406 " fill-opacity="1" fill-rule="nonzero"/><path fill="#000000" d="M 298.3125 207.003906 C 298 207.003906 297.5625 207.003906 297.1875 207.003906 C 296.75 207.003906 296.375 207.003906 295.9375 207.003906 C 295.5 207.003906 295.125 207.003906 294.6875 206.941406 C 294.25 206.941406 293.875 206.878906 293.5 206.878906 L 293.5 208.191406 C 293.75 208.191406 294 208.128906 294.3125 208.128906 C 294.625 208.128906 294.9375 208.066406 295.1875 208.066406 C 295.5 208.066406 295.75 208.066406 295.9375 208.066406 C 296.125 208.066406 296.25 208.066406 296.3125 208.066406 L 297.1875 208.066406 C 297.1875 208.441406 297.1875 208.753906 297.1875 209.066406 C 297.1875 209.378906 297.1875 209.691406 297.1875 210.066406 L 297.1875 215.066406 C 297.1875 215.753906 297.1875 216.441406 297.125 217.128906 C 297.0625 217.816406 297.0625 218.503906 297 219.191406 L 299.5 219.191406 C 299.5 218.941406 299.4375 218.628906 299.4375 218.316406 C 299.4375 217.941406 299.375 217.441406 299.375 216.753906 L 299.375 210.128906 C 299.375 209.753906 299.375 209.441406 299.375 209.128906 C 299.375 208.816406 299.375 208.441406 299.375 208.128906 C 300 208.128906 300.625 208.128906 301.1875 208.128906 C 301.8125 208.128906 302.375 208.191406 302.9375 208.253906 L 302.9375 206.941406 C 302.0625 207.003906 301.25 207.003906 300.4375 207.003906 C 299.8125 207.003906 299.0625 207.003906 298.3125 207.003906 Z M 298.3125 207.003906 " fill-opacity="1" fill-rule="nonzero"/><path fill="#000000" d="M 225.941406 209.316406 C 226.003906 210.003906 226.003906 210.753906 226.003906 211.441406 L 226.003906 215.441406 C 225.816406 215.316406 225.628906 215.191406 225.503906 215.066406 C 225.378906 214.941406 225.253906 214.816406 225.066406 214.691406 L 222.941406 212.628906 C 222.378906 212.128906 221.878906 211.628906 221.378906 211.128906 C 220.878906 210.628906 220.441406 210.191406 220.003906 209.691406 C 219.566406 209.253906 219.128906 208.753906 218.691406 208.316406 C 218.253906 207.878906 217.816406 207.378906 217.378906 206.941406 L 216.503906 206.941406 C 216.503906 207.753906 216.503906 208.628906 216.503906 209.441406 C 216.503906 210.253906 216.503906 211.128906 216.503906 211.941406 L 216.503906 214.378906 C 216.503906 214.503906 216.503906 214.691406 216.503906 214.878906 C 216.503906 215.066406 216.503906 215.316406 216.503906 215.566406 C 216.503906 215.816406 216.503906 216.003906 216.503906 216.253906 C 216.503906 216.441406 216.503906 216.628906 216.503906 216.753906 L 216.378906 219.253906 L 217.941406 219.253906 C 217.878906 218.816406 217.878906 218.503906 217.878906 218.253906 C 217.878906 218.003906 217.816406 217.753906 217.816406 217.566406 C 217.816406 217.378906 217.816406 217.191406 217.816406 217.003906 C 217.816406 216.816406 217.816406 216.628906 217.816406 216.316406 C 217.816406 215.816406 217.816406 215.378906 217.816406 215.003906 C 217.816406 214.566406 217.816406 214.191406 217.816406 213.691406 C 217.816406 213.253906 217.816406 212.816406 217.816406 212.316406 C 217.816406 211.816406 217.816406 211.316406 217.816406 210.691406 C 218.128906 211.003906 218.503906 211.316406 218.941406 211.753906 C 219.378906 212.191406 219.878906 212.628906 220.378906 213.128906 C 220.878906 213.628906 221.441406 214.128906 222.003906 214.691406 C 222.566406 215.253906 223.128906 215.691406 223.628906 216.253906 C 224.191406 216.816406 224.691406 217.316406 225.191406 217.816406 C 225.691406 218.316406 226.128906 218.753906 226.503906 219.191406 L 227.253906 219.191406 C 227.253906 219.066406 227.253906 218.941406 227.253906 218.816406 C 227.253906 218.628906 227.253906 218.503906 227.253906 218.316406 C 227.253906 218.128906 227.253906 218.003906 227.253906 217.816406 C 227.253906 217.691406 227.253906 217.566406 227.253906 217.441406 C 227.253906 217.191406 227.253906 216.878906 227.253906 216.503906 C 227.253906 216.128906 227.253906 215.753906 227.253906 215.316406 C 227.253906 214.878906 227.253906 214.441406 227.253906 214.003906 C 227.253906 213.566406 227.253906 213.253906 227.253906 213.003906 C 227.253906 212.316406 227.253906 211.753906 227.253906 211.253906 C 227.253906 210.753906 227.253906 210.253906 227.253906 209.816406 C 227.253906 209.378906 227.316406 208.878906 227.316406 208.441406 C 227.316406 208.003906 227.378906 207.503906 227.441406 206.941406 L 225.878906 206.941406 Z M 225.941406 209.316406 " fill-opacity="1" fill-rule="nonzero"/><path fill="#000000" d="M 309.8125 219.191406 C 309.8125 218.816406 309.8125 218.441406 309.875 218.003906 C 309.875 217.566406 309.875 217.128906 309.9375 216.628906 C 309.9375 216.191406 309.9375 215.753906 309.9375 215.316406 C 309.9375 214.878906 309.9375 214.566406 309.9375 214.316406 L 308.875 212.503906 C 308.625 212.128906 308.375 211.691406 308.125 211.191406 C 307.8125 210.691406 307.5 210.191406 307.25 209.691406 C 306.9375 209.191406 306.625 208.691406 306.3125 208.191406 C 306 207.691406 305.75 207.253906 305.5 206.878906 L 308.4375 206.878906 C 308.6875 207.378906 308.875 207.816406 309.125 208.253906 C 309.3125 208.691406 309.5625 209.128906 309.8125 209.628906 C 310.0625 210.066406 310.3125 210.566406 310.625 211.128906 C 310.9375 211.691406 311.25 212.253906 311.625 212.941406 C 312 212.253906 312.3125 211.753906 312.5625 211.253906 C 312.8125 210.816406 313.0625 210.378906 313.25 209.941406 C 313.4375 209.503906 313.6875 209.066406 313.875 208.628906 C 314.125 208.128906 314.375 207.566406 314.6875 206.878906 L 316.5 206.878906 C 316.4375 207.003906 316.3125 207.191406 316.125 207.503906 C 315.9375 207.816406 315.75 208.066406 315.5625 208.441406 C 315.375 208.753906 315.1875 209.066406 315 209.316406 C 314.8125 209.566406 314.6875 209.816406 314.625 209.878906 C 314.1875 210.503906 313.8125 211.191406 313.5 211.816406 C 313.125 212.503906 312.75 213.128906 312.375 213.753906 C 312.3125 213.878906 312.25 213.941406 312.1875 214.066406 C 312.125 214.191406 312.125 214.253906 312.125 214.316406 L 312.125 215.003906 C 312.125 215.378906 312.125 215.753906 312.125 216.066406 C 312.125 216.378906 312.125 216.691406 312.125 217.003906 C 312.125 217.316406 312.125 217.691406 312.1875 218.003906 C 312.1875 218.316406 312.1875 218.691406 312.25 219.128906 L 309.8125 219.128906 Z M 309.8125 219.191406 " fill-opacity="1" fill-rule="nonzero"/><path fill="#000000" d="M 141.445312 207.691406 C 142.070312 207.691406 142.632812 207.753906 143.007812 207.878906 C 143.445312 208.003906 143.757812 208.191406 144.007812 208.378906 C 144.257812 208.566406 144.445312 208.753906 144.570312 208.941406 C 144.695312 209.128906 144.757812 209.253906 144.820312 209.378906 L 145.007812 209.378906 L 145.570312 207.628906 C 144.882812 207.316406 144.132812 207.066406 143.507812 206.941406 C 142.820312 206.816406 142.132812 206.753906 141.382812 206.753906 C 140.195312 206.753906 139.132812 206.941406 138.257812 207.253906 C 137.382812 207.566406 136.632812 208.066406 136.070312 208.628906 C 135.507812 209.191406 135.070312 209.878906 134.757812 210.691406 C 134.445312 211.503906 134.320312 212.316406 134.320312 213.253906 C 134.320312 214.253906 134.507812 215.128906 134.820312 215.941406 C 135.195312 216.691406 135.632812 217.378906 136.195312 217.878906 C 136.757812 218.378906 137.445312 218.816406 138.257812 219.066406 C 139.007812 219.316406 139.882812 219.441406 140.757812 219.441406 C 142.445312 219.441406 143.945312 219.066406 145.320312 218.316406 L 145.507812 216.566406 L 145.320312 216.441406 C 145.132812 216.691406 144.882812 216.941406 144.632812 217.128906 C 144.382812 217.378906 144.070312 217.566406 143.757812 217.753906 C 143.445312 217.941406 143.070312 218.128906 142.632812 218.253906 C 142.195312 218.378906 141.695312 218.441406 141.195312 218.441406 C 140.820312 218.441406 140.445312 218.378906 140.070312 218.316406 C 139.757812 218.253906 139.445312 218.128906 139.195312 217.941406 C 138.945312 217.753906 138.695312 217.628906 138.507812 217.441406 C 138.320312 217.253906 138.132812 217.066406 137.945312 216.816406 C 137.695312 216.441406 137.445312 216.066406 137.320312 215.691406 C 137.195312 215.316406 137.070312 214.941406 137.007812 214.628906 C 136.945312 214.316406 136.882812 214.003906 136.882812 213.691406 C 136.882812 213.441406 136.882812 213.191406 136.882812 213.066406 C 136.882812 211.378906 137.257812 210.003906 138.070312 209.128906 C 138.757812 208.128906 139.882812 207.691406 141.445312 207.691406 Z M 141.445312 207.691406 " fill-opacity="1" fill-rule="nonzero"/><path fill="#000000" d="M 159.695312 210.878906 C 159.695312 210.128906 159.757812 209.378906 159.757812 208.628906 C 159.757812 207.878906 159.820312 207.316406 159.882812 206.816406 L 157.320312 206.816406 C 157.320312 207.128906 157.320312 207.441406 157.382812 207.628906 C 157.382812 207.816406 157.382812 207.941406 157.382812 208.066406 L 157.382812 208.503906 C 157.382812 208.628906 157.382812 208.753906 157.382812 208.878906 C 157.382812 209.003906 157.382812 209.191406 157.382812 209.503906 C 157.382812 209.816406 157.382812 210.128906 157.382812 210.441406 C 157.382812 210.753906 157.382812 211.066406 157.382812 211.378906 C 157.382812 211.691406 157.382812 211.878906 157.382812 212.003906 C 156.820312 212.003906 156.320312 212.066406 155.757812 212.066406 C 155.195312 212.066406 154.695312 212.066406 154.132812 212.066406 C 153.695312 212.066406 153.257812 212.066406 152.757812 212.066406 C 152.320312 212.066406 151.882812 212.066406 151.382812 212.003906 C 151.382812 211.191406 151.382812 210.503906 151.382812 209.941406 C 151.382812 209.378906 151.382812 208.941406 151.445312 208.566406 C 151.445312 208.191406 151.507812 207.878906 151.507812 207.628906 C 151.507812 207.378906 151.570312 207.128906 151.570312 206.878906 L 149.070312 206.878906 C 149.132812 207.566406 149.195312 208.253906 149.195312 208.941406 C 149.195312 209.628906 149.257812 210.316406 149.257812 211.003906 C 149.257812 212.378906 149.257812 213.753906 149.257812 215.066406 C 149.257812 216.378906 149.195312 217.753906 149.132812 219.128906 L 151.632812 219.128906 C 151.632812 218.816406 151.570312 218.566406 151.570312 218.316406 C 151.570312 218.066406 151.507812 217.753906 151.507812 217.441406 C 151.507812 217.128906 151.507812 216.753906 151.445312 216.378906 C 151.445312 215.941406 151.445312 215.441406 151.445312 214.878906 L 151.445312 213.066406 C 151.945312 213.066406 152.445312 213.003906 153.007812 213.003906 C 153.507812 213.003906 154.007812 213.003906 154.570312 213.003906 C 155.070312 213.003906 155.570312 213.003906 156.007812 213.003906 C 156.507812 213.003906 156.945312 213.003906 157.445312 213.066406 L 157.445312 215.941406 C 157.445312 216.128906 157.445312 216.378906 157.445312 216.691406 C 157.445312 217.003906 157.445312 217.316406 157.382812 217.691406 C 157.382812 218.003906 157.320312 218.316406 157.320312 218.628906 C 157.320312 218.878906 157.320312 219.066406 157.320312 219.191406 L 159.820312 219.191406 L 159.695312 218.066406 C 159.695312 217.753906 159.632812 217.441406 159.632812 217.128906 C 159.632812 216.378906 159.632812 215.691406 159.632812 214.941406 C 159.632812 214.503906 159.632812 213.878906 159.632812 213.128906 C 159.632812 212.378906 159.695312 211.691406 159.695312 210.878906 Z M 159.695312 210.878906 " fill-opacity="1" fill-rule="nonzero"/><path fill="#000000" d="M 166.382812 209.816406 C 166.382812 209.253906 166.445312 208.691406 166.445312 208.128906 C 166.445312 207.628906 166.507812 207.191406 166.570312 206.816406 L 164.007812 206.816406 L 164.132812 208.191406 C 164.132812 208.503906 164.195312 208.816406 164.195312 209.066406 C 164.195312 209.691406 164.195312 210.316406 164.195312 210.941406 C 164.195312 212.503906 164.195312 213.941406 164.195312 215.378906 C 164.195312 216.816406 164.132812 218.066406 164.007812 219.128906 L 166.570312 219.128906 C 166.507812 218.378906 166.445312 217.566406 166.445312 216.566406 C 166.445312 215.566406 166.382812 214.441406 166.382812 213.066406 C 166.382812 212.628906 166.382812 212.066406 166.382812 211.503906 C 166.382812 210.941406 166.320312 210.378906 166.382812 209.816406 Z M 166.382812 209.816406 " fill-opacity="1" fill-rule="nonzero"/><path fill="#000000" d="M 178.003906 213.316406 C 177.691406 213.066406 177.316406 212.878906 176.878906 212.753906 C 176.441406 212.628906 176.003906 212.566406 175.503906 212.503906 C 175.878906 212.441406 176.253906 212.378906 176.566406 212.191406 C 176.941406 212.066406 177.253906 211.878906 177.566406 211.628906 C 177.878906 211.378906 178.066406 211.128906 178.253906 210.816406 C 178.441406 210.503906 178.503906 210.128906 178.503906 209.691406 C 178.503906 209.128906 178.378906 208.628906 178.191406 208.253906 C 178.003906 207.878906 177.691406 207.566406 177.378906 207.378906 C 177.003906 207.191406 176.628906 207.003906 176.191406 206.941406 C 175.753906 206.878906 175.253906 206.816406 174.753906 206.816406 L 170.691406 206.816406 C 170.753906 207.816406 170.816406 208.816406 170.816406 209.753906 C 170.816406 210.753906 170.816406 211.753906 170.816406 212.753906 C 170.816406 213.691406 170.816406 214.753906 170.816406 215.878906 C 170.816406 217.003906 170.753906 218.066406 170.691406 219.128906 L 174.691406 219.128906 C 175.191406 219.128906 175.628906 219.066406 175.941406 219.003906 C 176.316406 218.941406 176.566406 218.878906 176.816406 218.753906 C 177.066406 218.628906 177.253906 218.566406 177.441406 218.441406 C 177.628906 218.316406 177.753906 218.191406 177.878906 218.066406 C 177.941406 218.003906 178.066406 217.878906 178.191406 217.753906 C 178.316406 217.628906 178.441406 217.441406 178.566406 217.253906 C 178.691406 217.066406 178.816406 216.816406 178.878906 216.566406 C 178.941406 216.316406 179.003906 216.003906 179.003906 215.691406 C 179.003906 215.128906 178.941406 214.628906 178.753906 214.253906 C 178.566406 213.878906 178.316406 213.566406 178.003906 213.316406 Z M 173.003906 209.253906 C 173.003906 209.003906 173.003906 208.753906 173.003906 208.503906 C 173.003906 208.253906 173.003906 208.003906 173.003906 207.753906 C 173.378906 207.691406 173.816406 207.691406 174.253906 207.691406 C 174.878906 207.691406 175.378906 207.878906 175.691406 208.253906 C 176.003906 208.628906 176.191406 209.128906 176.191406 209.753906 C 176.191406 210.566406 176.003906 211.128906 175.566406 211.503906 C 175.128906 211.878906 174.566406 212.128906 173.753906 212.128906 C 173.628906 212.128906 173.503906 212.128906 173.378906 212.128906 C 173.253906 212.128906 173.128906 212.128906 173.003906 212.128906 Z M 176.003906 217.628906 C 175.566406 218.066406 174.878906 218.253906 174.066406 218.253906 C 173.878906 218.253906 173.753906 218.253906 173.566406 218.191406 C 173.441406 218.191406 173.253906 218.128906 173.066406 218.128906 C 173.066406 217.878906 173.066406 217.628906 173.066406 217.316406 C 173.066406 217.003906 173.066406 216.816406 173.066406 216.628906 L 173.066406 213.003906 C 173.316406 212.941406 173.503906 212.941406 173.691406 212.941406 C 174.128906 212.941406 174.566406 213.003906 174.941406 213.066406 C 175.316406 213.128906 175.628906 213.316406 175.878906 213.503906 C 176.128906 213.691406 176.316406 214.003906 176.503906 214.316406 C 176.628906 214.691406 176.691406 215.066406 176.691406 215.628906 C 176.691406 216.566406 176.441406 217.191406 176.003906 217.628906 Z M 176.003906 217.628906 " fill-opacity="1" fill-rule="nonzero"/><path fill="#000000" d="M 192.066406 216.066406 C 191.816406 215.503906 191.566406 215.003906 191.378906 214.503906 C 191.128906 214.003906 190.941406 213.566406 190.816406 213.128906 C 190.628906 212.753906 190.441406 212.316406 190.253906 211.816406 C 190.066406 211.316406 189.816406 210.816406 189.628906 210.253906 C 189.378906 209.691406 189.191406 209.128906 188.941406 208.503906 C 188.691406 207.878906 188.503906 207.253906 188.253906 206.691406 L 187.066406 206.691406 C 186.941406 207.066406 186.816406 207.503906 186.628906 207.941406 C 186.441406 208.441406 186.191406 209.003906 185.941406 209.628906 C 185.691406 210.253906 185.378906 211.003906 185.003906 211.816406 C 184.628906 212.628906 184.253906 213.566406 183.816406 214.566406 L 181.753906 219.191406 L 183.441406 219.191406 C 183.566406 218.691406 183.816406 218.066406 184.066406 217.378906 C 184.316406 216.691406 184.628906 216.003906 184.878906 215.316406 C 185.253906 215.316406 185.566406 215.253906 185.941406 215.253906 C 186.316406 215.253906 186.628906 215.253906 187.003906 215.253906 C 187.378906 215.253906 187.753906 215.253906 188.128906 215.253906 C 188.503906 215.253906 188.878906 215.253906 189.253906 215.316406 L 190.003906 217.191406 L 190.753906 219.191406 L 193.503906 219.191406 C 193.316406 218.753906 193.066406 218.253906 192.816406 217.753906 C 192.566406 217.191406 192.316406 216.628906 192.066406 216.066406 Z M 187.878906 214.191406 C 187.628906 214.191406 187.316406 214.191406 187.066406 214.191406 C 186.753906 214.191406 186.441406 214.191406 186.128906 214.128906 C 185.816406 214.128906 185.503906 214.128906 185.191406 214.066406 L 187.003906 209.628906 L 188.691406 214.066406 C 188.441406 214.191406 188.128906 214.191406 187.878906 214.191406 Z M 187.878906 214.191406 " fill-opacity="1" fill-rule="nonzero"/><path fill="#000000" d="M 210.941406 210.378906 C 210.941406 211.566406 210.941406 212.691406 210.941406 213.878906 C 210.941406 214.253906 210.941406 214.566406 210.941406 214.816406 C 210.941406 215.066406 210.941406 215.316406 210.878906 215.503906 C 210.878906 215.691406 210.816406 215.878906 210.816406 216.003906 C 210.816406 216.128906 210.753906 216.253906 210.691406 216.316406 C 210.503906 216.878906 210.128906 217.316406 209.566406 217.628906 C 209.003906 217.941406 208.378906 218.128906 207.691406 218.128906 C 207.066406 218.128906 206.503906 218.003906 206.003906 217.816406 C 205.566406 217.628906 205.191406 217.378906 204.878906 217.003906 C 204.753906 216.816406 204.628906 216.628906 204.566406 216.441406 C 204.503906 216.253906 204.441406 216.003906 204.378906 215.691406 C 204.316406 215.378906 204.316406 215.003906 204.316406 214.566406 C 204.316406 214.128906 204.316406 213.503906 204.316406 212.816406 C 204.316406 212.066406 204.316406 211.253906 204.316406 210.441406 C 204.316406 209.628906 204.316406 208.878906 204.378906 208.191406 L 204.441406 206.816406 L 202.003906 206.816406 C 202.003906 207.066406 202.003906 207.316406 202.066406 207.566406 C 202.066406 207.878906 202.066406 208.128906 202.066406 208.441406 C 202.066406 208.753906 202.066406 209.003906 202.066406 209.316406 C 202.066406 209.628906 202.066406 209.878906 202.066406 210.066406 L 202.066406 214.941406 C 202.066406 215.003906 202.066406 215.191406 202.066406 215.378906 C 202.066406 215.566406 202.066406 215.753906 202.128906 215.878906 C 202.253906 216.566406 202.441406 217.128906 202.816406 217.566406 C 203.191406 218.003906 203.566406 218.378906 204.066406 218.628906 C 204.566406 218.878906 205.066406 219.066406 205.628906 219.191406 C 206.191406 219.316406 206.753906 219.316406 207.316406 219.316406 C 207.816406 219.316406 208.316406 219.253906 208.878906 219.128906 C 209.441406 219.003906 209.941406 218.816406 210.378906 218.566406 C 210.691406 218.378906 210.941406 218.191406 211.191406 217.941406 C 211.441406 217.691406 211.628906 217.441406 211.753906 217.128906 C 211.878906 216.816406 212.003906 216.503906 212.128906 216.066406 C 212.191406 215.691406 212.253906 215.191406 212.253906 214.691406 C 212.253906 214.253906 212.253906 213.691406 212.316406 213.066406 C 212.316406 212.441406 212.316406 211.753906 212.378906 211.066406 C 212.378906 210.378906 212.378906 209.753906 212.441406 209.128906 C 212.441406 208.503906 212.503906 208.003906 212.503906 207.628906 L 212.566406 206.753906 L 210.878906 206.753906 C 210.878906 208.066406 210.941406 209.253906 210.941406 210.378906 Z M 210.941406 210.378906 " fill-opacity="1" fill-rule="nonzero"/><path fill="#000000" d="M 233.816406 209.816406 C 233.816406 209.253906 233.816406 208.691406 233.878906 208.128906 C 233.878906 207.628906 233.941406 207.191406 234.003906 206.816406 L 231.441406 206.816406 C 231.503906 207.691406 231.628906 208.441406 231.628906 209.128906 C 231.628906 209.816406 231.628906 210.378906 231.628906 211.003906 C 231.628906 212.566406 231.628906 214.003906 231.628906 215.441406 C 231.628906 216.878906 231.566406 218.066406 231.441406 219.191406 L 234.003906 219.191406 C 233.941406 218.441406 233.878906 217.628906 233.878906 216.628906 C 233.878906 215.628906 233.816406 214.503906 233.816406 213.128906 C 233.816406 212.691406 233.816406 212.128906 233.816406 211.566406 C 233.816406 211.003906 233.816406 210.441406 233.816406 209.816406 Z M 233.816406 209.816406 " fill-opacity="1" fill-rule="nonzero"/><path fill="#000000" d="M 246.878906 208.253906 C 246.691406 208.753906 246.503906 209.316406 246.316406 209.816406 C 246.128906 210.378906 245.878906 210.878906 245.691406 211.441406 C 245.503906 212.003906 245.316406 212.503906 245.128906 212.941406 C 244.941406 213.378906 244.816406 213.753906 244.691406 214.066406 C 244.566406 214.378906 244.503906 214.566406 244.503906 214.628906 L 243.816406 216.316406 C 243.628906 215.816406 243.378906 215.378906 243.191406 214.878906 C 243.003906 214.441406 242.753906 213.941406 242.566406 213.441406 C 242.191406 212.503906 241.878906 211.691406 241.628906 211.066406 C 241.378906 210.441406 241.191406 209.878906 241.003906 209.441406 C 240.816406 209.003906 240.691406 208.566406 240.566406 208.191406 C 240.441406 207.816406 240.316406 207.378906 240.191406 206.941406 L 237.378906 206.941406 C 237.441406 207.066406 237.503906 207.191406 237.628906 207.441406 C 237.753906 207.691406 237.878906 207.941406 238.003906 208.253906 C 238.128906 208.566406 238.253906 208.816406 238.378906 209.066406 C 238.503906 209.316406 238.566406 209.503906 238.628906 209.628906 C 238.691406 209.753906 238.753906 209.878906 238.816406 210.066406 C 238.878906 210.253906 239.003906 210.503906 239.128906 210.753906 C 239.253906 211.003906 239.378906 211.316406 239.441406 211.566406 C 239.566406 211.878906 239.691406 212.128906 239.816406 212.378906 C 239.941406 212.628906 240.003906 212.878906 240.128906 213.128906 C 240.191406 213.316406 240.253906 213.503906 240.316406 213.628906 C 240.628906 214.378906 240.878906 214.941406 241.066406 215.441406 C 241.253906 215.878906 241.441406 216.316406 241.566406 216.691406 C 241.691406 217.066406 241.816406 217.441406 241.941406 217.816406 C 242.066406 218.191406 242.253906 218.691406 242.441406 219.253906 L 243.941406 219.253906 C 244.316406 218.128906 244.753906 217.003906 245.191406 215.941406 C 245.628906 214.878906 246.066406 213.753906 246.503906 212.691406 C 246.691406 212.316406 246.878906 211.816406 247.066406 211.316406 C 247.253906 210.816406 247.503906 210.316406 247.753906 209.816406 C 248.003906 209.316406 248.191406 208.816406 248.441406 208.316406 C 248.691406 207.816406 248.878906 207.378906 249.066406 207.003906 L 247.378906 207.003906 C 247.191406 207.253906 247.066406 207.691406 246.878906 208.253906 Z M 246.878906 208.253906 " fill-opacity="1" fill-rule="nonzero"/><path fill="#000000" d="M 257.066406 218.066406 C 256.628906 218.066406 256.003906 218.066406 255.691406 218.066406 C 255.378906 218.066406 254.941406 218.066406 254.816406 218.066406 L 254.816406 213.191406 C 255.253906 213.191406 255.816406 213.191406 256.253906 213.191406 C 256.691406 213.191406 257.378906 213.191406 257.816406 213.191406 C 258.066406 213.191406 258.503906 213.191406 258.753906 213.253906 C 259.003906 213.253906 259.191406 213.253906 259.441406 213.316406 L 259.441406 212.066406 C 259.191406 212.066406 258.878906 212.128906 258.566406 212.128906 C 258.191406 212.128906 257.628906 212.191406 257.253906 212.191406 C 256.878906 212.191406 256.253906 212.191406 255.878906 212.191406 C 255.566406 212.191406 255.066406 212.191406 254.816406 212.191406 L 254.816406 208.003906 C 255.191406 208.003906 255.753906 208.003906 256.003906 208.003906 C 256.253906 208.003906 256.753906 208.003906 256.941406 208.003906 C 257.128906 208.003906 257.253906 208.003906 257.378906 208.003906 C 257.503906 208.003906 257.628906 208.003906 257.816406 208.003906 L 259.753906 208.066406 L 259.753906 206.816406 C 259.128906 206.816406 258.253906 206.878906 257.691406 206.878906 C 257.128906 206.878906 256.316406 206.941406 255.941406 206.941406 C 255.691406 206.941406 255.253906 206.941406 254.941406 206.941406 C 254.628906 206.941406 254.378906 206.941406 254.066406 206.941406 C 253.753906 206.941406 253.503906 206.941406 253.191406 206.878906 C 252.941406 206.878906 252.691406 206.878906 252.441406 206.816406 C 252.503906 207.253906 252.503906 207.816406 252.503906 208.441406 C 252.503906 209.066406 252.566406 209.628906 252.566406 210.253906 C 252.566406 210.816406 252.566406 211.378906 252.566406 211.878906 C 252.566406 212.378906 252.566406 212.691406 252.566406 212.878906 C 252.566406 213.066406 252.566406 213.378906 252.566406 213.691406 C 252.566406 214.066406 252.566406 214.441406 252.566406 214.816406 C 252.566406 215.191406 252.566406 215.566406 252.566406 215.941406 C 252.566406 216.316406 252.566406 216.628906 252.566406 216.878906 C 252.566406 217.253906 252.566406 217.628906 252.503906 218.003906 C 252.503906 218.378906 252.503906 218.753906 252.441406 219.128906 C 253.566406 219.066406 254.878906 219.003906 256.003906 219.003906 C 257.128906 219.003906 258.753906 219.066406 259.816406 219.128906 L 259.816406 217.878906 C 259.441406 217.878906 259.003906 217.941406 258.566406 217.941406 C 258.191406 218.003906 257.503906 218.003906 257.066406 218.066406 Z M 257.066406 218.066406 " fill-opacity="1" fill-rule="nonzero"/><path fill="#000000" d="M 272.125 217.378906 C 271.9375 217.066406 271.6875 216.753906 271.4375 216.441406 C 271.1875 216.066406 270.875 215.691406 270.503906 215.191406 C 270.378906 215.003906 270.191406 214.753906 270.066406 214.503906 C 269.878906 214.253906 269.753906 214.003906 269.628906 213.816406 L 269.128906 213.128906 C 269.503906 213.066406 269.941406 212.941406 270.316406 212.753906 C 270.691406 212.566406 271.003906 212.378906 271.3125 212.066406 C 271.625 211.816406 271.8125 211.503906 272 211.066406 C 272.1875 210.691406 272.25 210.253906 272.25 209.753906 C 272.25 209.378906 272.1875 209.003906 272.0625 208.628906 C 271.9375 208.253906 271.6875 208.003906 271.4375 207.691406 C 271.066406 207.316406 270.628906 207.066406 270.191406 206.941406 C 269.753906 206.816406 269.191406 206.753906 268.628906 206.753906 L 263.753906 206.753906 C 263.816406 207.316406 263.816406 207.816406 263.816406 208.191406 C 263.816406 208.566406 263.816406 208.878906 263.878906 209.253906 C 263.878906 209.566406 263.878906 209.941406 263.878906 210.316406 C 263.878906 210.691406 263.878906 211.191406 263.878906 211.753906 C 263.878906 212.316406 263.878906 212.816406 263.878906 213.253906 C 263.878906 213.691406 263.878906 214.066406 263.878906 214.441406 C 263.878906 214.816406 263.878906 215.128906 263.878906 215.441406 C 263.878906 215.753906 263.878906 216.066406 263.878906 216.441406 C 263.878906 216.816406 263.878906 217.191406 263.816406 217.628906 C 263.816406 218.066406 263.753906 218.566406 263.753906 219.128906 L 266.191406 219.128906 C 266.191406 219.003906 266.191406 218.816406 266.191406 218.503906 C 266.191406 218.191406 266.191406 217.878906 266.191406 217.503906 C 266.191406 217.128906 266.191406 216.816406 266.191406 216.503906 C 266.191406 216.191406 266.191406 215.941406 266.191406 215.816406 L 266.191406 213.253906 L 266.628906 213.253906 C 267.128906 213.941406 267.628906 214.628906 268.128906 215.378906 C 268.628906 216.128906 269.128906 216.878906 269.628906 217.566406 C 269.753906 217.753906 269.941406 218.003906 270.066406 218.316406 C 270.253906 218.628906 270.378906 218.878906 270.503906 219.066406 L 273.5625 219.066406 C 273.25 218.691406 273 218.378906 272.8125 218.128906 C 272.5625 217.941406 272.3125 217.691406 272.125 217.378906 Z M 267.316406 212.566406 C 267.066406 212.566406 266.878906 212.566406 266.628906 212.566406 C 266.441406 212.566406 266.253906 212.566406 266.066406 212.503906 L 266.066406 207.878906 C 266.191406 207.878906 266.378906 207.878906 266.691406 207.816406 C 266.941406 207.816406 267.191406 207.816406 267.378906 207.816406 C 267.691406 207.816406 267.941406 207.816406 268.253906 207.878906 C 268.566406 207.941406 268.816406 208.066406 269.066406 208.253906 C 269.378906 208.503906 269.566406 208.753906 269.691406 209.066406 C 269.816406 209.378906 269.816406 209.753906 269.816406 210.128906 C 269.816406 210.441406 269.753906 210.691406 269.691406 211.003906 C 269.628906 211.316406 269.441406 211.566406 269.253906 211.816406 C 269.066406 212.066406 268.816406 212.253906 268.503906 212.378906 C 268.191406 212.503906 267.816406 212.566406 267.316406 212.566406 Z M 267.316406 212.566406 " fill-opacity="1" fill-rule="nonzero"/><path fill="#000000" d="M 283.4375 214.441406 C 283.375 214.253906 283.3125 214.003906 283.1875 213.816406 C 283.0625 213.566406 282.9375 213.378906 282.75 213.191406 C 282.625 213.066406 282.5 212.941406 282.375 212.816406 C 282.25 212.691406 282.0625 212.628906 281.875 212.503906 C 281.6875 212.378906 281.4375 212.316406 281.1875 212.191406 C 280.9375 212.066406 280.625 212.003906 280.3125 211.816406 C 279.9375 211.691406 279.5625 211.503906 279.25 211.378906 C 278.9375 211.253906 278.6875 211.128906 278.4375 210.941406 C 278.25 210.753906 278.0625 210.566406 277.9375 210.378906 C 277.8125 210.128906 277.75 209.878906 277.75 209.566406 C 277.75 209.066406 277.9375 208.566406 278.3125 208.191406 C 278.6875 207.816406 279.1875 207.628906 279.875 207.628906 C 280.4375 207.628906 280.9375 207.753906 281.375 208.003906 C 281.8125 208.253906 282.0625 208.628906 282.1875 209.191406 L 282.4375 209.191406 L 283 207.503906 C 282.5625 207.316406 282.125 207.128906 281.6875 207.003906 C 281.25 206.878906 280.6875 206.816406 280.0625 206.816406 C 279.25 206.816406 278.5625 206.941406 278.0625 207.128906 C 277.5 207.378906 277.125 207.628906 276.75 208.003906 C 276.4375 208.378906 276.1875 208.753906 276.0625 209.191406 C 275.9375 209.628906 275.875 210.003906 275.875 210.441406 C 275.875 210.816406 275.9375 211.128906 276 211.441406 C 276.0625 211.753906 276.1875 212.003906 276.375 212.253906 C 276.5625 212.503906 276.8125 212.753906 277.0625 212.941406 C 277.375 213.128906 277.75 213.378906 278.125 213.566406 C 278.375 213.691406 278.6875 213.816406 279.0625 213.941406 C 279.4375 214.066406 279.75 214.191406 280 214.316406 C 280.0625 214.378906 280.1875 214.441406 280.375 214.503906 C 280.5625 214.566406 280.6875 214.691406 280.875 214.878906 C 281.0625 215.066406 281.1875 215.253906 281.3125 215.503906 C 281.4375 215.753906 281.5 216.066406 281.5 216.378906 C 281.5 216.691406 281.4375 217.003906 281.3125 217.253906 C 281.1875 217.503906 281.0625 217.753906 280.8125 217.941406 C 280.625 218.128906 280.375 218.316406 280.0625 218.378906 C 279.75 218.503906 279.4375 218.566406 279.0625 218.566406 C 278.8125 218.566406 278.5625 218.566406 278.3125 218.503906 C 278.0625 218.441406 277.8125 218.378906 277.625 218.191406 C 277.375 218.066406 277.1875 217.816406 276.9375 217.566406 C 276.75 217.316406 276.5 216.941406 276.3125 216.503906 L 276.0625 216.503906 L 275.625 218.503906 C 275.75 218.566406 276 218.691406 276.1875 218.753906 C 276.4375 218.878906 276.6875 218.941406 276.9375 219.066406 C 277.1875 219.191406 277.5 219.253906 277.875 219.316406 C 278.1875 219.378906 278.5625 219.441406 278.9375 219.441406 C 279.75 219.441406 280.4375 219.316406 281.0625 219.066406 C 281.625 218.816406 282.125 218.503906 282.5 218.128906 C 282.875 217.753906 283.125 217.316406 283.3125 216.878906 C 283.5 216.441406 283.5625 215.941406 283.5625 215.503906 C 283.5625 215.378906 283.5625 215.253906 283.5 215.066406 C 283.5625 214.878906 283.5 214.628906 283.4375 214.441406 Z M 283.4375 214.441406 " fill-opacity="1" fill-rule="nonzero"/><path fill="#000000" d="M 289.625 209.816406 C 289.625 209.253906 289.6875 208.691406 289.6875 208.128906 C 289.6875 207.628906 289.75 207.191406 289.8125 206.816406 L 287.25 206.816406 C 287.375 207.691406 287.375 208.441406 287.4375 209.128906 C 287.4375 209.816406 287.4375 210.378906 287.4375 211.003906 C 287.4375 212.566406 287.4375 214.003906 287.4375 215.441406 C 287.4375 216.878906 287.375 218.066406 287.25 219.191406 L 289.8125 219.191406 C 289.75 218.441406 289.6875 217.628906 289.6875 216.628906 C 289.6875 215.628906 289.625 214.503906 289.625 213.128906 C 289.625 212.691406 289.625 212.128906 289.625 211.566406 C 289.625 211.003906 289.625 210.441406 289.625 209.816406 Z M 289.625 209.816406 " fill-opacity="1" fill-rule="nonzero"/><path fill="#000000" d="M 298.3125 207.003906 C 298 207.003906 297.5625 207.003906 297.1875 207.003906 C 296.75 207.003906 296.375 207.003906 295.9375 207.003906 C 295.5 207.003906 295.125 207.003906 294.6875 206.941406 C 294.25 206.941406 293.875 206.878906 293.5 206.878906 L 293.5 208.191406 C 293.75 208.191406 294 208.128906 294.3125 208.128906 C 294.625 208.128906 294.9375 208.066406 295.1875 208.066406 C 295.5 208.066406 295.75 208.066406 295.9375 208.066406 C 296.125 208.066406 296.25 208.066406 296.3125 208.066406 L 297.1875 208.066406 C 297.1875 208.441406 297.1875 208.753906 297.1875 209.066406 C 297.1875 209.378906 297.1875 209.691406 297.1875 210.066406 L 297.1875 215.066406 C 297.1875 215.753906 297.1875 216.441406 297.125 217.128906 C 297.0625 217.816406 297.0625 218.503906 297 219.191406 L 299.5 219.191406 C 299.5 218.941406 299.4375 218.628906 299.4375 218.316406 C 299.4375 217.941406 299.375 217.441406 299.375 216.753906 L 299.375 210.128906 C 299.375 209.753906 299.375 209.441406 299.375 209.128906 C 299.375 208.816406 299.375 208.441406 299.375 208.128906 C 300 208.128906 300.625 208.128906 301.1875 208.128906 C 301.8125 208.128906 302.375 208.191406 302.9375 208.253906 L 302.9375 206.941406 C 302.0625 207.003906 301.25 207.003906 300.4375 207.003906 C 299.8125 207.003906 299.0625 207.003906 298.3125 207.003906 Z M 298.3125 207.003906 " fill-opacity="1" fill-rule="nonzero"/><path fill="#000000" d="M 225.941406 209.316406 C 226.003906 210.003906 226.003906 210.753906 226.003906 211.441406 L 226.003906 215.441406 C 225.816406 215.316406 225.628906 215.191406 225.503906 215.066406 C 225.378906 214.941406 225.253906 214.816406 225.066406 214.691406 L 222.941406 212.628906 C 222.378906 212.128906 221.878906 211.628906 221.378906 211.128906 C 220.878906 210.628906 220.441406 210.191406 220.003906 209.691406 C 219.566406 209.253906 219.128906 208.753906 218.691406 208.316406 C 218.253906 207.878906 217.816406 207.378906 217.378906 206.941406 L 216.503906 206.941406 C 216.503906 207.753906 216.503906 208.628906 216.503906 209.441406 C 216.503906 210.253906 216.503906 211.128906 216.503906 211.941406 L 216.503906 214.378906 C 216.503906 214.503906 216.503906 214.691406 216.503906 214.878906 C 216.503906 215.066406 216.503906 215.316406 216.503906 215.566406 C 216.503906 215.816406 216.503906 216.003906 216.503906 216.253906 C 216.503906 216.441406 216.503906 216.628906 216.503906 216.753906 L 216.378906 219.253906 L 217.941406 219.253906 C 217.878906 218.816406 217.878906 218.503906 217.878906 218.253906 C 217.878906 218.003906 217.816406 217.753906 217.816406 217.566406 C 217.816406 217.378906 217.816406 217.191406 217.816406 217.003906 C 217.816406 216.816406 217.816406 216.628906 217.816406 216.316406 C 217.816406 215.816406 217.816406 215.378906 217.816406 215.003906 C 217.816406 214.566406 217.816406 214.191406 217.816406 213.691406 C 217.816406 213.253906 217.816406 212.816406 217.816406 212.316406 C 217.816406 211.816406 217.816406 211.316406 217.816406 210.691406 C 218.128906 211.003906 218.503906 211.316406 218.941406 211.753906 C 219.378906 212.191406 219.878906 212.628906 220.378906 213.128906 C 220.878906 213.628906 221.441406 214.128906 222.003906 214.691406 C 222.566406 215.253906 223.128906 215.691406 223.628906 216.253906 C 224.191406 216.816406 224.691406 217.316406 225.191406 217.816406 C 225.691406 218.316406 226.128906 218.753906 226.503906 219.191406 L 227.253906 219.191406 C 227.253906 219.066406 227.253906 218.941406 227.253906 218.816406 C 227.253906 218.628906 227.253906 218.503906 227.253906 218.316406 C 227.253906 218.128906 227.253906 218.003906 227.253906 217.816406 C 227.253906 217.691406 227.253906 217.566406 227.253906 217.441406 C 227.253906 217.191406 227.253906 216.878906 227.253906 216.503906 C 227.253906 216.128906 227.253906 215.753906 227.253906 215.316406 C 227.253906 214.878906 227.253906 214.441406 227.253906 214.003906 C 227.253906 213.566406 227.253906 213.253906 227.253906 213.003906 C 227.253906 212.316406 227.253906 211.753906 227.253906 211.253906 C 227.253906 210.753906 227.253906 210.253906 227.253906 209.816406 C 227.253906 209.378906 227.316406 208.878906 227.316406 208.441406 C 227.316406 208.003906 227.378906 207.503906 227.441406 206.941406 L 225.878906 206.941406 Z M 225.941406 209.316406 " fill-opacity="1" fill-rule="nonzero"/><path fill="#000000" d="M 309.8125 219.191406 C 309.8125 218.816406 309.8125 218.441406 309.875 218.003906 C 309.875 217.566406 309.875 217.128906 309.9375 216.628906 C 309.9375 216.191406 309.9375 215.753906 309.9375 215.316406 C 309.9375 214.878906 309.9375 214.566406 309.9375 214.316406 L 308.875 212.503906 C 308.625 212.128906 308.375 211.691406 308.125 211.191406 C 307.8125 210.691406 307.5 210.191406 307.25 209.691406 C 306.9375 209.191406 306.625 208.691406 306.3125 208.191406 C 306 207.691406 305.75 207.253906 305.5 206.878906 L 308.4375 206.878906 C 308.6875 207.378906 308.875 207.816406 309.125 208.253906 C 309.3125 208.691406 309.5625 209.128906 309.8125 209.628906 C 310.0625 210.066406 310.3125 210.566406 310.625 211.128906 C 310.9375 211.691406 311.25 212.253906 311.625 212.941406 C 312 212.253906 312.3125 211.753906 312.5625 211.253906 C 312.8125 210.816406 313.0625 210.378906 313.25 209.941406 C 313.4375 209.503906 313.6875 209.066406 313.875 208.628906 C 314.125 208.128906 314.375 207.566406 314.6875 206.878906 L 316.5 206.878906 C 316.4375 207.003906 316.3125 207.191406 316.125 207.503906 C 315.9375 207.816406 315.75 208.066406 315.5625 208.441406 C 315.375 208.753906 315.1875 209.066406 315 209.316406 C 314.8125 209.566406 314.6875 209.816406 314.625 209.878906 C 314.1875 210.503906 313.8125 211.191406 313.5 211.816406 C 313.125 212.503906 312.75 213.128906 312.375 213.753906 C 312.3125 213.878906 312.25 213.941406 312.1875 214.066406 C 312.125 214.191406 312.125 214.253906 312.125 214.316406 L 312.125 215.003906 C 312.125 215.378906 312.125 215.753906 312.125 216.066406 C 312.125 216.378906 312.125 216.691406 312.125 217.003906 C 312.125 217.316406 312.125 217.691406 312.1875 218.003906 C 312.1875 218.316406 312.1875 218.691406 312.25 219.128906 L 309.8125 219.128906 Z M 309.8125 219.191406 " fill-opacity="1" fill-rule="nonzero"/><path fill="#000000" d="M 132.632812 177.324219 L 131.757812 174.761719 L 151.632812 174.761719 L 151.632812 162.199219 C 144.132812 163.136719 139.945312 163.511719 135.945312 163.636719 L 134.820312 161.261719 C 144.757812 160.886719 157.757812 158.699219 165.882812 156.140625 L 168.882812 159.261719 C 164.570312 160.324219 161.445312 160.949219 154.945312 161.886719 L 154.945312 174.824219 L 168.320312 174.824219 L 171.191406 171.761719 L 175.441406 176.074219 L 174.316406 177.386719 L 155.007812 177.386719 L 155.007812 198.257812 L 151.757812 198.382812 L 151.757812 177.386719 L 132.632812 177.386719 Z M 132.632812 177.324219 " fill-opacity="1" fill-rule="nonzero"/><path fill="#000000" d="M 193.253906 159.449219 L 193.253906 155.140625 L 196.441406 155.265625 L 196.441406 159.449219 L 206.128906 159.449219 L 206.128906 155.140625 L 209.378906 155.265625 L 209.378906 159.449219 L 217.128906 159.449219 L 219.503906 156.640625 L 223.691406 160.324219 L 222.566406 161.574219 L 209.316406 161.574219 L 209.316406 165.011719 L 206.066406 165.136719 L 206.066406 161.574219 L 196.378906 161.574219 L 196.378906 165.011719 L 193.191406 165.136719 L 193.191406 161.574219 L 180.316406 161.574219 L 179.503906 159.386719 L 193.253906 159.386719 Z M 181.191406 186.445312 L 180.691406 184.320312 L 199.878906 184.320312 L 199.878906 181.320312 L 191.441406 181.320312 L 191.441406 182.320312 L 188.441406 182.445312 L 188.441406 170.386719 L 180.878906 170.386719 L 180.128906 168.199219 L 188.503906 168.199219 L 188.503906 164.199219 L 191.503906 164.324219 L 191.503906 168.199219 L 199.503906 168.199219 L 199.503906 164.011719 L 202.503906 164.136719 L 202.503906 168.199219 L 211.253906 168.199219 L 211.253906 164.386719 L 214.128906 164.574219 L 214.128906 168.199219 L 217.503906 168.199219 L 219.566406 165.699219 L 223.503906 169.074219 L 222.378906 170.449219 L 214.128906 170.449219 L 214.128906 177.386719 L 211.253906 177.574219 L 211.253906 176.011719 L 202.503906 176.011719 L 202.503906 177.574219 L 199.503906 177.699219 L 199.503906 170.324219 L 191.503906 170.324219 L 191.503906 179.136719 L 214.878906 179.136719 L 217.066406 176.511719 L 220.878906 179.886719 L 219.628906 181.257812 L 203.191406 181.257812 L 203.191406 184.257812 L 217.066406 184.257812 L 219.191406 181.820312 L 223.503906 185.070312 L 222.378906 186.382812 L 205.003906 186.382812 C 209.503906 189.820312 215.253906 192.257812 223.753906 194.382812 C 222.066406 195.632812 221.753906 195.945312 220.753906 197.132812 C 213.628906 195.132812 208.066406 191.820312 203.003906 186.695312 L 203.003906 198.320312 L 199.816406 198.445312 L 199.816406 188.257812 C 195.003906 193.007812 188.316406 196.382812 180.753906 197.882812 L 179.753906 196.132812 C 187.503906 194.007812 193.191406 190.820312 197.378906 186.320312 L 181.191406 186.320312 Z M 211.066406 174.011719 L 211.066406 170.386719 L 202.316406 170.386719 L 202.316406 174.011719 Z M 211.066406 174.011719 " fill-opacity="1" fill-rule="nonzero"/><path fill="#000000" d="M 247.566406 155.578125 L 250.941406 155.703125 L 250.941406 168.886719 L 263.503906 168.886719 L 266.316406 165.574219 L 270.75 169.699219 L 269.378906 171.261719 L 251.878906 171.261719 C 255.253906 182.257812 261.316406 189.945312 270.9375 195.507812 C 269.191406 196.570312 268.753906 196.945312 267.503906 198.320312 C 258.191406 191.945312 252.128906 182.507812 250.378906 171.699219 C 249.753906 183.632812 241.628906 194.195312 229.628906 198.945312 L 227.878906 197.195312 C 239.816406 191.507812 246.816406 182.195312 247.316406 171.261719 L 229.316406 171.261719 L 228.566406 168.886719 L 247.566406 168.886719 Z M 247.566406 155.578125 " fill-opacity="1" fill-rule="nonzero"/><path fill="#000000" d="M 282.125 164.824219 C 282.125 165.449219 282.125 165.511719 282.0625 166.011719 L 304.375 166.011719 C 306.5 162.699219 308.1875 159.199219 309.4375 155.765625 L 313.5 157.390625 C 311.9375 159.761719 309.5625 162.886719 306.8125 166.011719 L 314.0625 166.011719 L 316.625 163.824219 L 319.625 168.449219 L 318.0625 168.949219 C 317.3125 169.886719 316.5625 170.824219 315.8125 171.761719 C 315.125 172.636719 314.8125 173.011719 313.625 174.324219 L 311.625 173.386719 C 313 171.011719 313.5625 170.011719 314.3125 168.261719 L 281.875 168.261719 C 281.375 171.011719 280.6875 172.699219 279.1875 174.949219 C 278.0625 174.261719 276.75 173.136719 275.875 172.011719 C 278.4375 169.636719 279.3125 167.824219 279.875 164.324219 Z M 296.3125 182.757812 L 296.3125 179.199219 L 298.5625 179.386719 C 300.5625 178.011719 302.6875 176.324219 304.25 174.699219 L 284.4375 174.699219 L 283.5 172.511719 L 304.6875 172.511719 L 306.5625 170.636719 L 310.375 174.699219 L 308.25 175.449219 C 304.25 178.199219 301.4375 179.949219 299.4375 180.945312 L 299.4375 182.695312 L 312.5625 182.695312 L 315.0625 179.699219 L 319.375 183.695312 L 318.25 184.945312 L 299.375 184.945312 L 299.375 195.257812 C 299.375 197.632812 298.5625 198.320312 295.875 198.320312 L 294.375 198.320312 C 294.25 197.507812 294 197.195312 293.3125 197.070312 C 292.6875 196.945312 292 196.820312 288.5625 196.570312 L 288.5625 194.257812 L 289.5625 194.382812 C 293.25 194.632812 293.9375 194.695312 295.0625 194.695312 C 296 194.695312 296.25 194.382812 296.25 193.382812 L 296.25 185.007812 L 277.5 185.007812 L 276.5625 182.695312 L 296.3125 182.695312 Z M 285.125 156.078125 C 287.75 158.511719 289.4375 160.824219 290.6875 163.449219 C 289.3125 164.574219 288.625 164.886719 287.4375 165.261719 C 286.4375 162.324219 285.0625 159.824219 283.1875 157.140625 Z M 295.6875 155.390625 C 298.1875 158.011719 299.5 159.886719 301 163.011719 C 300.0625 163.949219 299.125 164.449219 297.5625 164.949219 C 296.6875 161.449219 295.625 159.074219 293.75 156.578125 Z M 295.6875 155.390625 " fill-opacity="1" fill-rule="nonzero"/></svg>