<?xml version="1.0" encoding="utf-8"?>
<!-- Generator: Adobe Illustrator 25.4.1, SVG Export Plug-In . SVG Version: 6.00 Build 0)  -->
<svg version="1.1" baseProfile="tiny" id="レイヤー_1"
	 xmlns="http://www.w3.org/2000/svg" xmlns:xlink="http://www.w3.org/1999/xlink" x="0px" y="0px" viewBox="0 0 595.3 841.9"
	 overflow="visible" xml:space="preserve">
<g>
	<g>
		<g>
			<g>
				<path d="M256.6,414.9c0,2.1,0,4.3,0,6.4c0,0.7,0,1.2,0,1.7c0,0.5,0,0.9-0.1,1.2c0,0.3-0.1,0.6-0.1,0.9c-0.1,0.2-0.1,0.4-0.2,0.6
					c-0.4,1-1,1.8-2,2.4c-1,0.6-2.1,0.9-3.5,0.9c-1.2,0-2.2-0.2-3-0.5c-0.9-0.3-1.5-0.8-2-1.5c-0.2-0.3-0.4-0.7-0.6-1
					c-0.1-0.3-0.2-0.8-0.3-1.3c-0.1-0.5-0.1-1.2-0.1-2.1c0-0.8,0-1.9,0-3.2c0-1.4,0-2.9,0-4.4c0-1.5,0-2.9,0.1-4.1l0.1-2.5h-4.4
					c0,0.4,0,0.9,0.1,1.4c0,0.5,0,1,0.1,1.6c0,0.5,0,1,0,1.5c0,0.5,0,1,0,1.4v8.9c0,0.2,0,0.4,0,0.8c0,0.4,0,0.7,0.1,0.9
					c0.2,1.3,0.6,2.3,1.2,3.1c0.6,0.8,1.4,1.5,2.3,1.9c0.9,0.5,1.9,0.8,2.9,1c1,0.2,2,0.3,3,0.3c0.9,0,1.8-0.1,2.8-0.3
					c1-0.2,1.9-0.6,2.7-1.1c0.5-0.3,1-0.7,1.4-1.1c0.4-0.4,0.7-0.9,1-1.4c0.3-0.6,0.5-1.2,0.6-1.9c0.1-0.7,0.2-1.6,0.2-2.5
					c0-0.8,0-1.8,0.1-3c0-1.2,0-2.4,0.1-3.6c0-1.2,0-2.4,0.1-3.5c0-1.1,0.1-2,0.1-2.7l0.1-1.6h-3
					C256.5,410.6,256.6,412.8,256.6,414.9z"/>
				<path d="M298.3,413.9c0-1.1,0.1-2.1,0.1-3c0-1,0.1-1.7,0.2-2.3h-4.7c0.2,1.6,0.3,3,0.3,4.2c0,1.2,0,2.3,0,3.4
					c0,2.8,0,5.5-0.1,8.1c0,2.6-0.1,4.8-0.3,6.8h4.7c-0.1-1.3-0.2-2.9-0.3-4.7c0-1.8-0.1-3.9-0.1-6.4c0-0.8,0-1.8,0-2.8
					C298.2,416,298.3,414.9,298.3,413.9z"/>
				<path d="M322,410.9c-0.3,0.9-0.7,1.9-1,2.9c-0.4,1-0.7,2-1.1,3c-0.4,1-0.7,1.9-1,2.7c-0.3,0.8-0.6,1.5-0.8,2
					c-0.2,0.5-0.3,0.9-0.4,1l-1.2,3.1c-0.4-0.9-0.8-1.7-1.2-2.6c-0.4-0.8-0.8-1.7-1.1-2.6c-0.7-1.7-1.2-3.2-1.7-4.3
					c-0.4-1.2-0.8-2.2-1.1-3c-0.3-0.9-0.6-1.6-0.8-2.3c-0.2-0.7-0.5-1.5-0.7-2.3h-5.1c0.1,0.2,0.2,0.5,0.4,1
					c0.2,0.5,0.4,0.9,0.6,1.5c0.2,0.5,0.4,1,0.7,1.5c0.2,0.5,0.3,0.8,0.4,1c0.1,0.2,0.2,0.4,0.3,0.8c0.2,0.4,0.3,0.8,0.5,1.3
					c0.2,0.5,0.4,1,0.6,1.5c0.2,0.5,0.4,1,0.6,1.5c0.2,0.5,0.4,0.9,0.5,1.3c0.1,0.4,0.3,0.7,0.4,0.9c0.6,1.4,1,2.5,1.4,3.3
					c0.3,0.8,0.6,1.6,0.9,2.3c0.2,0.7,0.5,1.3,0.7,2c0.2,0.7,0.5,1.6,0.9,2.6h2.7c0.7-2.1,1.5-4.1,2.3-6.1c0.8-2,1.6-4,2.4-6
					c0.3-0.7,0.7-1.6,1.1-2.5c0.4-0.9,0.8-1.8,1.2-2.8c0.4-0.9,0.8-1.9,1.2-2.7c0.4-0.9,0.8-1.7,1.2-2.4h-3.1
					C322.6,409.2,322.4,410,322,410.9z"/>
				<path d="M340.7,428.9c-0.8,0-2,0-2.5,0c-0.6,0-1.3,0-1.6,0v-8.9c0.8,0,1.9,0,2.6,0c0.7,0,2,0,2.8,0c0.4,0,1.3,0.1,1.7,0.1
					c0.4,0,0.8,0.1,1.3,0.1V418c-0.4,0-1,0.1-1.6,0.1c-0.6,0-1.7,0.1-2.4,0.1c-0.7,0-1.9,0-2.5,0c-0.6,0-1.5,0-1.9,0v-7.7
					c0.7,0,1.7,0,2.2,0c0.5,0,1.4,0,1.7,0c0.3,0,0.6,0,0.8,0c0.2,0,0.5,0,0.8,0l3.5,0.2v-2.3c-1.2,0-2.7,0.1-3.8,0.1
					c-1,0.1-2.5,0.1-3.2,0.1c-0.4,0-1.3,0-1.8,0c-0.5,0-1.1,0-1.6-0.1c-0.5,0-1.1,0-1.6-0.1c-0.5,0-0.9,0-1.3-0.1
					c0.1,0.8,0.1,1.8,0.1,2.9c0,1.1,0.1,2.2,0.1,3.3c0,1.1,0,2.1,0.1,2.9c0,0.9,0,1.5,0,1.8c0,0.4,0,0.9,0,1.5c0,0.6,0,1.3,0,2
					c0,0.7,0,1.4,0,2.1c0,0.7,0,1.3,0,1.8c0,0.7,0,1.4-0.1,2c0,0.7,0,1.3-0.1,2c2.1-0.1,4.5-0.2,6.5-0.2c2.1,0,5,0.1,7,0.2v-2.3
					c-0.7,0.1-1.5,0.1-2.3,0.1C342.7,428.8,341.4,428.8,340.7,428.9z"/>
				<path d="M368.1,427.7c-0.4-0.5-0.8-1.1-1.3-1.8c-0.5-0.6-1-1.4-1.7-2.3c-0.2-0.3-0.5-0.8-0.9-1.2c-0.3-0.5-0.6-0.9-0.8-1.2
					l-0.9-1.3c0.7-0.1,1.5-0.4,2.1-0.7c0.7-0.3,1.3-0.7,1.8-1.2c0.5-0.5,0.9-1.1,1.3-1.8c0.3-0.7,0.5-1.5,0.5-2.4
					c0-0.7-0.1-1.4-0.4-2c-0.2-0.6-0.6-1.2-1.1-1.7c-0.7-0.7-1.5-1.1-2.3-1.3c-0.8-0.2-1.8-0.3-2.8-0.3h-8.7
					c0.1,1.1,0.1,1.9,0.1,2.6c0,0.7,0,1.3,0.1,1.9c0,0.6,0,1.2,0,1.9c0,0.7,0,1.6,0,2.6c0,1,0,2,0,2.7c0,0.8,0,1.5,0,2.1
					c0,0.6,0,1.3,0,1.8c0,0.6,0,1.2,0,1.8c0,0.6-0.1,1.4-0.1,2.2c0,0.8-0.1,1.7-0.1,2.8h4.5c0-0.2,0-0.6,0-1.2c0-0.6,0-1.2,0-1.8
					c0-0.6,0-1.2-0.1-1.8c0-0.6,0-1,0-1.2v-4.7h0.8c0.9,1.2,1.8,2.6,2.8,3.9c1,1.4,1.9,2.7,2.7,4c0.2,0.4,0.5,0.8,0.9,1.4
					c0.3,0.5,0.6,1,0.8,1.4h5.6c-0.5-0.7-1-1.2-1.4-1.7C368.9,428.7,368.5,428.2,368.1,427.7z M359.4,418.8c-0.4,0-0.8,0-1.2,0
					c-0.4,0-0.7,0-1-0.1v-8.5c0.2,0,0.6-0.1,1.1-0.1c0.5,0,0.9-0.1,1.2-0.1c0.5,0,1.1,0.1,1.6,0.2c0.5,0.1,1,0.3,1.4,0.7
					c0.6,0.4,0.9,0.9,1.1,1.5c0.2,0.6,0.3,1.2,0.3,1.9c0,0.5-0.1,1.1-0.2,1.6c-0.2,0.5-0.4,1-0.8,1.5c-0.3,0.4-0.8,0.8-1.4,1
					C360.9,418.7,360.2,418.8,359.4,418.8z"/>
				<path d="M388.8,422.3c-0.1-0.4-0.3-0.8-0.5-1.2c-0.2-0.4-0.5-0.8-0.8-1.2c-0.2-0.3-0.5-0.5-0.7-0.7c-0.3-0.2-0.6-0.4-0.9-0.5
					c-0.4-0.2-0.8-0.4-1.2-0.5c-0.4-0.2-1-0.4-1.6-0.6c-0.7-0.3-1.4-0.5-1.9-0.8c-0.6-0.2-1-0.5-1.4-0.8c-0.4-0.3-0.7-0.7-0.9-1.1
					c-0.2-0.4-0.3-0.9-0.3-1.5c0-1,0.3-1.8,1-2.5c0.6-0.7,1.6-1.1,2.9-1.1c1,0,2,0.2,2.8,0.7c0.8,0.5,1.3,1.2,1.5,2.1h0.5l1-3.1
					c-0.8-0.4-1.6-0.7-2.4-1c-0.8-0.3-1.8-0.4-3-0.4c-1.5,0-2.7,0.2-3.7,0.6c-1,0.4-1.8,0.9-2.3,1.6c-0.6,0.6-1,1.3-1.2,2.1
					c-0.2,0.8-0.4,1.5-0.4,2.2c0,0.7,0.1,1.3,0.2,1.9c0.1,0.6,0.3,1.1,0.7,1.5c0.3,0.5,0.7,0.9,1.3,1.3c0.5,0.4,1.2,0.8,2,1.1
					c0.5,0.2,1,0.4,1.7,0.7c0.7,0.3,1.2,0.5,1.7,0.7c0.1,0.1,0.4,0.2,0.7,0.3c0.3,0.2,0.6,0.4,0.9,0.7c0.3,0.3,0.6,0.7,0.8,1.1
					c0.2,0.5,0.3,1,0.3,1.6c0,0.6-0.1,1.1-0.3,1.6c-0.2,0.5-0.5,0.9-0.9,1.3c-0.4,0.4-0.8,0.6-1.3,0.8c-0.5,0.2-1.1,0.3-1.8,0.3
					c-0.5,0-0.9,0-1.4-0.1c-0.4-0.1-0.9-0.3-1.3-0.5c-0.4-0.3-0.8-0.6-1.2-1.1c-0.4-0.5-0.8-1.1-1.1-2h-0.5l-0.8,3.7
					c0.3,0.2,0.6,0.3,1,0.5c0.4,0.2,0.9,0.4,1.4,0.5c0.5,0.2,1.1,0.3,1.7,0.4c0.6,0.1,1.3,0.2,2,0.2c1.5,0,2.8-0.2,3.8-0.7
					c1-0.4,1.9-1,2.6-1.7c0.7-0.7,1.2-1.5,1.5-2.3c0.3-0.9,0.5-1.7,0.5-2.5c0-0.2,0-0.5-0.1-0.9C389,423,388.9,422.7,388.8,422.3z"
					/>
				<path d="M400.2,413.9c0-1.1,0.1-2.1,0.1-3c0.1-1,0.1-1.7,0.2-2.3h-4.6c0.2,1.6,0.3,3,0.3,4.2c0,1.2,0,2.3,0,3.4
					c0,2.8,0,5.5-0.1,8.1c0,2.6-0.1,4.8-0.3,6.8h4.7c-0.1-1.3-0.2-2.9-0.3-4.7c0-1.8-0.1-3.9-0.1-6.4c0-0.8,0-1.8,0-2.8
					C400.1,416,400.1,414.9,400.2,413.9z"/>
				<path d="M416,408.7c-0.6,0-1.3,0-2.1,0c-0.7,0-1.5,0-2.3,0c-0.8,0-1.5,0-2.3-0.1c-0.8,0-1.5-0.1-2.1-0.1v2.4
					c0.4,0,0.9-0.1,1.5-0.1c0.6,0,1.1-0.1,1.6-0.1c0.5,0,1,0,1.4,0c0.4,0,0.6,0,0.7,0h1.6c0,0.6,0,1.2,0.1,1.8c0,0.6,0,1.2,0,1.8
					l0,9.1c0,1.2,0,2.5-0.1,3.7c-0.1,1.3-0.1,2.5-0.2,3.8h4.6c0-0.5-0.1-1-0.1-1.7c-0.1-0.6-0.1-1.6-0.1-2.8v-12.1
					c0-0.6,0-1.3,0-1.9c0-0.6,0-1.2,0.1-1.8c1.1,0,2.3,0,3.4,0c1.1,0,2.2,0.1,3.2,0.2v-2.4c-1.6,0.1-3.1,0.1-4.5,0.2
					C418.7,408.7,417.3,408.7,416,408.7z"/>
				<path d="M283.9,412.9c0.1,1.3,0.1,2.6,0.1,3.9v7.3c-0.4-0.3-0.7-0.5-0.9-0.7c-0.2-0.2-0.5-0.4-0.8-0.7l-3.9-3.8
					c-1-1-1.9-1.9-2.8-2.8c-0.9-0.9-1.7-1.7-2.6-2.6c-0.8-0.8-1.6-1.7-2.4-2.5c-0.8-0.8-1.6-1.7-2.4-2.5h-1.6c0,1.5,0,3.1,0.1,4.6
					c0,1.5,0,3.1,0,4.6v4.5c0,0.2,0,0.6,0,0.9c0,0.4,0,0.8,0,1.2c0,0.4,0,0.8,0,1.2c0,0.4,0,0.7-0.1,0.9l-0.3,4.6h2.8
					c-0.1-0.7-0.1-1.4-0.1-1.8c0-0.5-0.1-0.9-0.1-1.2c0-0.3,0-0.7,0-1c0-0.3,0-0.7,0-1.2c0-0.9,0-1.7-0.1-2.5c0-0.8,0-1.5,0-2.3
					c0-0.8,0-1.6,0-2.5c0-0.9,0-1.9,0-3c0.6,0.5,1.3,1.2,2.1,1.9c0.8,0.8,1.7,1.6,2.7,2.5c1,0.9,1.9,1.9,3,2.9c1,1,2,1.8,3,2.8
					c1,1,1.9,1.9,2.8,2.9c0.9,0.9,1.7,1.8,2.4,2.5h1.4c0-0.2,0-0.4,0-0.7c0-0.3,0-0.6,0-0.9c0-0.3,0-0.6,0-0.9c0-0.3,0-0.5,0-0.7
					c0-0.4,0-1,0-1.7c0-0.7,0-1.4,0-2.2c0-0.8,0-1.6,0-2.4c0-0.8,0-1.4,0-1.9c0-1.2,0-2.3,0-3.2c0-0.9,0-1.8,0.1-2.6
					c0-0.8,0.1-1.7,0.1-2.5c0.1-0.8,0.1-1.7,0.2-2.7h-2.8L283.9,412.9z"/>
				<path d="M445.9,408.5c-0.6,1.3-1.1,2.4-1.5,3.2c-0.4,0.9-0.8,1.7-1.2,2.4c-0.4,0.8-0.8,1.5-1.3,2.4c-0.5,0.8-1,1.8-1.7,3
					c-0.7-1.2-1.3-2.3-1.8-3.3c-0.5-1-1-1.9-1.4-2.7c-0.4-0.9-0.9-1.7-1.2-2.5c-0.4-0.8-0.8-1.7-1.2-2.6h-5.4
					c0.4,0.7,0.9,1.5,1.4,2.4c0.6,0.9,1.1,1.8,1.7,2.7c0.5,0.9,1.1,1.8,1.6,2.7c0.5,0.9,1,1.7,1.4,2.4l1.9,3.3c0,0.5,0,1.1,0,1.9
					c0,0.8,0,1.5,0,2.4c0,0.8,0,1.6-0.1,2.5c0,0.8,0,1.5-0.1,2.2h4.5c0-0.8-0.1-1.5-0.1-2.1c0-0.6,0-1.2-0.1-1.8c0-0.6,0-1.2,0-1.8
					c0-0.6,0-1.2,0-1.9v-1.2c0-0.1,0-0.3,0.1-0.5c0.1-0.2,0.2-0.4,0.3-0.6c0.7-1.2,1.4-2.4,2-3.6c0.7-1.2,1.3-2.4,2.1-3.6
					c0.1-0.2,0.4-0.6,0.7-1.1c0.3-0.5,0.7-1.1,1-1.6c0.4-0.6,0.7-1.1,1-1.7c0.3-0.5,0.5-0.9,0.7-1.1H445.9z"/>
			</g>
			<g>
				<path d="M252.6,380.2c1.2,0,2.1,0.1,2.9,0.4c0.8,0.2,1.4,0.5,1.8,0.9c0.5,0.3,0.8,0.7,1,1c0.2,0.4,0.4,0.6,0.5,0.8h0.3l1-3.2
					c-1.3-0.6-2.6-1-3.8-1.3c-1.2-0.2-2.5-0.4-3.9-0.4c-2.2,0-4.1,0.3-5.7,0.9c-1.6,0.6-2.9,1.5-4,2.5c-1,1.1-1.8,2.3-2.3,3.8
					c-0.5,1.4-0.8,3-0.8,4.6c0,1.8,0.3,3.5,0.9,4.9c0.6,1.4,1.5,2.6,2.5,3.5c1.1,0.9,2.3,1.7,3.7,2.2c1.4,0.5,2.9,0.7,4.5,0.7
					c3,0,5.8-0.7,8.3-2.1l0.4-3.2l-0.4-0.2c-0.4,0.4-0.8,0.9-1.2,1.3c-0.5,0.4-1,0.8-1.6,1.2c-0.6,0.4-1.3,0.7-2.1,0.9
					c-0.8,0.2-1.7,0.3-2.7,0.3c-0.7,0-1.4-0.1-2-0.2c-0.6-0.2-1.1-0.4-1.6-0.7c-0.5-0.3-0.9-0.6-1.3-1c-0.4-0.4-0.7-0.7-1-1.1
					c-0.5-0.7-0.9-1.3-1.2-2c-0.3-0.7-0.5-1.3-0.6-2c-0.1-0.6-0.2-1.2-0.2-1.7c0-0.5,0-0.9,0-1.2c0-3.1,0.7-5.5,2.1-7.2
					C247.8,381.1,249.8,380.2,252.6,380.2z"/>
				<path d="M285.9,386.1c0-1.4,0.1-2.8,0.1-4.1c0.1-1.3,0.1-2.4,0.3-3.3h-4.7c0,0.6,0,1.1,0.1,1.5c0,0.3,0,0.6,0.1,0.8l0,0.8
					c0,0.2,0,0.4,0,0.7c0,0.2,0,0.6,0,1.1c0,0.5,0,1.1,0,1.7c0,0.6,0,1.2,0,1.7c0,0.5,0,0.9,0,1.1c-1,0-2,0.1-3,0.1c-1,0-2,0-3,0
					c-0.8,0-1.7,0-2.5,0c-0.8,0-1.6-0.1-2.5-0.1c0-1.5,0-2.8,0-3.8c0-1,0-1.8,0.1-2.5c0-0.7,0.1-1.2,0.1-1.7c0-0.5,0.1-0.9,0.1-1.4
					h-4.6c0.1,1.3,0.2,2.5,0.3,3.8c0.1,1.2,0.1,2.5,0.1,3.8c0,2.5,0,5,0,7.5c0,2.4-0.1,4.9-0.2,7.4h4.6c0-0.5-0.1-1-0.1-1.5
					c0-0.5-0.1-1-0.1-1.6c0-0.6-0.1-1.2-0.1-2c0-0.8,0-1.7,0-2.7v-3.3c0.9,0,1.9-0.1,2.8-0.1c0.9,0,1.9,0,2.8,0c0.9,0,1.8,0,2.7,0
					c0.9,0,1.7,0.1,2.6,0.1l0,5.3c0,0.3,0,0.8,0,1.3c0,0.6,0,1.2-0.1,1.8c0,0.6-0.1,1.2-0.1,1.7c0,0.5-0.1,0.8-0.1,1h4.6l-0.2-2
					c0-0.6-0.1-1.1-0.1-1.7c0-1.3,0-2.7,0-4c0-0.9,0-1.9,0-3.3C285.9,388.9,285.9,387.5,285.9,386.1z"/>
				<path d="M298.3,384.1c0-1.1,0.1-2.1,0.1-3c0-0.9,0.1-1.7,0.2-2.3H294l0.2,2.5c0,0.6,0.1,1.1,0.1,1.6c0,1.2,0,2.3,0,3.4
					c0,2.8,0,5.5-0.1,8.1c0,2.6-0.1,4.9-0.3,6.8h4.7c-0.1-1.3-0.2-2.9-0.3-4.7c0-1.8-0.1-3.9-0.1-6.4c0-0.8,0-1.8,0-2.8
					C298.2,386.2,298.3,385.2,298.3,384.1z"/>
				<path d="M319.6,390.6c-0.6-0.5-1.3-0.8-2.1-1c-0.8-0.2-1.6-0.4-2.5-0.5c0.7-0.1,1.3-0.3,2-0.5c0.7-0.3,1.2-0.6,1.8-1
					c0.5-0.4,1-0.9,1.3-1.5c0.3-0.6,0.5-1.3,0.5-2c0-1.1-0.2-1.9-0.6-2.6c-0.4-0.7-0.9-1.2-1.5-1.6c-0.6-0.4-1.4-0.7-2.2-0.8
					c-0.8-0.1-1.7-0.2-2.6-0.2h-7.4c0.1,1.8,0.2,3.6,0.2,5.4c0,1.8,0,3.6,0,5.4c0,1.8,0,3.7,0,5.7c0,2-0.1,4-0.2,5.9h7.3
					c0.9,0,1.7-0.1,2.3-0.2c0.6-0.1,1.2-0.3,1.7-0.5c0.5-0.2,0.8-0.4,1.2-0.6c0.3-0.2,0.6-0.4,0.8-0.7c0.1-0.1,0.3-0.3,0.5-0.5
					c0.2-0.2,0.4-0.5,0.6-0.9c0.2-0.4,0.4-0.8,0.6-1.3c0.2-0.5,0.2-1,0.2-1.6c0-1.1-0.2-2-0.5-2.7
					C320.7,391.6,320.2,391,319.6,390.6z M310.6,383.1c0-0.4,0-0.9,0-1.3c0-0.5,0-0.9,0.1-1.3c0.7-0.1,1.5-0.1,2.3-0.1
					c1.1,0,2,0.3,2.6,1c0.6,0.7,0.9,1.6,0.9,2.7c0,1.4-0.4,2.5-1.1,3.3c-0.8,0.7-1.9,1.1-3.3,1.1c-0.2,0-0.4,0-0.7,0
					c-0.2,0-0.4,0-0.7,0V383.1z M316,398.4c-0.8,0.8-2,1.2-3.6,1.2c-0.3,0-0.6,0-0.9-0.1c-0.3,0-0.6-0.1-0.9-0.1c0-0.5,0-1-0.1-1.5
					c0-0.5,0-0.9,0-1.2v-6.6c0.4-0.1,0.8-0.1,1.2-0.1c0.8,0,1.6,0.1,2.3,0.2c0.7,0.2,1.2,0.4,1.7,0.8c0.5,0.4,0.8,0.9,1.1,1.5
					c0.3,0.6,0.4,1.4,0.4,2.3C317.2,396.4,316.8,397.6,316,398.4z"/>
				<path d="M345.3,395.6c-0.4-1-0.9-2-1.3-2.9c-0.4-0.9-0.8-1.8-1.1-2.5c-0.3-0.7-0.6-1.5-1-2.4c-0.4-0.9-0.8-1.9-1.2-2.9
					c-0.4-1-0.9-2.1-1.3-3.2c-0.4-1.1-0.8-2.2-1.2-3.3h-2.1c-0.2,0.7-0.5,1.5-0.8,2.3c-0.3,0.9-0.8,1.9-1.2,3.1
					c-0.5,1.2-1.1,2.5-1.7,3.9c-0.7,1.5-1.4,3.1-2.2,5l-3.8,8.5h3c0.3-0.9,0.6-2,1.1-3.3c0.5-1.3,1-2.5,1.5-3.8
					c0.7-0.1,1.3-0.1,2-0.1c0.7,0,1.3,0,2,0c0.7,0,1.4,0,2.1,0c0.7,0,1.4,0.1,2.1,0.1l1.4,3.5l1.4,3.6h5c-0.4-0.8-0.8-1.7-1.2-2.7
					C346.2,397.6,345.8,396.6,345.3,395.6z M337.7,392.2c-0.5,0-1,0-1.5,0c-0.6,0-1.1,0-1.7-0.1c-0.6,0-1.1-0.1-1.7-0.1l3.3-8.1
					l3.1,8.1C338.7,392.1,338.2,392.1,337.7,392.2z"/>
			</g>
		</g>
	</g>
	<g>
		<path fill="#612428" d="M212.9,398.5C212.9,398.5,212.8,398.5,212.9,398.5c0-0.1-5.5-8.3-5.5-8.3s-4.3-9.3-4.3-9.3
			c0,0,0-0.1,0-0.1c0,0,0,0-0.1,0c0,0-8.5-3.8-8.5-3.8s-7.9-8.1-7.9-8.1c0,0,0,0-0.1,0c0,0-0.1,0-0.1,0c0,0-10.1,5-10.1,5
			s-10.1,0.5-10.1,0.5c0,0,0,0-0.1,0c0,0,0,0-0.1,0.1c0,0-6.3,7.7-6.3,7.7s-8,6.2-8,6.2c0,0,0,0-0.1,0.1c0,0,0,0,0,0.1
			c0,0-0.5,10.1-0.5,10.1s-2.4,9.8-2.4,9.8c0,0,0,0,0,0.1c0,0,0,0,0,0.1c0,0,5.1,8.3,5.1,8.3s3.6,9.4,3.6,9.5c0,0,0,0,0,0.1
			c0,0,0,0,0.1,0c0,0,9.2,3.6,9.2,3.6s7.9,8.1,7.9,8.1c0,0,0,0,0.1,0c0,0,0.1,0,0.1,0c0,0,10.1-5,10.1-5s9.7-0.9,9.8-0.9
			c0,0,0.1,0,0.1,0c0,0,0,0,0.1-0.1c0,0,6.6-7.2,6.6-7.2s7.3-6.1,7.3-6.1c0,0,0,0,0.1-0.1c0,0,0,0,0-0.1c0,0,1.2-10.1,1.2-10.1
			S212.8,398.6,212.9,398.5C212.9,398.6,212.9,398.5,212.9,398.5z"/>
		<g>
			<g>
				<polygon fill="#D10A2E" points="159.7,382.2 151.1,398.5 153.8,416.8 166.8,430 185,433.1 201.5,424.8 210.1,408.5 207.4,390.2 
					194.4,377 176.2,373.9 				"/>
			</g>
			<path fill="#7E1C2E" d="M149.5,387.2C149.5,387.2,149.5,387.2,149.5,387.2c-0.1,0.1-0.1,0.1-0.1,0.1c0,0,1.7,11.2,1.7,11.2
				l8.5-16.4C159.7,382.2,149.5,387.2,149.5,387.2z"/>
			<path fill="#A00F16" d="M165,372.1C165,372,165,372.1,165,372.1c-0.1,0-0.1,0-0.1,0.1c0,0-5.2,10-5.2,10l16.5-8.2
				C176.2,373.9,165,372.1,165,372.1z"/>
			<path fill="#A00F16" d="M205.7,379C205.7,379,205.7,378.9,205.7,379c-0.1-0.1-0.1-0.1-0.1-0.1c0,0-11.2-1.9-11.2-1.9l12.9,13.2
				C207.4,390.2,205.7,379,205.7,379z"/>
			<path fill="#A00F16" d="M215.3,398.4C215.3,398.4,215.3,398.4,215.3,398.4c0-0.1,0-0.1,0-0.1c0,0-7.9-8.1-7.9-8.1l2.7,18.3
				C210.1,408.5,215.3,398.4,215.3,398.4z"/>
			<path fill="#7E1C2E" d="M211.7,419.8C211.7,419.8,211.7,419.8,211.7,419.8c0.1-0.1,0.1-0.1,0.1-0.1c0,0-1.7-11.2-1.7-11.2
				l-8.5,16.4C201.5,424.8,211.7,419.8,211.7,419.8z"/>
			<path fill="#A00F16" d="M196.1,434.9C196.2,434.9,196.2,434.9,196.1,434.9c0.1,0,0.1,0,0.1-0.1c0,0,5.2-10,5.2-10l-16.5,8.2
				C185,433.1,196.1,434.9,196.1,434.9z"/>
			<path fill="#7E1C2E" d="M155.5,428C155.5,428,155.5,428.1,155.5,428c0.1,0.1,0.1,0.1,0.1,0.1c0,0,11.2,1.9,11.2,1.9l-12.9-13.2
				C153.8,416.8,155.5,428,155.5,428z"/>
			<path fill="#A00F16" d="M145.9,408.6C145.9,408.6,145.9,408.6,145.9,408.6c0,0.1,0,0.1,0,0.1c0,0,7.9,8.1,7.9,8.1l-2.7-18.3
				C151.1,398.5,145.9,408.6,145.9,408.6z"/>
		</g>
	</g>
</g>
</svg>
